%TF.GenerationSoftware,KiCad,Pcbnew,(6.0.5)*%
%TF.CreationDate,2022-06-08T15:49:38-06:00*%
%TF.ProjectId,main_board,6d61696e-5f62-46f6-9172-642e6b696361,rev?*%
%TF.SameCoordinates,Original*%
%TF.FileFunction,Soldermask,Bot*%
%TF.FilePolarity,Negative*%
%FSLAX46Y46*%
G04 Gerber Fmt 4.6, Leading zero omitted, Abs format (unit mm)*
G04 Created by KiCad (PCBNEW (6.0.5)) date 2022-06-08 15:49:38*
%MOMM*%
%LPD*%
G01*
G04 APERTURE LIST*
G04 Aperture macros list*
%AMRoundRect*
0 Rectangle with rounded corners*
0 $1 Rounding radius*
0 $2 $3 $4 $5 $6 $7 $8 $9 X,Y pos of 4 corners*
0 Add a 4 corners polygon primitive as box body*
4,1,4,$2,$3,$4,$5,$6,$7,$8,$9,$2,$3,0*
0 Add four circle primitives for the rounded corners*
1,1,$1+$1,$2,$3*
1,1,$1+$1,$4,$5*
1,1,$1+$1,$6,$7*
1,1,$1+$1,$8,$9*
0 Add four rect primitives between the rounded corners*
20,1,$1+$1,$2,$3,$4,$5,0*
20,1,$1+$1,$4,$5,$6,$7,0*
20,1,$1+$1,$6,$7,$8,$9,0*
20,1,$1+$1,$8,$9,$2,$3,0*%
G04 Aperture macros list end*
%ADD10RoundRect,0.250000X0.725000X-0.600000X0.725000X0.600000X-0.725000X0.600000X-0.725000X-0.600000X0*%
%ADD11O,1.950000X1.700000*%
%ADD12R,2.500000X2.500000*%
%ADD13C,2.500000*%
%ADD14RoundRect,0.250000X-0.725000X0.600000X-0.725000X-0.600000X0.725000X-0.600000X0.725000X0.600000X0*%
%ADD15C,6.000000*%
%ADD16R,1.700000X1.700000*%
%ADD17O,1.700000X1.700000*%
%ADD18C,1.308000*%
%ADD19C,1.258000*%
%ADD20C,1.208000*%
%ADD21RoundRect,0.250000X0.750000X-0.600000X0.750000X0.600000X-0.750000X0.600000X-0.750000X-0.600000X0*%
%ADD22O,2.000000X1.700000*%
%ADD23RoundRect,0.250000X0.600000X0.725000X-0.600000X0.725000X-0.600000X-0.725000X0.600000X-0.725000X0*%
%ADD24O,1.700000X1.950000*%
G04 APERTURE END LIST*
D10*
%TO.C,J7*%
X178750000Y-106500000D03*
D11*
X178750000Y-104000000D03*
X178750000Y-101500000D03*
X178750000Y-99000000D03*
%TD*%
D12*
%TO.C,J4*%
X123835000Y-124545000D03*
D13*
X123835000Y-119465000D03*
%TD*%
D14*
%TO.C,J9*%
X122135000Y-101500000D03*
D11*
X122135000Y-104000000D03*
X122135000Y-106500000D03*
X122135000Y-109000000D03*
X122135000Y-111500000D03*
%TD*%
D15*
%TO.C,H4*%
X126450000Y-58600000D03*
%TD*%
%TO.C,H2*%
X174650000Y-58650000D03*
%TD*%
D14*
%TO.C,J10*%
X122635000Y-66000000D03*
D11*
X122635000Y-68500000D03*
X122635000Y-71000000D03*
X122635000Y-73500000D03*
%TD*%
D10*
%TO.C,J1*%
X178585000Y-73500000D03*
D11*
X178585000Y-71000000D03*
X178585000Y-68500000D03*
X178585000Y-66000000D03*
%TD*%
D16*
%TO.C,J15*%
X155330000Y-140945000D03*
D17*
X155330000Y-143485000D03*
X155330000Y-146025000D03*
%TD*%
D18*
%TO.C,U4*%
X123665000Y-93870000D03*
X126205000Y-93870000D03*
X128745000Y-93870000D03*
X131285000Y-93870000D03*
X156685000Y-93870000D03*
X126205000Y-78630000D03*
X166845000Y-88790000D03*
X133825000Y-93870000D03*
X136365000Y-93870000D03*
D19*
X127475000Y-90820000D03*
D18*
X138905000Y-93870000D03*
X141445000Y-93870000D03*
X143985000Y-93870000D03*
X146525000Y-93870000D03*
X149065000Y-93870000D03*
X151605000Y-93870000D03*
X154145000Y-93870000D03*
X154145000Y-78630000D03*
X151605000Y-78630000D03*
X149065000Y-78630000D03*
X146525000Y-78630000D03*
X143985000Y-78630000D03*
X141445000Y-78630000D03*
X138905000Y-78630000D03*
X136365000Y-78630000D03*
X133825000Y-78630000D03*
X131285000Y-78630000D03*
X128745000Y-78630000D03*
X159225000Y-93870000D03*
X161765000Y-93870000D03*
X164305000Y-93870000D03*
X166845000Y-93870000D03*
X169385000Y-93870000D03*
X171925000Y-93870000D03*
X174465000Y-93870000D03*
X177005000Y-93870000D03*
X179545000Y-93870000D03*
X179545000Y-78630000D03*
X177005000Y-78630000D03*
X174465000Y-78630000D03*
X171925000Y-78630000D03*
X169385000Y-78630000D03*
X166845000Y-78630000D03*
X164305000Y-78630000D03*
X161765000Y-78630000D03*
X159225000Y-78630000D03*
D19*
X132555000Y-90820000D03*
X130015000Y-90820000D03*
D18*
X121125000Y-93870000D03*
X156685000Y-78630000D03*
X123665000Y-78630000D03*
X166845000Y-86250000D03*
D20*
X136095000Y-83080000D03*
X134095000Y-83080000D03*
D18*
X166845000Y-81170000D03*
X166845000Y-83710000D03*
D20*
X134095000Y-81080000D03*
X136095000Y-81080000D03*
X136095000Y-85080000D03*
X134095000Y-85080000D03*
D19*
X135095000Y-90820000D03*
X137635000Y-90820000D03*
D18*
X166845000Y-91330000D03*
X121125000Y-78630000D03*
X123665000Y-81170000D03*
%TD*%
D16*
%TO.C,J8*%
X156650000Y-61450000D03*
D17*
X159190000Y-61450000D03*
X161730000Y-61450000D03*
X164270000Y-61450000D03*
X166810000Y-61450000D03*
X169350000Y-61450000D03*
%TD*%
D21*
%TO.C,J11*%
X178785000Y-139000000D03*
D22*
X178785000Y-136500000D03*
%TD*%
D23*
%TO.C,J5*%
X160100000Y-56000000D03*
D24*
X157600000Y-56000000D03*
X155100000Y-56000000D03*
X152600000Y-56000000D03*
X150100000Y-56000000D03*
X147600000Y-56000000D03*
X145100000Y-56000000D03*
X142600000Y-56000000D03*
%TD*%
D12*
%TO.C,J3*%
X123835000Y-136750000D03*
D13*
X123835000Y-131670000D03*
%TD*%
D16*
%TO.C,J2*%
X146570000Y-73950000D03*
D17*
X149110000Y-73950000D03*
X151650000Y-73950000D03*
X154190000Y-73950000D03*
%TD*%
D15*
%TO.C,H1*%
X125300000Y-144250000D03*
%TD*%
%TO.C,H3*%
X173950000Y-145300000D03*
%TD*%
D16*
%TO.C,J13*%
X170325000Y-113900000D03*
D17*
X172865000Y-113900000D03*
%TD*%
D21*
%TO.C,J12*%
X178835000Y-115750000D03*
D22*
X178835000Y-113250000D03*
%TD*%
D16*
%TO.C,J14*%
X170325000Y-137050000D03*
D17*
X172865000Y-137050000D03*
%TD*%
D10*
%TO.C,J6*%
X178750000Y-130000000D03*
D11*
X178750000Y-127500000D03*
X178750000Y-125000000D03*
X178750000Y-122500000D03*
%TD*%
M02*
