%TF.GenerationSoftware,KiCad,Pcbnew,(6.0.5)*%
%TF.CreationDate,2022-06-08T15:49:38-06:00*%
%TF.ProjectId,main_board,6d61696e-5f62-46f6-9172-642e6b696361,rev?*%
%TF.SameCoordinates,Original*%
%TF.FileFunction,Copper,L4,Bot*%
%TF.FilePolarity,Positive*%
%FSLAX46Y46*%
G04 Gerber Fmt 4.6, Leading zero omitted, Abs format (unit mm)*
G04 Created by KiCad (PCBNEW (6.0.5)) date 2022-06-08 15:49:38*
%MOMM*%
%LPD*%
G01*
G04 APERTURE LIST*
G04 Aperture macros list*
%AMRoundRect*
0 Rectangle with rounded corners*
0 $1 Rounding radius*
0 $2 $3 $4 $5 $6 $7 $8 $9 X,Y pos of 4 corners*
0 Add a 4 corners polygon primitive as box body*
4,1,4,$2,$3,$4,$5,$6,$7,$8,$9,$2,$3,0*
0 Add four circle primitives for the rounded corners*
1,1,$1+$1,$2,$3*
1,1,$1+$1,$4,$5*
1,1,$1+$1,$6,$7*
1,1,$1+$1,$8,$9*
0 Add four rect primitives between the rounded corners*
20,1,$1+$1,$2,$3,$4,$5,0*
20,1,$1+$1,$4,$5,$6,$7,0*
20,1,$1+$1,$6,$7,$8,$9,0*
20,1,$1+$1,$8,$9,$2,$3,0*%
G04 Aperture macros list end*
%TA.AperFunction,ComponentPad*%
%ADD10RoundRect,0.250000X0.725000X-0.600000X0.725000X0.600000X-0.725000X0.600000X-0.725000X-0.600000X0*%
%TD*%
%TA.AperFunction,ComponentPad*%
%ADD11O,1.950000X1.700000*%
%TD*%
%TA.AperFunction,ComponentPad*%
%ADD12R,2.500000X2.500000*%
%TD*%
%TA.AperFunction,ComponentPad*%
%ADD13C,2.500000*%
%TD*%
%TA.AperFunction,ComponentPad*%
%ADD14RoundRect,0.250000X-0.725000X0.600000X-0.725000X-0.600000X0.725000X-0.600000X0.725000X0.600000X0*%
%TD*%
%TA.AperFunction,ComponentPad*%
%ADD15C,6.000000*%
%TD*%
%TA.AperFunction,ComponentPad*%
%ADD16R,1.700000X1.700000*%
%TD*%
%TA.AperFunction,ComponentPad*%
%ADD17O,1.700000X1.700000*%
%TD*%
%TA.AperFunction,ComponentPad*%
%ADD18C,1.308000*%
%TD*%
%TA.AperFunction,ComponentPad*%
%ADD19C,1.258000*%
%TD*%
%TA.AperFunction,ComponentPad*%
%ADD20C,1.208000*%
%TD*%
%TA.AperFunction,ComponentPad*%
%ADD21RoundRect,0.250000X0.750000X-0.600000X0.750000X0.600000X-0.750000X0.600000X-0.750000X-0.600000X0*%
%TD*%
%TA.AperFunction,ComponentPad*%
%ADD22O,2.000000X1.700000*%
%TD*%
%TA.AperFunction,ComponentPad*%
%ADD23RoundRect,0.250000X0.600000X0.725000X-0.600000X0.725000X-0.600000X-0.725000X0.600000X-0.725000X0*%
%TD*%
%TA.AperFunction,ComponentPad*%
%ADD24O,1.700000X1.950000*%
%TD*%
%TA.AperFunction,ViaPad*%
%ADD25C,0.800000*%
%TD*%
%TA.AperFunction,ViaPad*%
%ADD26C,0.600000*%
%TD*%
%TA.AperFunction,Conductor*%
%ADD27C,0.250000*%
%TD*%
%TA.AperFunction,Conductor*%
%ADD28C,3.000000*%
%TD*%
%TA.AperFunction,Conductor*%
%ADD29C,0.800000*%
%TD*%
%TA.AperFunction,Conductor*%
%ADD30C,0.200000*%
%TD*%
%TA.AperFunction,Conductor*%
%ADD31C,0.500000*%
%TD*%
G04 APERTURE END LIST*
D10*
%TO.P,J7,1,Pin_1*%
%TO.N,/Stepper_b1/1B_b*%
X178750000Y-106500000D03*
D11*
%TO.P,J7,2,Pin_2*%
%TO.N,/Stepper_b1/1A_b*%
X178750000Y-104000000D03*
%TO.P,J7,3,Pin_3*%
%TO.N,/Stepper_b1/2A_b*%
X178750000Y-101500000D03*
%TO.P,J7,4,Pin_4*%
%TO.N,/Stepper_b1/2B_b*%
X178750000Y-99000000D03*
%TD*%
D12*
%TO.P,J4,1,Pin_1*%
%TO.N,GND*%
X123835000Y-124545000D03*
D13*
%TO.P,J4,2,Pin_2*%
%TO.N,/Stepper_b/VMM*%
X123835000Y-119465000D03*
%TD*%
D14*
%TO.P,J9,1,Pin_1*%
%TO.N,/SET*%
X122135000Y-101500000D03*
D11*
%TO.P,J9,2,Pin_2*%
%TO.N,/TX_RF*%
X122135000Y-104000000D03*
%TO.P,J9,3,Pin_3*%
%TO.N,/RX_RF*%
X122135000Y-106500000D03*
%TO.P,J9,4,Pin_4*%
%TO.N,GND*%
X122135000Y-109000000D03*
%TO.P,J9,5,Pin_5*%
%TO.N,+3V3*%
X122135000Y-111500000D03*
%TD*%
D15*
%TO.P,H4,1,1*%
%TO.N,GND*%
X126450000Y-58600000D03*
%TD*%
%TO.P,H2,1,1*%
%TO.N,GND*%
X174650000Y-58650000D03*
%TD*%
D14*
%TO.P,J10,1,Pin_1*%
%TO.N,GND*%
X122635000Y-66000000D03*
D11*
%TO.P,J10,2,Pin_2*%
%TO.N,/TX_GPS*%
X122635000Y-68500000D03*
%TO.P,J10,3,Pin_3*%
%TO.N,/RX_GPS*%
X122635000Y-71000000D03*
%TO.P,J10,4,Pin_4*%
%TO.N,+3V3*%
X122635000Y-73500000D03*
%TD*%
D10*
%TO.P,J1,1,Pin_1*%
%TO.N,+3V3*%
X178585000Y-73500000D03*
D11*
%TO.P,J1,2,Pin_2*%
%TO.N,/SDA*%
X178585000Y-71000000D03*
%TO.P,J1,3,Pin_3*%
%TO.N,/SCL*%
X178585000Y-68500000D03*
%TO.P,J1,4,Pin_4*%
%TO.N,GND*%
X178585000Y-66000000D03*
%TD*%
D16*
%TO.P,J15,1,Pin_1*%
%TO.N,GND*%
X155330000Y-140945000D03*
D17*
%TO.P,J15,2,Pin_2*%
%TO.N,/TDS*%
X155330000Y-143485000D03*
%TO.P,J15,3,Pin_3*%
%TO.N,+3V3*%
X155330000Y-146025000D03*
%TD*%
D18*
%TO.P,U4,0,RX1*%
%TO.N,/LEDs/R_a*%
X123665000Y-93870000D03*
%TO.P,U4,1,TX1*%
%TO.N,/LEDs/G_a*%
X126205000Y-93870000D03*
%TO.P,U4,2,OUT2*%
%TO.N,/LEDs/B_a*%
X128745000Y-93870000D03*
%TO.P,U4,3,LRCLK2*%
%TO.N,/RX_RF*%
X131285000Y-93870000D03*
%TO.P,U4,3.3V_1,3.3V*%
%TO.N,unconnected-(U4-Pad3.3V_1)*%
X156685000Y-93870000D03*
%TO.P,U4,3.3V_2,3.3V*%
%TO.N,unconnected-(U4-Pad3.3V_2)*%
X126205000Y-78630000D03*
%TO.P,U4,3.3V_3,3.3V*%
%TO.N,unconnected-(U4-Pad3.3V_3)*%
X166845000Y-88790000D03*
%TO.P,U4,4,BCLK2*%
%TO.N,/TX_RF*%
X133825000Y-93870000D03*
%TO.P,U4,5,IN2*%
%TO.N,/LEDs/SIGNAL*%
X136365000Y-93870000D03*
D19*
%TO.P,U4,5V,5V*%
%TO.N,unconnected-(U4-Pad5V)*%
X127475000Y-90820000D03*
D18*
%TO.P,U4,6,OUT1D*%
%TO.N,/SET*%
X138905000Y-93870000D03*
%TO.P,U4,7,RX2*%
%TO.N,/Stepper_b/MS2_b*%
X141445000Y-93870000D03*
%TO.P,U4,8,TX2*%
%TO.N,/Stepper_b/MS3_b*%
X143985000Y-93870000D03*
%TO.P,U4,9,OUT1C*%
%TO.N,/Stepper_b/MS1_b*%
X146525000Y-93870000D03*
%TO.P,U4,10,CS1*%
%TO.N,/CS_VD*%
X149065000Y-93870000D03*
%TO.P,U4,11,MOSI*%
%TO.N,/MOSI*%
X151605000Y-93870000D03*
%TO.P,U4,12,MISO*%
%TO.N,/MISO*%
X154145000Y-93870000D03*
%TO.P,U4,13,SCK*%
%TO.N,/SCK*%
X154145000Y-78630000D03*
%TO.P,U4,14,A0*%
%TO.N,/Teensy41/BUZZER*%
X151605000Y-78630000D03*
%TO.P,U4,15,A1*%
%TO.N,/LEDs/B_b*%
X149065000Y-78630000D03*
%TO.P,U4,16,A2*%
%TO.N,/V_DIV*%
X146525000Y-78630000D03*
%TO.P,U4,17,A3*%
%TO.N,/TDS*%
X143985000Y-78630000D03*
%TO.P,U4,18,A4*%
%TO.N,/SDA*%
X141445000Y-78630000D03*
%TO.P,U4,19,A5*%
%TO.N,/SCL*%
X138905000Y-78630000D03*
%TO.P,U4,20,A6*%
%TO.N,/TX_GPS*%
X136365000Y-78630000D03*
%TO.P,U4,21,A7*%
%TO.N,/RX_GPS*%
X133825000Y-78630000D03*
%TO.P,U4,22,A8*%
%TO.N,/LEDs/R_b*%
X131285000Y-78630000D03*
%TO.P,U4,23,A9*%
%TO.N,/LEDs/G_b*%
X128745000Y-78630000D03*
%TO.P,U4,24,A10*%
%TO.N,/Stepper_b/DIR_b*%
X159225000Y-93870000D03*
%TO.P,U4,25,A11*%
%TO.N,/Stepper_b/STEP_b*%
X161765000Y-93870000D03*
%TO.P,U4,26,A12*%
%TO.N,/Stepper_b/SLP_b*%
X164305000Y-93870000D03*
%TO.P,U4,27,A13*%
%TO.N,/Stepper_b/RST_b*%
X166845000Y-93870000D03*
%TO.P,U4,28,RX7*%
%TO.N,/Stepper_b1/MS1_b*%
X169385000Y-93870000D03*
%TO.P,U4,29,TX7*%
%TO.N,/Stepper_b1/MS2_b*%
X171925000Y-93870000D03*
%TO.P,U4,30,CRX3*%
%TO.N,/Stepper_b1/MS3_b*%
X174465000Y-93870000D03*
%TO.P,U4,31,CTX3*%
%TO.N,/Teensy41/Limit_p*%
X177005000Y-93870000D03*
%TO.P,U4,32,OUT1B*%
%TO.N,/Teensy41/Limit_b*%
X179545000Y-93870000D03*
%TO.P,U4,33,MCLK2*%
%TO.N,/INT_GYR*%
X179545000Y-78630000D03*
%TO.P,U4,34,RX8*%
%TO.N,/INT_ACC*%
X177005000Y-78630000D03*
%TO.P,U4,35,TX8*%
%TO.N,/INT_BAR*%
X174465000Y-78630000D03*
%TO.P,U4,36,CS2*%
%TO.N,/INT_MAG*%
X171925000Y-78630000D03*
%TO.P,U4,37,CS3*%
%TO.N,/CS*%
X169385000Y-78630000D03*
%TO.P,U4,38,A14*%
%TO.N,/Stepper_b1/DIR_b*%
X166845000Y-78630000D03*
%TO.P,U4,39,A15*%
%TO.N,/Stepper_b1/STEP_b*%
X164305000Y-78630000D03*
%TO.P,U4,40,A16*%
%TO.N,/Stepper_b1/RST_b*%
X161765000Y-78630000D03*
%TO.P,U4,41,A17*%
%TO.N,/Stepper_b1/SLP_b*%
X159225000Y-78630000D03*
D19*
%TO.P,U4,D+,D+*%
%TO.N,unconnected-(U4-PadD+)*%
X132555000Y-90820000D03*
%TO.P,U4,D-,D-*%
%TO.N,unconnected-(U4-PadD-)*%
X130015000Y-90820000D03*
D18*
%TO.P,U4,GND1,GND*%
%TO.N,GND*%
X121125000Y-93870000D03*
%TO.P,U4,GND2,GND*%
X156685000Y-78630000D03*
%TO.P,U4,GND3,GND*%
X123665000Y-78630000D03*
%TO.P,U4,GND4,GND*%
X166845000Y-86250000D03*
D20*
%TO.P,U4,GND5,GND*%
X136095000Y-83080000D03*
%TO.P,U4,LED,LED*%
%TO.N,unconnected-(U4-PadLED)*%
X134095000Y-83080000D03*
D18*
%TO.P,U4,ON/OFF,ON/OFF*%
%TO.N,unconnected-(U4-PadON/OFF)*%
X166845000Y-81170000D03*
%TO.P,U4,PROGRAM,PROGRAM*%
%TO.N,unconnected-(U4-PadPROGRAM)*%
X166845000Y-83710000D03*
D20*
%TO.P,U4,R+,R+*%
%TO.N,unconnected-(U4-PadR+)*%
X134095000Y-81080000D03*
%TO.P,U4,R-,R-*%
%TO.N,unconnected-(U4-PadR-)*%
X136095000Y-81080000D03*
%TO.P,U4,T+,T+*%
%TO.N,unconnected-(U4-PadT+)*%
X136095000Y-85080000D03*
%TO.P,U4,T-,T-*%
%TO.N,unconnected-(U4-PadT-)*%
X134095000Y-85080000D03*
D19*
%TO.P,U4,USB_GND1,USB_GND*%
%TO.N,GND*%
X135095000Y-90820000D03*
%TO.P,U4,USB_GND2,USB_GND*%
X137635000Y-90820000D03*
D18*
%TO.P,U4,VBAT,VBAT*%
%TO.N,unconnected-(U4-PadVBAT)*%
X166845000Y-91330000D03*
%TO.P,U4,VIN,VIN*%
%TO.N,+5V*%
X121125000Y-78630000D03*
%TO.P,U4,VUSB,VUSB*%
%TO.N,VBUS*%
X123665000Y-81170000D03*
%TD*%
D16*
%TO.P,J8,1,Pin_1*%
%TO.N,+3V3*%
X156650000Y-61450000D03*
D17*
%TO.P,J8,2,Pin_2*%
%TO.N,/MOSI*%
X159190000Y-61450000D03*
%TO.P,J8,3,Pin_3*%
%TO.N,/MISO*%
X161730000Y-61450000D03*
%TO.P,J8,4,Pin_4*%
%TO.N,/SCK*%
X164270000Y-61450000D03*
%TO.P,J8,5,Pin_5*%
%TO.N,/CS*%
X166810000Y-61450000D03*
%TO.P,J8,6,Pin_6*%
%TO.N,GND*%
X169350000Y-61450000D03*
%TD*%
D21*
%TO.P,J11,1,Pin_1*%
%TO.N,/Teensy41/Limit_b*%
X178785000Y-139000000D03*
D22*
%TO.P,J11,2,Pin_2*%
%TO.N,GND*%
X178785000Y-136500000D03*
%TD*%
D23*
%TO.P,J5,1,Pin_1*%
%TO.N,/CS_VD*%
X160100000Y-56000000D03*
D24*
%TO.P,J5,2,Pin_2*%
%TO.N,/MOSI*%
X157600000Y-56000000D03*
%TO.P,J5,3,Pin_3*%
%TO.N,/MISO*%
X155100000Y-56000000D03*
%TO.P,J5,4,Pin_4*%
%TO.N,/SCK*%
X152600000Y-56000000D03*
%TO.P,J5,5,Pin_5*%
%TO.N,GND*%
X150100000Y-56000000D03*
%TO.P,J5,6,Pin_6*%
%TO.N,+3V3*%
X147600000Y-56000000D03*
%TO.P,J5,7,Pin_7*%
%TO.N,/SDA*%
X145100000Y-56000000D03*
%TO.P,J5,8,Pin_8*%
%TO.N,/SCL*%
X142600000Y-56000000D03*
%TD*%
D12*
%TO.P,J3,1,Pin_1*%
%TO.N,Net-(J3-Pad1)*%
X123835000Y-136750000D03*
D13*
%TO.P,J3,2,Pin_2*%
%TO.N,Net-(J3-Pad2)*%
X123835000Y-131670000D03*
%TD*%
D16*
%TO.P,J2,1,Pin_1*%
%TO.N,GND*%
X146570000Y-73950000D03*
D17*
%TO.P,J2,2,Pin_2*%
%TO.N,/SCL*%
X149110000Y-73950000D03*
%TO.P,J2,3,Pin_3*%
%TO.N,/SDA*%
X151650000Y-73950000D03*
%TO.P,J2,4,Pin_4*%
%TO.N,+3V3*%
X154190000Y-73950000D03*
%TD*%
D15*
%TO.P,H1,1,1*%
%TO.N,GND*%
X125300000Y-144250000D03*
%TD*%
%TO.P,H3,1,1*%
%TO.N,GND*%
X173950000Y-145300000D03*
%TD*%
D16*
%TO.P,J13,1,Pin_1*%
%TO.N,/Stepper_b1/REF*%
X170325000Y-113900000D03*
D17*
%TO.P,J13,2,Pin_2*%
%TO.N,GND*%
X172865000Y-113900000D03*
%TD*%
D21*
%TO.P,J12,1,Pin_1*%
%TO.N,/Teensy41/Limit_p*%
X178835000Y-115750000D03*
D22*
%TO.P,J12,2,Pin_2*%
%TO.N,GND*%
X178835000Y-113250000D03*
%TD*%
D16*
%TO.P,J14,1,Pin_1*%
%TO.N,/Stepper_b/REF*%
X170325000Y-137050000D03*
D17*
%TO.P,J14,2,Pin_2*%
%TO.N,GND*%
X172865000Y-137050000D03*
%TD*%
D10*
%TO.P,J6,1,Pin_1*%
%TO.N,/Stepper_b/1B_b*%
X178750000Y-130000000D03*
D11*
%TO.P,J6,2,Pin_2*%
%TO.N,/Stepper_b/1A_b*%
X178750000Y-127500000D03*
%TO.P,J6,3,Pin_3*%
%TO.N,/Stepper_b/2A_b*%
X178750000Y-125000000D03*
%TO.P,J6,4,Pin_4*%
%TO.N,/Stepper_b/2B_b*%
X178750000Y-122500000D03*
%TD*%
D25*
%TO.N,GND*%
X175500000Y-122900000D03*
D26*
X165385000Y-103100000D03*
X164500000Y-102010000D03*
D25*
X144250000Y-114950000D03*
X151250000Y-59350000D03*
D26*
X164330000Y-104140000D03*
X171700000Y-69750000D03*
X166470000Y-104190000D03*
D25*
X161850000Y-120650000D03*
X141430000Y-142520000D03*
X156025000Y-69525000D03*
X175300000Y-106300000D03*
X131085000Y-116215000D03*
X154100000Y-131400000D03*
X146250000Y-67200000D03*
X148000000Y-119250000D03*
X158325000Y-69525000D03*
D26*
X166550000Y-127250000D03*
D25*
X134200000Y-62200000D03*
X175750000Y-129700000D03*
D26*
X164400000Y-103130000D03*
D25*
X143950000Y-67250000D03*
X145430000Y-142520000D03*
X147300000Y-128850000D03*
D26*
X165420000Y-102050000D03*
X165390000Y-125140000D03*
D25*
X156237500Y-110137500D03*
X148100000Y-64500000D03*
X139150000Y-68550000D03*
X178400000Y-96100000D03*
X175350000Y-99850000D03*
X155300000Y-65600000D03*
X135900000Y-102600000D03*
X134250000Y-111350000D03*
D26*
X164310000Y-127240000D03*
D25*
X152200000Y-122750000D03*
X132500000Y-123400000D03*
X161750000Y-96950000D03*
D26*
X166470000Y-103110000D03*
D25*
X136650000Y-140000000D03*
X151500000Y-112550000D03*
D26*
X165385000Y-127205000D03*
D25*
X151650000Y-118870000D03*
X144000000Y-108250000D03*
X132000000Y-140100000D03*
D26*
X166400000Y-102050000D03*
D25*
X149450000Y-68700000D03*
X148600000Y-113000000D03*
X154750000Y-100300000D03*
X158500000Y-99500000D03*
D26*
X166550000Y-125130000D03*
X164300000Y-126240000D03*
D25*
X155950000Y-106050000D03*
D26*
X164350000Y-125170000D03*
X165385000Y-126250000D03*
X166530000Y-126210000D03*
D25*
X144050000Y-59200000D03*
X167100000Y-139200000D03*
D26*
X165385000Y-104135000D03*
D25*
%TO.N,+3V3*%
X150428256Y-69263771D03*
X156800000Y-112300000D03*
X156350000Y-107300000D03*
X151950000Y-68300000D03*
X156100000Y-130750000D03*
X144165000Y-63485000D03*
X158200000Y-67450000D03*
X148350000Y-108000000D03*
X148900000Y-62550000D03*
X159850000Y-65850000D03*
X126850000Y-98450000D03*
X146350000Y-66050000D03*
X155600000Y-134000000D03*
X142500000Y-73450000D03*
%TO.N,/TDS*%
X146850000Y-100300000D03*
X151780000Y-126390000D03*
X153180000Y-133700000D03*
X146835000Y-123415000D03*
%TO.N,/Stepper_b/VMM*%
X173000000Y-96650000D03*
D26*
X171200000Y-105800000D03*
X157350000Y-120400000D03*
X170775000Y-123625000D03*
D25*
X167775489Y-118274511D03*
D26*
X171550000Y-122850000D03*
X171200000Y-128950000D03*
X170775000Y-100475000D03*
D25*
X167775489Y-117074511D03*
%TO.N,+5V*%
X142700000Y-98650000D03*
X141950000Y-107500000D03*
%TO.N,Net-(D3-Pad1)*%
X146725000Y-135125000D03*
X130100000Y-139550000D03*
%TO.N,/Stepper_b/MS1_b*%
X159050000Y-125000000D03*
%TO.N,/Stepper_b/MS2_b*%
X150000000Y-123850000D03*
%TO.N,/Stepper_b/MS3_b*%
X157800000Y-126050989D03*
%TO.N,/Stepper_b/RST_b*%
X156024511Y-126775489D03*
X163850000Y-115000000D03*
%TO.N,/Stepper_b/SLP_b*%
X160350000Y-130750000D03*
X163450000Y-108100000D03*
%TO.N,/Stepper_b/STEP_b*%
X163800000Y-131100000D03*
X153250000Y-108800000D03*
%TO.N,/Stepper_b/DIR_b*%
X159850000Y-98500000D03*
X162050000Y-100750000D03*
X165750000Y-130950000D03*
%TO.N,/SDA*%
X162000000Y-67350000D03*
X145150000Y-68700000D03*
X156050000Y-71050000D03*
%TO.N,/SCL*%
X151300000Y-70150000D03*
X154400000Y-66100000D03*
X142655000Y-67495000D03*
%TO.N,Net-(J3-Pad1)*%
X141000000Y-143700000D03*
%TO.N,/CS_VD*%
X144200000Y-90550000D03*
X135500000Y-76350000D03*
%TO.N,/MOSI*%
X145050000Y-85300000D03*
%TO.N,/MISO*%
X145100000Y-83700000D03*
X140950000Y-74300000D03*
%TO.N,VBUS*%
X122350000Y-85600000D03*
X131600000Y-110200000D03*
X127000000Y-105500000D03*
%TO.N,Net-(R6-Pad2)*%
X131650000Y-137250000D03*
X141400000Y-134400000D03*
%TO.N,/V_DIV*%
X128590000Y-104990000D03*
%TO.N,/LEDs/R_b*%
X157800000Y-75950000D03*
%TO.N,/LEDs/G_b*%
X157750000Y-74750000D03*
%TO.N,/LEDs/B_b*%
X153900000Y-76350000D03*
%TO.N,/INT_ACC*%
X156650000Y-72950000D03*
%TO.N,/INT_GYR*%
X157299885Y-71783285D03*
%TO.N,/INT_MAG*%
X160550000Y-66900000D03*
X166150000Y-64450000D03*
%TO.N,/INT_BAR*%
X146250000Y-63750000D03*
X153800000Y-63700000D03*
%TO.N,/Stepper_b1/MS1_b*%
X156750000Y-101700000D03*
%TO.N,/Stepper_b1/MS2_b*%
X155950000Y-102700000D03*
%TO.N,/Stepper_b1/MS3_b*%
X158114554Y-103415387D03*
%TO.N,/Stepper_b1/RST_b*%
X160650000Y-103850000D03*
%TO.N,/Stepper_b1/SLP_b*%
X160750000Y-107750000D03*
%TO.N,/Stepper_b1/STEP_b*%
X162200000Y-106450000D03*
X164150000Y-107350000D03*
%TO.N,/Stepper_b1/DIR_b*%
X166000000Y-108150000D03*
%TO.N,/LEDs/SIGNAL*%
X132100000Y-100500000D03*
%TD*%
D27*
%TO.N,/V_DIV*%
X146525000Y-84875000D02*
X146525000Y-78630000D01*
X140466489Y-90933511D02*
X146525000Y-84875000D01*
X140466489Y-99733511D02*
X140466489Y-90933511D01*
X128590000Y-104990000D02*
X128955500Y-104624500D01*
X135575500Y-104624500D02*
X140466489Y-99733511D01*
X128955500Y-104624500D02*
X135575500Y-104624500D01*
%TO.N,/TDS*%
X153180000Y-133700000D02*
X153180000Y-127790000D01*
X146835000Y-123415000D02*
X146850000Y-100300000D01*
X146850000Y-100300000D02*
X146835000Y-100335000D01*
X153180000Y-127790000D02*
X151780000Y-126390000D01*
D28*
%TO.N,/Stepper_b/VMM*%
X171900000Y-128750000D02*
X163450000Y-137200000D01*
X163450000Y-137200000D02*
X151769158Y-137200000D01*
X167775489Y-117074511D02*
X167775489Y-118274511D01*
X171900000Y-100050000D02*
X171900000Y-98350000D01*
X167775489Y-119075489D02*
X167900000Y-119200000D01*
X167900000Y-119200000D02*
X171550000Y-122850000D01*
X167775489Y-109724511D02*
X167775489Y-117074511D01*
X171900000Y-98350000D02*
X173300000Y-96950000D01*
X171900000Y-100050000D02*
X171050000Y-99200000D01*
X171550000Y-122850000D02*
X171900000Y-123200000D01*
X171900000Y-105600000D02*
X167775489Y-109724511D01*
X167775489Y-118274511D02*
X167775489Y-119075489D01*
X151769158Y-137200000D02*
X134034158Y-119465000D01*
X171900000Y-123200000D02*
X171900000Y-128750000D01*
X171500000Y-99650000D02*
X171550000Y-99700000D01*
X171900000Y-100050000D02*
X171900000Y-105600000D01*
X134034158Y-119465000D02*
X123835000Y-119465000D01*
X171550000Y-99700000D02*
X171900000Y-100050000D01*
D29*
%TO.N,+5V*%
X142700000Y-98650000D02*
X141950000Y-99400000D01*
X141950000Y-99400000D02*
X141950000Y-107500000D01*
D27*
%TO.N,Net-(D3-Pad1)*%
X132150000Y-141600000D02*
X140250000Y-141600000D01*
X140250000Y-141600000D02*
X146725000Y-135125000D01*
X146725000Y-135125000D02*
X146750000Y-135100000D01*
X130100000Y-139550000D02*
X132150000Y-141600000D01*
%TO.N,/Stepper_b/MS1_b*%
X155099520Y-104348803D02*
X146500359Y-95749641D01*
X159050000Y-123016807D02*
X155099520Y-119066327D01*
X146500359Y-95749641D02*
X146525000Y-95725000D01*
X159050000Y-125000000D02*
X159050000Y-123016807D01*
X146525000Y-95725000D02*
X146525000Y-93870000D01*
X155099520Y-119066327D02*
X155099520Y-104348803D01*
%TO.N,/Stepper_b/MS2_b*%
X150000000Y-100950000D02*
X143898511Y-94848511D01*
X150000000Y-123850000D02*
X150000000Y-100950000D01*
X143898511Y-94848511D02*
X142423511Y-94848511D01*
X142423511Y-94848511D02*
X141445000Y-93870000D01*
%TO.N,/Stepper_b/MS3_b*%
X157800000Y-125650000D02*
X154650000Y-122500000D01*
X154650000Y-104535000D02*
X143985000Y-93870000D01*
X157800000Y-126050989D02*
X157800000Y-125650000D01*
X154650000Y-122500000D02*
X154650000Y-104535000D01*
%TO.N,/Stepper_b/RST_b*%
X156024511Y-126775489D02*
X158299125Y-126775489D01*
X164700000Y-120374614D02*
X164700000Y-115850000D01*
X158299125Y-126775489D02*
X164700000Y-120374614D01*
X164700000Y-115850000D02*
X163850000Y-115000000D01*
%TO.N,/Stepper_b/SLP_b*%
X160650000Y-130450000D02*
X160650000Y-125060332D01*
X165149520Y-120560812D02*
X165149520Y-109799520D01*
X160350000Y-130750000D02*
X160650000Y-130450000D01*
X165149520Y-109799520D02*
X163450000Y-108100000D01*
X160650000Y-125060332D02*
X165149520Y-120560812D01*
%TO.N,/Stepper_b/STEP_b*%
X163800000Y-131100000D02*
X163425489Y-131474511D01*
X159698919Y-131474511D02*
X153250000Y-125025592D01*
X153250000Y-125025592D02*
X153250000Y-108800000D01*
X163425489Y-131474511D02*
X159698919Y-131474511D01*
%TO.N,/Stepper_b/DIR_b*%
X165950969Y-109125583D02*
X165150000Y-108324614D01*
X165150000Y-106550000D02*
X162850000Y-104250000D01*
X162050000Y-103550000D02*
X162050000Y-100750000D01*
X159225000Y-93870000D02*
X159225000Y-97875000D01*
X165750000Y-129250000D02*
X166100000Y-128900000D01*
X159225000Y-97875000D02*
X159850000Y-98500000D01*
X165750000Y-130950000D02*
X165750000Y-129250000D01*
X162850000Y-104250000D02*
X162750000Y-104250000D01*
X166100000Y-128900000D02*
X165950969Y-128750969D01*
X165150000Y-108324614D02*
X165150000Y-106550000D01*
X165950969Y-128750969D02*
X165950969Y-114950000D01*
X162750000Y-104250000D02*
X162050000Y-103550000D01*
X165950969Y-114950000D02*
X165950969Y-109125583D01*
%TO.N,/SDA*%
X154600000Y-71000000D02*
X156000000Y-71000000D01*
X156000000Y-71000000D02*
X156050000Y-71050000D01*
X147948511Y-77651489D02*
X142423511Y-77651489D01*
D30*
X145150000Y-68700000D02*
X145700000Y-68150000D01*
D27*
X178585000Y-71000000D02*
X156100000Y-71000000D01*
X145100000Y-56000000D02*
X145100000Y-67400000D01*
X154600000Y-71000000D02*
X151650000Y-73950000D01*
X145850000Y-68150000D02*
X151650000Y-73950000D01*
X145100000Y-67400000D02*
X145850000Y-68150000D01*
X142423511Y-77651489D02*
X141445000Y-78630000D01*
D30*
X145700000Y-68150000D02*
X145850000Y-68150000D01*
D27*
X156100000Y-71000000D02*
X156050000Y-71050000D01*
X151650000Y-73950000D02*
X147948511Y-77651489D01*
%TO.N,/SCL*%
X178585000Y-68500000D02*
X154560000Y-68500000D01*
X154560000Y-68500000D02*
X152950000Y-68500000D01*
X140333031Y-77201969D02*
X147300000Y-77201969D01*
X154400000Y-68340000D02*
X154560000Y-68500000D01*
X149110000Y-75391969D02*
X149110000Y-73950000D01*
X152950000Y-68500000D02*
X151300000Y-70150000D01*
X138905000Y-78630000D02*
X140333031Y-77201969D01*
D30*
X142655000Y-67495000D02*
X149110000Y-73950000D01*
D27*
X147300000Y-77201969D02*
X149110000Y-75391969D01*
X142600000Y-67440000D02*
X142655000Y-67495000D01*
X154400000Y-66100000D02*
X154400000Y-68340000D01*
D31*
%TO.N,Net-(J3-Pad1)*%
X125450000Y-136750000D02*
X131149511Y-142449511D01*
X123835000Y-136750000D02*
X125450000Y-136750000D01*
X131149511Y-142449511D02*
X139749511Y-142449511D01*
X139749511Y-142449511D02*
X141000000Y-143700000D01*
D27*
%TO.N,/CS_VD*%
X142078261Y-54100000D02*
X135500000Y-60678261D01*
X135500000Y-71050000D02*
X135500000Y-76350000D01*
X149065000Y-93870000D02*
X145695000Y-90500000D01*
X144250000Y-90500000D02*
X144200000Y-90550000D01*
X145695000Y-90500000D02*
X144250000Y-90500000D01*
X158200000Y-54100000D02*
X145200000Y-54100000D01*
X145200000Y-54100000D02*
X142078261Y-54100000D01*
X135500000Y-60678261D02*
X135500000Y-71050000D01*
X160100000Y-56000000D02*
X158200000Y-54100000D01*
%TO.N,/MOSI*%
X137343511Y-81593511D02*
X141050000Y-85300000D01*
X157600000Y-59860000D02*
X159190000Y-61450000D01*
X141050000Y-85300000D02*
X145050000Y-85300000D01*
X141014282Y-85300000D02*
X141050000Y-85300000D01*
X156300480Y-54700480D02*
X142113498Y-54700480D01*
X137343511Y-59470467D02*
X137343511Y-81593511D01*
X157600000Y-56000000D02*
X156300480Y-54700480D01*
X142113498Y-54700480D02*
X137343511Y-59470467D01*
X157600000Y-56000000D02*
X157600000Y-59860000D01*
%TO.N,/MISO*%
X137926489Y-77323511D02*
X137926489Y-80076489D01*
X141550000Y-83700000D02*
X145100000Y-83700000D01*
X140950000Y-74300000D02*
X137926489Y-77323511D01*
X137926489Y-80076489D02*
X141550000Y-83700000D01*
%TO.N,/SCK*%
X155900978Y-63050000D02*
X152600000Y-59749022D01*
X164050000Y-63050000D02*
X155900978Y-63050000D01*
X164270000Y-61450000D02*
X164270000Y-62830000D01*
X164270000Y-62830000D02*
X164050000Y-63050000D01*
X152600000Y-59749022D02*
X152600000Y-56000000D01*
%TO.N,/SET*%
X132699807Y-95050193D02*
X126250000Y-101500000D01*
X137926489Y-92891489D02*
X133419686Y-92891489D01*
X138905000Y-93870000D02*
X137926489Y-92891489D01*
X132699807Y-93611368D02*
X132699807Y-95050193D01*
X133419686Y-92891489D02*
X132699807Y-93611368D01*
X126250000Y-101500000D02*
X122135000Y-101500000D01*
%TO.N,/TX_RF*%
X133850000Y-100200000D02*
X133825000Y-100175000D01*
X133825000Y-100175000D02*
X133825000Y-93870000D01*
X122135000Y-104000000D02*
X130050000Y-104000000D01*
X130050000Y-104000000D02*
X133850000Y-100200000D01*
%TO.N,/RX_RF*%
X122135000Y-106500000D02*
X120700000Y-105065000D01*
X130300000Y-96800000D02*
X131285000Y-95815000D01*
X120700000Y-105065000D02*
X120700000Y-99600000D01*
X123500000Y-96800000D02*
X130300000Y-96800000D01*
X120700000Y-99600000D02*
X123500000Y-96800000D01*
X131285000Y-95815000D02*
X131285000Y-93870000D01*
%TO.N,/TX_GPS*%
X122635000Y-68500000D02*
X126235000Y-68500000D01*
X126235000Y-68500000D02*
X136365000Y-78630000D01*
%TO.N,/RX_GPS*%
X122635000Y-71000000D02*
X126195000Y-71000000D01*
X126195000Y-71000000D02*
X133825000Y-78630000D01*
%TO.N,/Teensy41/Limit_b*%
X179545000Y-93870000D02*
X180199000Y-94524000D01*
X180199000Y-94524000D02*
X180199000Y-137586000D01*
X180199000Y-137586000D02*
X178785000Y-139000000D01*
%TO.N,/Teensy41/Limit_p*%
X177005000Y-113920000D02*
X177005000Y-93870000D01*
X178835000Y-115750000D02*
X177005000Y-113920000D01*
D29*
%TO.N,VBUS*%
X131600000Y-110200000D02*
X127000000Y-105600000D01*
X127000000Y-105600000D02*
X127000000Y-105500000D01*
X122350000Y-85600000D02*
X122350000Y-82485000D01*
X122350000Y-82485000D02*
X123665000Y-81170000D01*
D27*
%TO.N,Net-(R6-Pad2)*%
X132800000Y-134350000D02*
X141350000Y-134350000D01*
X131650000Y-135500000D02*
X132800000Y-134350000D01*
X131650000Y-137250000D02*
X131650000Y-135500000D01*
X141350000Y-134350000D02*
X141400000Y-134400000D01*
%TO.N,/INT_ACC*%
X156650000Y-72950000D02*
X157100000Y-73400000D01*
X171775000Y-73400000D02*
X177005000Y-78630000D01*
X157100000Y-73400000D02*
X171775000Y-73400000D01*
%TO.N,/INT_GYR*%
X157299885Y-71783285D02*
X157450000Y-71800000D01*
X172715000Y-71800000D02*
X157299885Y-71783285D01*
X179545000Y-78630000D02*
X172715000Y-71800000D01*
D30*
%TO.N,/INT_MAG*%
X166150000Y-64450000D02*
X163000000Y-64450000D01*
X163000000Y-64450000D02*
X160550000Y-66900000D01*
D27*
%TO.N,/INT_BAR*%
X146300000Y-63700000D02*
X153800000Y-63700000D01*
X146250000Y-63750000D02*
X146300000Y-63700000D01*
%TO.N,/Stepper_b1/MS1_b*%
X169385000Y-94865000D02*
X169385000Y-93870000D01*
X163500000Y-96300000D02*
X167950000Y-96300000D01*
X156750000Y-101700000D02*
X158100000Y-101700000D01*
X158100000Y-101700000D02*
X163500000Y-96300000D01*
X167950000Y-96300000D02*
X169385000Y-94865000D01*
%TO.N,/Stepper_b1/MS2_b*%
X168445000Y-97350000D02*
X171925000Y-93870000D01*
X157735718Y-102700000D02*
X163085718Y-97350000D01*
X163085718Y-97350000D02*
X168445000Y-97350000D01*
X155950000Y-102700000D02*
X157735718Y-102700000D01*
%TO.N,/Stepper_b1/MS3_b*%
X173799740Y-93870000D02*
X169369740Y-98300000D01*
X169369740Y-98300000D02*
X163150000Y-98300000D01*
X163150000Y-98300000D02*
X158114554Y-103335446D01*
X174465000Y-93870000D02*
X173799740Y-93870000D01*
X158114554Y-103335446D02*
X158114554Y-103415387D01*
X158114554Y-103415387D02*
X158355903Y-103415387D01*
%TO.N,/Stepper_b1/RST_b*%
X156722152Y-104700000D02*
X159800000Y-104700000D01*
X161765000Y-78630000D02*
X153150000Y-87245000D01*
X153150000Y-87245000D02*
X153150000Y-101127848D01*
X159800000Y-104700000D02*
X160650000Y-103850000D01*
X153150000Y-101127848D02*
X156722152Y-104700000D01*
%TO.N,/Stepper_b1/SLP_b*%
X152700000Y-101313566D02*
X152700000Y-85155000D01*
X160750000Y-107750000D02*
X159136435Y-107750000D01*
X152700000Y-85155000D02*
X159225000Y-78630000D01*
X159136435Y-107750000D02*
X152700000Y-101313566D01*
%TO.N,/Stepper_b1/STEP_b*%
X164150000Y-107350000D02*
X163100000Y-107350000D01*
X163100000Y-107350000D02*
X162200000Y-106450000D01*
%TD*%
M02*
