M48
; DRILL file {KiCad (6.0.5)} date Wed Jun  8 15:49:42 2022
; FORMAT={-:-/ absolute / inch / decimal}
; #@! TF.CreationDate,2022-06-08T15:49:42-06:00
; #@! TF.GenerationSoftware,Kicad,Pcbnew,(6.0.5)
; #@! TF.FileFunction,Plated,1,4,PTH
FMAT,2
INCH
; #@! TA.AperFunction,Plated,PTH,ViaDrill
T1C0.0118
; #@! TA.AperFunction,Plated,PTH,ViaDrill
T2C0.0157
; #@! TA.AperFunction,Plated,PTH,ComponentDrill
T3C0.0276
; #@! TA.AperFunction,Plated,PTH,ComponentDrill
T4C0.0295
; #@! TA.AperFunction,Plated,PTH,ComponentDrill
T5C0.0315
; #@! TA.AperFunction,Plated,PTH,ComponentDrill
T6C0.0374
; #@! TA.AperFunction,Plated,PTH,ComponentDrill
T7C0.0394
; #@! TA.AperFunction,Plated,PTH,ComponentDrill
T8C0.0512
; #@! TA.AperFunction,Plated,PTH,ComponentDrill
T9C0.1181
%
G90
G05
T1
X6.1949Y-4.7402
X6.4685Y-4.9701
X6.4689Y-5.0094
X6.4697Y-4.1
X6.4705Y-4.928
X6.4724Y-4.0602
X6.4764Y-4.0161
X6.5112Y-4.0591
X6.5112Y-4.0998
X6.5112Y-4.9705
X6.5112Y-5.0081
X6.5114Y-4.9268
X6.5126Y-4.0177
X6.5512Y-4.0177
X6.5539Y-4.0594
X6.5539Y-4.102
X6.5563Y-4.9689
X6.5571Y-4.9264
X6.5571Y-5.0098
X6.7234Y-3.9557
X6.7234Y-4.8671
X6.7402Y-4.1654
X6.7402Y-5.0768
X6.7539Y-4.8366
X6.7598Y-2.7461
T2
X4.8169Y-3.3701
X4.9941Y-3.876
X5.0Y-4.1535
X5.0626Y-4.1335
X5.122Y-5.4941
X5.1608Y-4.5754
X5.1811Y-4.3386
X5.1831Y-5.4035
X5.1969Y-5.5157
X5.2008Y-3.9567
X5.2165Y-4.8583
X5.2835Y-2.4488
X5.2854Y-4.3839
X5.3346Y-3.0059
X5.3504Y-4.0394
X5.3799Y-5.5118
X5.4783Y-2.6988
X5.5492Y-2.9252
X5.5512Y-5.6575
X5.5669Y-5.2913
X5.5681Y-5.611
X5.5886Y-4.2323
X5.6102Y-2.8917
X5.6163Y-2.6573
X5.6181Y-3.8839
X5.6673Y-2.6476
X5.6693Y-4.2618
X5.6713Y-2.3307
X5.6758Y-2.4994
X5.6772Y-3.565
X5.6791Y-4.5256
X5.7106Y-3.3583
X5.7126Y-3.2953
X5.7146Y-2.7047
X5.7256Y-5.611
X5.7579Y-2.5098
X5.7579Y-2.6457
X5.7618Y-2.6004
X5.7766Y-5.3199
X5.7809Y-4.8589
X5.7815Y-3.9488
X5.7992Y-5.0728
X5.8268Y-4.6949
X5.8307Y-2.5394
X5.8406Y-4.252
X5.8504Y-4.4488
X5.8622Y-2.4626
X5.8839Y-2.7047
X5.9055Y-4.876
X5.9224Y-2.7269
X5.9547Y-2.3366
X5.9567Y-2.7618
X5.9646Y-4.4311
X5.9705Y-4.6799
X5.9756Y-4.976
X5.9823Y-2.689
X5.9921Y-4.8327
X6.0307Y-5.2638
X6.0335Y-4.2835
X6.0551Y-2.5079
X6.0591Y-3.0059
X6.0669Y-5.1732
X6.0787Y-2.6024
X6.0925Y-3.9488
X6.1142Y-2.5827
X6.126Y-5.2756
X6.1398Y-4.0433
X6.1398Y-4.1752
X6.1427Y-4.9912
X6.1427Y-2.7372
X6.1437Y-2.7972
X6.1457Y-5.1476
X6.1511Y-4.3361
X6.1555Y-4.2244
X6.1673Y-2.872
X6.1713Y-4.0039
X6.1732Y-4.4213
X6.1929Y-2.8261
X6.2106Y-2.9429
X6.2126Y-2.9902
X6.2126Y-4.9626
X6.225Y-4.0715
X6.2283Y-2.6555
X6.2333Y-2.7372
X6.2402Y-3.9173
X6.2618Y-4.9213
X6.2933Y-2.5925
X6.2933Y-3.878
X6.313Y-5.1476
X6.3209Y-2.6339
X6.3248Y-4.0886
X6.3287Y-4.2421
X6.3681Y-3.8169
X6.372Y-4.75
X6.378Y-2.6516
X6.3799Y-3.9665
X6.3858Y-4.1909
X6.435Y-4.2559
X6.4488Y-5.1614
X6.4508Y-4.5276
X6.4626Y-4.2264
X6.5256Y-5.1555
X6.5354Y-4.2579
X6.5413Y-2.5374
X6.5787Y-5.4803
X6.6053Y-4.6092
X6.6053Y-4.6565
X6.811Y-3.8051
X6.9016Y-4.185
X6.9035Y-3.9311
X6.9094Y-4.8386
X6.9193Y-5.1063
X7.0236Y-3.7835
T3
X5.2793Y-3.1921
X5.2793Y-3.2709
X5.2793Y-3.3496
X5.3581Y-3.1921
X5.3581Y-3.2709
X5.3581Y-3.3496
T4
X5.0187Y-3.5756
X5.1187Y-3.5756
X5.2187Y-3.5756
X5.3187Y-3.5756
X5.4187Y-3.5756
T5
X4.7687Y-3.0957
X4.7687Y-3.6957
X4.8687Y-3.0957
X4.8687Y-3.1957
X4.8687Y-3.6957
X4.9687Y-3.0957
X4.9687Y-3.6957
X5.0687Y-3.0957
X5.0687Y-3.6957
X5.1687Y-3.0957
X5.1687Y-3.6957
X5.2687Y-3.0957
X5.2687Y-3.6957
X5.3687Y-3.0957
X5.3687Y-3.6957
X5.4687Y-3.0957
X5.4687Y-3.6957
X5.5687Y-3.0957
X5.5687Y-3.6957
X5.6687Y-3.0957
X5.6687Y-3.6957
X5.7687Y-3.0957
X5.7687Y-3.6957
X5.8687Y-3.0957
X5.8687Y-3.6957
X5.9687Y-3.0957
X5.9687Y-3.6957
X6.0687Y-3.0957
X6.0687Y-3.6957
X6.1687Y-3.0957
X6.1687Y-3.6957
X6.2687Y-3.0957
X6.2687Y-3.6957
X6.3687Y-3.0957
X6.3687Y-3.6957
X6.4687Y-3.0957
X6.4687Y-3.6957
X6.5687Y-3.0957
X6.5687Y-3.1957
X6.5687Y-3.2957
X6.5687Y-3.3957
X6.5687Y-3.4957
X6.5687Y-3.5957
X6.5687Y-3.6957
X6.6687Y-3.0957
X6.6687Y-3.6957
X6.7687Y-3.0957
X6.7687Y-3.6957
X6.8687Y-3.0957
X6.8687Y-3.6957
X6.9687Y-3.0957
X6.9687Y-3.6957
X7.0687Y-3.0957
X7.0687Y-3.6957
T6
X4.8085Y-3.9961
X4.8085Y-4.0945
X4.8085Y-4.1929
X4.8085Y-4.2913
X4.8085Y-4.3898
X4.8281Y-2.5984
X4.8281Y-2.6969
X4.8281Y-2.7953
X4.8281Y-2.8937
X5.6142Y-2.2047
X5.7126Y-2.2047
X5.811Y-2.2047
X5.9094Y-2.2047
X6.0079Y-2.2047
X6.1063Y-2.2047
X6.2047Y-2.2047
X6.3031Y-2.2047
X7.0309Y-2.5984
X7.0309Y-2.6969
X7.0309Y-2.7953
X7.0309Y-2.8937
X7.0374Y-3.8976
X7.0374Y-3.9961
X7.0374Y-4.0945
X7.0374Y-4.1929
X7.0374Y-4.8228
X7.0374Y-4.9213
X7.0374Y-5.0197
X7.0374Y-5.1181
T7
X5.7705Y-2.9114
X5.8705Y-2.9114
X5.9705Y-2.9114
X6.0705Y-2.9114
X6.1154Y-5.549
X6.1154Y-5.649
X6.1154Y-5.749
X6.1673Y-2.4193
X6.2673Y-2.4193
X6.3673Y-2.4193
X6.4673Y-2.4193
X6.5673Y-2.4193
X6.6673Y-2.4193
X6.7057Y-4.4843
X6.7057Y-5.3957
X6.8057Y-4.4843
X6.8057Y-5.3957
X7.0388Y-5.374
X7.0388Y-5.4724
X7.0407Y-4.4587
X7.0407Y-4.5571
T8
X4.8754Y-4.7033
X4.8754Y-4.9033
X4.8754Y-5.1839
X4.8754Y-5.3839
T9
X4.9331Y-5.6791
X4.9783Y-2.3071
X6.8484Y-5.7205
X6.876Y-2.3091
T0
M30
