%TF.GenerationSoftware,KiCad,Pcbnew,(6.0.5)*%
%TF.CreationDate,2022-06-08T15:49:38-06:00*%
%TF.ProjectId,main_board,6d61696e-5f62-46f6-9172-642e6b696361,rev?*%
%TF.SameCoordinates,Original*%
%TF.FileFunction,Paste,Top*%
%TF.FilePolarity,Positive*%
%FSLAX46Y46*%
G04 Gerber Fmt 4.6, Leading zero omitted, Abs format (unit mm)*
G04 Created by KiCad (PCBNEW (6.0.5)) date 2022-06-08 15:49:38*
%MOMM*%
%LPD*%
G01*
G04 APERTURE LIST*
G04 Aperture macros list*
%AMRoundRect*
0 Rectangle with rounded corners*
0 $1 Rounding radius*
0 $2 $3 $4 $5 $6 $7 $8 $9 X,Y pos of 4 corners*
0 Add a 4 corners polygon primitive as box body*
4,1,4,$2,$3,$4,$5,$6,$7,$8,$9,$2,$3,0*
0 Add four circle primitives for the rounded corners*
1,1,$1+$1,$2,$3*
1,1,$1+$1,$4,$5*
1,1,$1+$1,$6,$7*
1,1,$1+$1,$8,$9*
0 Add four rect primitives between the rounded corners*
20,1,$1+$1,$2,$3,$4,$5,0*
20,1,$1+$1,$4,$5,$6,$7,0*
20,1,$1+$1,$6,$7,$8,$9,0*
20,1,$1+$1,$8,$9,$2,$3,0*%
G04 Aperture macros list end*
%ADD10C,0.010000*%
%ADD11R,2.650000X1.750000*%
%ADD12RoundRect,0.200000X-0.275000X0.200000X-0.275000X-0.200000X0.275000X-0.200000X0.275000X0.200000X0*%
%ADD13RoundRect,0.225000X0.250000X-0.225000X0.250000X0.225000X-0.250000X0.225000X-0.250000X-0.225000X0*%
%ADD14RoundRect,0.225000X-0.250000X0.225000X-0.250000X-0.225000X0.250000X-0.225000X0.250000X0.225000X0*%
%ADD15RoundRect,0.200000X0.200000X0.275000X-0.200000X0.275000X-0.200000X-0.275000X0.200000X-0.275000X0*%
%ADD16RoundRect,0.218750X-0.218750X-0.256250X0.218750X-0.256250X0.218750X0.256250X-0.218750X0.256250X0*%
%ADD17RoundRect,0.090000X-0.520000X-0.210000X0.520000X-0.210000X0.520000X0.210000X-0.520000X0.210000X0*%
%ADD18R,0.450000X0.600000*%
%ADD19RoundRect,0.008100X0.126900X-0.361900X0.126900X0.361900X-0.126900X0.361900X-0.126900X-0.361900X0*%
%ADD20RoundRect,0.200000X-0.200000X-0.275000X0.200000X-0.275000X0.200000X0.275000X-0.200000X0.275000X0*%
%ADD21R,0.300000X1.150000*%
%ADD22R,1.150000X0.300000*%
%ADD23R,3.150000X3.150000*%
%ADD24RoundRect,0.225000X0.225000X0.250000X-0.225000X0.250000X-0.225000X-0.250000X0.225000X-0.250000X0*%
%ADD25RoundRect,0.007000X0.168000X-0.183000X0.168000X0.183000X-0.168000X0.183000X-0.168000X-0.183000X0*%
%ADD26RoundRect,0.200000X0.275000X-0.200000X0.275000X0.200000X-0.275000X0.200000X-0.275000X-0.200000X0*%
%ADD27RoundRect,0.225000X-0.225000X-0.250000X0.225000X-0.250000X0.225000X0.250000X-0.225000X0.250000X0*%
%ADD28R,1.200000X1.200000*%
%ADD29R,1.600000X1.500000*%
%ADD30R,1.300000X3.400000*%
%ADD31R,0.375000X0.350000*%
%ADD32R,0.350000X0.375000*%
%ADD33R,0.350000X0.590000*%
%ADD34R,0.590000X0.350000*%
%ADD35R,2.000000X1.500000*%
%ADD36R,2.000000X3.800000*%
%ADD37RoundRect,0.060000X-0.615000X0.240000X-0.615000X-0.240000X0.615000X-0.240000X0.615000X0.240000X0*%
%ADD38RoundRect,0.218750X0.218750X0.256250X-0.218750X0.256250X-0.218750X-0.256250X0.218750X-0.256250X0*%
%ADD39RoundRect,0.042000X-0.943000X-0.258000X0.943000X-0.258000X0.943000X0.258000X-0.943000X0.258000X0*%
%ADD40R,1.090000X0.610000*%
%ADD41R,2.000000X1.100000*%
%ADD42RoundRect,0.042000X0.258000X-0.943000X0.258000X0.943000X-0.258000X0.943000X-0.258000X-0.943000X0*%
G04 APERTURE END LIST*
%TO.C,U9*%
G36*
X146565000Y-114660000D02*
G01*
X145705000Y-114660000D01*
X145705000Y-114240000D01*
X146565000Y-114240000D01*
X146565000Y-114660000D01*
G37*
D10*
X146565000Y-114660000D02*
X145705000Y-114660000D01*
X145705000Y-114240000D01*
X146565000Y-114240000D01*
X146565000Y-114660000D01*
%TD*%
D11*
%TO.C,D10*%
X131250000Y-106190000D03*
X135550000Y-106190000D03*
%TD*%
D12*
%TO.C,R7*%
X141335000Y-122175000D03*
X141335000Y-123825000D03*
%TD*%
D13*
%TO.C,C6*%
X146165000Y-62275000D03*
X146165000Y-60725000D03*
%TD*%
D14*
%TO.C,C41*%
X157165000Y-67975000D03*
X157165000Y-69525000D03*
%TD*%
D15*
%TO.C,R6*%
X135160000Y-137250000D03*
X133510000Y-137250000D03*
%TD*%
D14*
%TO.C,C3*%
X154915000Y-67975000D03*
X154915000Y-69525000D03*
%TD*%
D16*
%TO.C,D9*%
X129085000Y-101500000D03*
X130660000Y-101500000D03*
%TD*%
D15*
%TO.C,R31*%
X135197500Y-101500000D03*
X133547500Y-101500000D03*
%TD*%
D17*
%TO.C,U7*%
X149455000Y-116050000D03*
X149455000Y-117000000D03*
X149455000Y-117950000D03*
X151945000Y-117950000D03*
X151945000Y-117000000D03*
X151945000Y-116050000D03*
%TD*%
D15*
%TO.C,R38*%
X161475000Y-71800000D03*
X159825000Y-71800000D03*
%TD*%
D13*
%TO.C,C17*%
X143135000Y-111225000D03*
X143135000Y-109675000D03*
%TD*%
D14*
%TO.C,C29*%
X169500000Y-128325000D03*
X169500000Y-129875000D03*
%TD*%
D18*
%TO.C,D2*%
X146835000Y-136950000D03*
X146835000Y-139050000D03*
%TD*%
D19*
%TO.C,U9*%
X145485000Y-115445000D03*
X146135000Y-115445000D03*
X146785000Y-115445000D03*
X146785000Y-113455000D03*
X146135000Y-113455000D03*
X145485000Y-113455000D03*
%TD*%
D20*
%TO.C,R39*%
X134260000Y-109450000D03*
X135910000Y-109450000D03*
%TD*%
D14*
%TO.C,C19*%
X151135000Y-109700000D03*
X151135000Y-111250000D03*
%TD*%
D18*
%TO.C,D5*%
X146835000Y-125700000D03*
X146835000Y-127800000D03*
%TD*%
D20*
%TO.C,R33*%
X143760000Y-106000000D03*
X145410000Y-106000000D03*
%TD*%
D13*
%TO.C,C8*%
X134335000Y-123750000D03*
X134335000Y-122200000D03*
%TD*%
D15*
%TO.C,R12*%
X151085000Y-137500000D03*
X149435000Y-137500000D03*
%TD*%
%TO.C,R22*%
X165375000Y-119700000D03*
X163725000Y-119700000D03*
%TD*%
%TO.C,R40*%
X139910000Y-107500000D03*
X138260000Y-107500000D03*
%TD*%
D21*
%TO.C,IC1*%
X166885000Y-123900000D03*
X166385000Y-123900000D03*
X165885000Y-123900000D03*
X165385000Y-123900000D03*
X164885000Y-123900000D03*
X164385000Y-123900000D03*
X163885000Y-123900000D03*
D22*
X163035000Y-124750000D03*
X163035000Y-125250000D03*
X163035000Y-125750000D03*
X163035000Y-126250000D03*
X163035000Y-126750000D03*
X163035000Y-127250000D03*
X163035000Y-127750000D03*
D21*
X163885000Y-128600000D03*
X164385000Y-128600000D03*
X164885000Y-128600000D03*
X165385000Y-128600000D03*
X165885000Y-128600000D03*
X166385000Y-128600000D03*
X166885000Y-128600000D03*
D22*
X167735000Y-127750000D03*
X167735000Y-127250000D03*
X167735000Y-126750000D03*
X167735000Y-126250000D03*
X167735000Y-125750000D03*
X167735000Y-125250000D03*
X167735000Y-124750000D03*
D23*
X165385000Y-126250000D03*
%TD*%
D15*
%TO.C,R11*%
X132585000Y-147250000D03*
X130935000Y-147250000D03*
%TD*%
D20*
%TO.C,R15*%
X125975000Y-114350000D03*
X127625000Y-114350000D03*
%TD*%
D15*
%TO.C,R37*%
X161475000Y-73650000D03*
X159825000Y-73650000D03*
%TD*%
D24*
%TO.C,C33*%
X165325000Y-98450000D03*
X163775000Y-98450000D03*
%TD*%
D14*
%TO.C,C13*%
X149835000Y-125975000D03*
X149835000Y-127525000D03*
%TD*%
D12*
%TO.C,R8*%
X139335000Y-122175000D03*
X139335000Y-123825000D03*
%TD*%
D13*
%TO.C,C27*%
X169550000Y-124175000D03*
X169550000Y-122625000D03*
%TD*%
D14*
%TO.C,C26*%
X155750000Y-122175000D03*
X155750000Y-123725000D03*
%TD*%
D25*
%TO.C,U3*%
X143900000Y-65250000D03*
X143900000Y-65750000D03*
X144165000Y-66265000D03*
X144665000Y-66265000D03*
X145165000Y-66265000D03*
X145430000Y-65750000D03*
X145430000Y-65250000D03*
X145165000Y-64735000D03*
X144665000Y-64735000D03*
X144165000Y-64735000D03*
%TD*%
D15*
%TO.C,R41*%
X135197500Y-99500000D03*
X133547500Y-99500000D03*
%TD*%
%TO.C,R9*%
X136160000Y-147250000D03*
X134510000Y-147250000D03*
%TD*%
D26*
%TO.C,R17*%
X128500000Y-111575000D03*
X128500000Y-109925000D03*
%TD*%
D20*
%TO.C,R27*%
X157575000Y-106750000D03*
X159225000Y-106750000D03*
%TD*%
D27*
%TO.C,C20*%
X173925000Y-96650000D03*
X175475000Y-96650000D03*
%TD*%
D18*
%TO.C,D4*%
X146835000Y-133050000D03*
X146835000Y-130950000D03*
%TD*%
%TO.C,D1*%
X134835000Y-145300000D03*
X134835000Y-143200000D03*
%TD*%
D14*
%TO.C,C34*%
X169500000Y-105175000D03*
X169500000Y-106725000D03*
%TD*%
D12*
%TO.C,R4*%
X146835000Y-145425000D03*
X146835000Y-147075000D03*
%TD*%
D20*
%TO.C,R24*%
X172725000Y-124100000D03*
X174375000Y-124100000D03*
%TD*%
D24*
%TO.C,C14*%
X135110000Y-141250000D03*
X133560000Y-141250000D03*
%TD*%
D14*
%TO.C,C16*%
X154070000Y-116135000D03*
X154070000Y-117685000D03*
%TD*%
D13*
%TO.C,C1*%
X152415000Y-62275000D03*
X152415000Y-60725000D03*
%TD*%
%TO.C,C22*%
X131085000Y-119500000D03*
X131085000Y-117950000D03*
%TD*%
D28*
%TO.C,RV1*%
X163900000Y-113150000D03*
D29*
X164900000Y-109900000D03*
D28*
X165900000Y-113150000D03*
%TD*%
D21*
%TO.C,IC2*%
X166885000Y-100750000D03*
X166385000Y-100750000D03*
X165885000Y-100750000D03*
X165385000Y-100750000D03*
X164885000Y-100750000D03*
X164385000Y-100750000D03*
X163885000Y-100750000D03*
D22*
X163035000Y-101600000D03*
X163035000Y-102100000D03*
X163035000Y-102600000D03*
X163035000Y-103100000D03*
X163035000Y-103600000D03*
X163035000Y-104100000D03*
X163035000Y-104600000D03*
D21*
X163885000Y-105450000D03*
X164385000Y-105450000D03*
X164885000Y-105450000D03*
X165385000Y-105450000D03*
X165885000Y-105450000D03*
X166385000Y-105450000D03*
X166885000Y-105450000D03*
D22*
X167735000Y-104600000D03*
X167735000Y-104100000D03*
X167735000Y-103600000D03*
X167735000Y-103100000D03*
X167735000Y-102600000D03*
X167735000Y-102100000D03*
X167735000Y-101600000D03*
D23*
X165385000Y-103100000D03*
%TD*%
D20*
%TO.C,R5*%
X133510000Y-135250000D03*
X135160000Y-135250000D03*
%TD*%
D30*
%TO.C,BZ1*%
X128985000Y-70250000D03*
X137685000Y-70250000D03*
%TD*%
D13*
%TO.C,C5*%
X144165000Y-62275000D03*
X144165000Y-60725000D03*
%TD*%
D14*
%TO.C,C21*%
X143135000Y-113675000D03*
X143135000Y-115225000D03*
%TD*%
D20*
%TO.C,R23*%
X157575000Y-129900000D03*
X159225000Y-129900000D03*
%TD*%
%TO.C,R28*%
X172725000Y-100950000D03*
X174375000Y-100950000D03*
%TD*%
D31*
%TO.C,U2*%
X156152500Y-64750000D03*
X156152500Y-65250000D03*
X156152500Y-65750000D03*
X156152500Y-66250000D03*
D32*
X156665000Y-66262500D03*
X157165000Y-66262500D03*
D31*
X157677500Y-66250000D03*
X157677500Y-65750000D03*
X157677500Y-65250000D03*
X157677500Y-64750000D03*
D32*
X157165000Y-64737500D03*
X156665000Y-64737500D03*
%TD*%
D20*
%TO.C,R10*%
X149260000Y-147250000D03*
X150910000Y-147250000D03*
%TD*%
D24*
%TO.C,C36*%
X171475000Y-96650000D03*
X169925000Y-96650000D03*
%TD*%
%TO.C,C32*%
X159125000Y-131950000D03*
X157575000Y-131950000D03*
%TD*%
D27*
%TO.C,C10*%
X149560000Y-130750000D03*
X151110000Y-130750000D03*
%TD*%
D15*
%TO.C,R35*%
X145410000Y-102500000D03*
X143760000Y-102500000D03*
%TD*%
D14*
%TO.C,C7*%
X143335000Y-122225000D03*
X143335000Y-123775000D03*
%TD*%
D24*
%TO.C,C11*%
X135110000Y-139250000D03*
X133560000Y-139250000D03*
%TD*%
D18*
%TO.C,D3*%
X132335000Y-145300000D03*
X132335000Y-143200000D03*
%TD*%
D24*
%TO.C,C30*%
X159275000Y-123700000D03*
X157725000Y-123700000D03*
%TD*%
D20*
%TO.C,R29*%
X172725000Y-105200000D03*
X174375000Y-105200000D03*
%TD*%
%TO.C,R19*%
X157475000Y-110850000D03*
X159125000Y-110850000D03*
%TD*%
D24*
%TO.C,C28*%
X165325000Y-121600000D03*
X163775000Y-121600000D03*
%TD*%
D20*
%TO.C,R2*%
X141640000Y-71800000D03*
X143290000Y-71800000D03*
%TD*%
%TO.C,R25*%
X172725000Y-128350000D03*
X174375000Y-128350000D03*
%TD*%
%TO.C,R36*%
X159825000Y-75500000D03*
X161475000Y-75500000D03*
%TD*%
D33*
%TO.C,U1*%
X149250000Y-64835000D03*
X149750000Y-64835000D03*
X150250000Y-64835000D03*
X150750000Y-64835000D03*
X151250000Y-64835000D03*
X151750000Y-64835000D03*
X152250000Y-64835000D03*
D34*
X152665000Y-66000000D03*
D33*
X152250000Y-67165000D03*
X151750000Y-67165000D03*
X151250000Y-67165000D03*
X150750000Y-67165000D03*
X150250000Y-67165000D03*
X149750000Y-67165000D03*
X149250000Y-67165000D03*
D34*
X148835000Y-66000000D03*
%TD*%
D20*
%TO.C,R3*%
X141725000Y-69800000D03*
X143375000Y-69800000D03*
%TD*%
%TO.C,R1*%
X149260000Y-145250000D03*
X150910000Y-145250000D03*
%TD*%
D13*
%TO.C,C23*%
X143135000Y-119700000D03*
X143135000Y-118150000D03*
%TD*%
D35*
%TO.C,U10*%
X133685000Y-114450000D03*
X133685000Y-116750000D03*
X133685000Y-119050000D03*
D36*
X139985000Y-116750000D03*
%TD*%
D20*
%TO.C,R21*%
X157625000Y-128000000D03*
X159275000Y-128000000D03*
%TD*%
%TO.C,R20*%
X157625000Y-104850000D03*
X159275000Y-104850000D03*
%TD*%
%TO.C,R30*%
X157475000Y-134000000D03*
X159125000Y-134000000D03*
%TD*%
D37*
%TO.C,U8*%
X145950000Y-109500000D03*
X145950000Y-110450000D03*
X145950000Y-111400000D03*
X148320000Y-111400000D03*
X148320000Y-109500000D03*
%TD*%
D38*
%TO.C,D8*%
X130660000Y-99500000D03*
X129085000Y-99500000D03*
%TD*%
D27*
%TO.C,C24*%
X145360000Y-118200000D03*
X146910000Y-118200000D03*
%TD*%
D14*
%TO.C,C15*%
X148835000Y-141725000D03*
X148835000Y-143275000D03*
%TD*%
D24*
%TO.C,C35*%
X159275000Y-100550000D03*
X157725000Y-100550000D03*
%TD*%
D20*
%TO.C,R13*%
X149510000Y-135250000D03*
X151160000Y-135250000D03*
%TD*%
D39*
%TO.C,U5*%
X138360000Y-137440000D03*
X138360000Y-138710000D03*
X138360000Y-139980000D03*
X138360000Y-141250000D03*
X138360000Y-142520000D03*
X138360000Y-143790000D03*
X138360000Y-145060000D03*
X143310000Y-145060000D03*
X143310000Y-143790000D03*
X143310000Y-142520000D03*
X143310000Y-141250000D03*
X143310000Y-139980000D03*
X143310000Y-138710000D03*
X143310000Y-137440000D03*
%TD*%
D13*
%TO.C,C2*%
X150415000Y-62275000D03*
X150415000Y-60725000D03*
%TD*%
D15*
%TO.C,R26*%
X165375000Y-96550000D03*
X163725000Y-96550000D03*
%TD*%
D14*
%TO.C,C4*%
X159415000Y-67975000D03*
X159415000Y-69525000D03*
%TD*%
D27*
%TO.C,C31*%
X157775000Y-121650000D03*
X159325000Y-121650000D03*
%TD*%
D40*
%TO.C,Q1*%
X138315000Y-109535000D03*
X138315000Y-111365000D03*
X140455000Y-110450000D03*
%TD*%
D14*
%TO.C,C12*%
X146835000Y-141725000D03*
X146835000Y-143275000D03*
%TD*%
D20*
%TO.C,R16*%
X129475000Y-114350000D03*
X131125000Y-114350000D03*
%TD*%
D28*
%TO.C,RV2*%
X163900000Y-136300000D03*
D29*
X164900000Y-133050000D03*
D28*
X165900000Y-136300000D03*
%TD*%
D20*
%TO.C,R18*%
X132510000Y-63750000D03*
X134160000Y-63750000D03*
%TD*%
D24*
%TO.C,C37*%
X159125000Y-108800000D03*
X157575000Y-108800000D03*
%TD*%
D15*
%TO.C,R34*%
X145410000Y-104250000D03*
X143760000Y-104250000D03*
%TD*%
D14*
%TO.C,C9*%
X150835000Y-141725000D03*
X150835000Y-143275000D03*
%TD*%
D15*
%TO.C,R14*%
X151160000Y-133000000D03*
X149510000Y-133000000D03*
%TD*%
D13*
%TO.C,C25*%
X169550000Y-101025000D03*
X169550000Y-99475000D03*
%TD*%
D41*
%TO.C,D7*%
X169235000Y-69700000D03*
X169235000Y-68000000D03*
X169235000Y-66300000D03*
X164435000Y-66300000D03*
X164435000Y-68000000D03*
X164435000Y-69700000D03*
%TD*%
D27*
%TO.C,C18*%
X149585000Y-114160000D03*
X151135000Y-114160000D03*
%TD*%
D42*
%TO.C,U6*%
X134390000Y-131475000D03*
X135660000Y-131475000D03*
X136930000Y-131475000D03*
X138200000Y-131475000D03*
X139470000Y-131475000D03*
X140740000Y-131475000D03*
X142010000Y-131475000D03*
X143280000Y-131475000D03*
X143280000Y-126525000D03*
X142010000Y-126525000D03*
X140740000Y-126525000D03*
X139470000Y-126525000D03*
X138200000Y-126525000D03*
X136930000Y-126525000D03*
X135660000Y-126525000D03*
X134390000Y-126525000D03*
%TD*%
D41*
%TO.C,D6*%
X152985000Y-105950000D03*
X152985000Y-104250000D03*
X152985000Y-102550000D03*
X148185000Y-102550000D03*
X148185000Y-104250000D03*
X148185000Y-105950000D03*
%TD*%
M02*
