%TF.GenerationSoftware,KiCad,Pcbnew,(6.0.5)*%
%TF.CreationDate,2022-06-08T15:49:38-06:00*%
%TF.ProjectId,main_board,6d61696e-5f62-46f6-9172-642e6b696361,rev?*%
%TF.SameCoordinates,Original*%
%TF.FileFunction,Copper,L1,Top*%
%TF.FilePolarity,Positive*%
%FSLAX46Y46*%
G04 Gerber Fmt 4.6, Leading zero omitted, Abs format (unit mm)*
G04 Created by KiCad (PCBNEW (6.0.5)) date 2022-06-08 15:49:38*
%MOMM*%
%LPD*%
G01*
G04 APERTURE LIST*
G04 Aperture macros list*
%AMRoundRect*
0 Rectangle with rounded corners*
0 $1 Rounding radius*
0 $2 $3 $4 $5 $6 $7 $8 $9 X,Y pos of 4 corners*
0 Add a 4 corners polygon primitive as box body*
4,1,4,$2,$3,$4,$5,$6,$7,$8,$9,$2,$3,0*
0 Add four circle primitives for the rounded corners*
1,1,$1+$1,$2,$3*
1,1,$1+$1,$4,$5*
1,1,$1+$1,$6,$7*
1,1,$1+$1,$8,$9*
0 Add four rect primitives between the rounded corners*
20,1,$1+$1,$2,$3,$4,$5,0*
20,1,$1+$1,$4,$5,$6,$7,0*
20,1,$1+$1,$6,$7,$8,$9,0*
20,1,$1+$1,$8,$9,$2,$3,0*%
G04 Aperture macros list end*
%TA.AperFunction,SMDPad,CuDef*%
%ADD10R,2.650000X1.750000*%
%TD*%
%TA.AperFunction,SMDPad,CuDef*%
%ADD11RoundRect,0.200000X-0.275000X0.200000X-0.275000X-0.200000X0.275000X-0.200000X0.275000X0.200000X0*%
%TD*%
%TA.AperFunction,SMDPad,CuDef*%
%ADD12RoundRect,0.225000X0.250000X-0.225000X0.250000X0.225000X-0.250000X0.225000X-0.250000X-0.225000X0*%
%TD*%
%TA.AperFunction,ComponentPad*%
%ADD13RoundRect,0.250000X0.725000X-0.600000X0.725000X0.600000X-0.725000X0.600000X-0.725000X-0.600000X0*%
%TD*%
%TA.AperFunction,ComponentPad*%
%ADD14O,1.950000X1.700000*%
%TD*%
%TA.AperFunction,SMDPad,CuDef*%
%ADD15RoundRect,0.225000X-0.250000X0.225000X-0.250000X-0.225000X0.250000X-0.225000X0.250000X0.225000X0*%
%TD*%
%TA.AperFunction,ComponentPad*%
%ADD16R,2.500000X2.500000*%
%TD*%
%TA.AperFunction,ComponentPad*%
%ADD17C,2.500000*%
%TD*%
%TA.AperFunction,SMDPad,CuDef*%
%ADD18RoundRect,0.200000X0.200000X0.275000X-0.200000X0.275000X-0.200000X-0.275000X0.200000X-0.275000X0*%
%TD*%
%TA.AperFunction,SMDPad,CuDef*%
%ADD19RoundRect,0.218750X-0.218750X-0.256250X0.218750X-0.256250X0.218750X0.256250X-0.218750X0.256250X0*%
%TD*%
%TA.AperFunction,SMDPad,CuDef*%
%ADD20RoundRect,0.090000X-0.520000X-0.210000X0.520000X-0.210000X0.520000X0.210000X-0.520000X0.210000X0*%
%TD*%
%TA.AperFunction,ComponentPad*%
%ADD21RoundRect,0.250000X-0.725000X0.600000X-0.725000X-0.600000X0.725000X-0.600000X0.725000X0.600000X0*%
%TD*%
%TA.AperFunction,SMDPad,CuDef*%
%ADD22R,0.450000X0.600000*%
%TD*%
%TA.AperFunction,SMDPad,CuDef*%
%ADD23RoundRect,0.008100X0.126900X-0.361900X0.126900X0.361900X-0.126900X0.361900X-0.126900X-0.361900X0*%
%TD*%
%TA.AperFunction,SMDPad,CuDef*%
%ADD24R,1.350000X0.650000*%
%TD*%
%TA.AperFunction,SMDPad,CuDef*%
%ADD25RoundRect,0.200000X-0.200000X-0.275000X0.200000X-0.275000X0.200000X0.275000X-0.200000X0.275000X0*%
%TD*%
%TA.AperFunction,ComponentPad*%
%ADD26C,6.000000*%
%TD*%
%TA.AperFunction,SMDPad,CuDef*%
%ADD27R,0.300000X1.150000*%
%TD*%
%TA.AperFunction,SMDPad,CuDef*%
%ADD28R,1.150000X0.300000*%
%TD*%
%TA.AperFunction,SMDPad,CuDef*%
%ADD29R,3.150000X3.150000*%
%TD*%
%TA.AperFunction,SMDPad,CuDef*%
%ADD30RoundRect,0.225000X0.225000X0.250000X-0.225000X0.250000X-0.225000X-0.250000X0.225000X-0.250000X0*%
%TD*%
%TA.AperFunction,SMDPad,CuDef*%
%ADD31RoundRect,0.007000X0.168000X-0.183000X0.168000X0.183000X-0.168000X0.183000X-0.168000X-0.183000X0*%
%TD*%
%TA.AperFunction,SMDPad,CuDef*%
%ADD32RoundRect,0.200000X0.275000X-0.200000X0.275000X0.200000X-0.275000X0.200000X-0.275000X-0.200000X0*%
%TD*%
%TA.AperFunction,SMDPad,CuDef*%
%ADD33RoundRect,0.225000X-0.225000X-0.250000X0.225000X-0.250000X0.225000X0.250000X-0.225000X0.250000X0*%
%TD*%
%TA.AperFunction,ComponentPad*%
%ADD34R,1.700000X1.700000*%
%TD*%
%TA.AperFunction,ComponentPad*%
%ADD35O,1.700000X1.700000*%
%TD*%
%TA.AperFunction,SMDPad,CuDef*%
%ADD36R,1.200000X1.200000*%
%TD*%
%TA.AperFunction,SMDPad,CuDef*%
%ADD37R,1.600000X1.500000*%
%TD*%
%TA.AperFunction,ComponentPad*%
%ADD38C,1.308000*%
%TD*%
%TA.AperFunction,ComponentPad*%
%ADD39C,1.258000*%
%TD*%
%TA.AperFunction,ComponentPad*%
%ADD40C,1.208000*%
%TD*%
%TA.AperFunction,ComponentPad*%
%ADD41RoundRect,0.250000X0.750000X-0.600000X0.750000X0.600000X-0.750000X0.600000X-0.750000X-0.600000X0*%
%TD*%
%TA.AperFunction,ComponentPad*%
%ADD42O,2.000000X1.700000*%
%TD*%
%TA.AperFunction,SMDPad,CuDef*%
%ADD43R,1.300000X3.400000*%
%TD*%
%TA.AperFunction,SMDPad,CuDef*%
%ADD44R,0.375000X0.350000*%
%TD*%
%TA.AperFunction,SMDPad,CuDef*%
%ADD45R,0.350000X0.375000*%
%TD*%
%TA.AperFunction,ComponentPad*%
%ADD46RoundRect,0.250000X0.600000X0.725000X-0.600000X0.725000X-0.600000X-0.725000X0.600000X-0.725000X0*%
%TD*%
%TA.AperFunction,ComponentPad*%
%ADD47O,1.700000X1.950000*%
%TD*%
%TA.AperFunction,SMDPad,CuDef*%
%ADD48R,0.350000X0.590000*%
%TD*%
%TA.AperFunction,SMDPad,CuDef*%
%ADD49R,0.590000X0.350000*%
%TD*%
%TA.AperFunction,SMDPad,CuDef*%
%ADD50R,2.000000X1.500000*%
%TD*%
%TA.AperFunction,SMDPad,CuDef*%
%ADD51R,2.000000X3.800000*%
%TD*%
%TA.AperFunction,SMDPad,CuDef*%
%ADD52RoundRect,0.060000X-0.615000X0.240000X-0.615000X-0.240000X0.615000X-0.240000X0.615000X0.240000X0*%
%TD*%
%TA.AperFunction,SMDPad,CuDef*%
%ADD53RoundRect,0.218750X0.218750X0.256250X-0.218750X0.256250X-0.218750X-0.256250X0.218750X-0.256250X0*%
%TD*%
%TA.AperFunction,SMDPad,CuDef*%
%ADD54RoundRect,0.042000X-0.943000X-0.258000X0.943000X-0.258000X0.943000X0.258000X-0.943000X0.258000X0*%
%TD*%
%TA.AperFunction,SMDPad,CuDef*%
%ADD55R,1.090000X0.610000*%
%TD*%
%TA.AperFunction,SMDPad,CuDef*%
%ADD56R,2.000000X1.100000*%
%TD*%
%TA.AperFunction,SMDPad,CuDef*%
%ADD57RoundRect,0.042000X0.258000X-0.943000X0.258000X0.943000X-0.258000X0.943000X-0.258000X-0.943000X0*%
%TD*%
%TA.AperFunction,ViaPad*%
%ADD58C,0.800000*%
%TD*%
%TA.AperFunction,ViaPad*%
%ADD59C,0.600000*%
%TD*%
%TA.AperFunction,Conductor*%
%ADD60C,0.250000*%
%TD*%
%TA.AperFunction,Conductor*%
%ADD61C,0.800000*%
%TD*%
%TA.AperFunction,Conductor*%
%ADD62C,0.200000*%
%TD*%
%TA.AperFunction,Conductor*%
%ADD63C,0.500000*%
%TD*%
%TA.AperFunction,Conductor*%
%ADD64C,1.000000*%
%TD*%
%TA.AperFunction,Conductor*%
%ADD65C,3.000000*%
%TD*%
G04 APERTURE END LIST*
D10*
%TO.P,D10,C,K*%
%TO.N,/Power/+5V_reg*%
X131250000Y-106190000D03*
%TO.P,D10,A,A*%
%TO.N,+5V*%
X135550000Y-106190000D03*
%TD*%
D11*
%TO.P,R7,1*%
%TO.N,Net-(C7-Pad1)*%
X141335000Y-122175000D03*
%TO.P,R7,2*%
%TO.N,Net-(R7-Pad2)*%
X141335000Y-123825000D03*
%TD*%
D12*
%TO.P,C6,1*%
%TO.N,+3V3*%
X146165000Y-62275000D03*
%TO.P,C6,2*%
%TO.N,GND*%
X146165000Y-60725000D03*
%TD*%
D13*
%TO.P,J7,1,Pin_1*%
%TO.N,/Stepper_b1/1B_b*%
X178750000Y-106500000D03*
D14*
%TO.P,J7,2,Pin_2*%
%TO.N,/Stepper_b1/1A_b*%
X178750000Y-104000000D03*
%TO.P,J7,3,Pin_3*%
%TO.N,/Stepper_b1/2A_b*%
X178750000Y-101500000D03*
%TO.P,J7,4,Pin_4*%
%TO.N,/Stepper_b1/2B_b*%
X178750000Y-99000000D03*
%TD*%
D15*
%TO.P,C41,1*%
%TO.N,+3V3*%
X157165000Y-67975000D03*
%TO.P,C41,2*%
%TO.N,GND*%
X157165000Y-69525000D03*
%TD*%
D16*
%TO.P,J4,1,Pin_1*%
%TO.N,GND*%
X123835000Y-124545000D03*
D17*
%TO.P,J4,2,Pin_2*%
%TO.N,/Stepper_b/VMM*%
X123835000Y-119465000D03*
%TD*%
D18*
%TO.P,R6,1*%
%TO.N,Net-(R5-Pad2)*%
X135160000Y-137250000D03*
%TO.P,R6,2*%
%TO.N,Net-(R6-Pad2)*%
X133510000Y-137250000D03*
%TD*%
D15*
%TO.P,C3,1*%
%TO.N,Net-(C3-Pad1)*%
X154915000Y-67975000D03*
%TO.P,C3,2*%
%TO.N,GND*%
X154915000Y-69525000D03*
%TD*%
D19*
%TO.P,D9,1,K*%
%TO.N,Net-(D9-Pad1)*%
X129085000Y-101500000D03*
%TO.P,D9,2,A*%
%TO.N,/LEDs/SIGNAL*%
X130660000Y-101500000D03*
%TD*%
D18*
%TO.P,R31,1*%
%TO.N,GND*%
X135197500Y-101500000D03*
%TO.P,R31,2*%
%TO.N,Net-(D9-Pad1)*%
X133547500Y-101500000D03*
%TD*%
D20*
%TO.P,U7,1,VOUT*%
%TO.N,/TDS/RST*%
X149455000Y-116050000D03*
%TO.P,U7,2,VIN*%
%TO.N,/Power/+3V0*%
X149455000Y-117000000D03*
%TO.P,U7,3,C1-*%
%TO.N,Net-(C16-Pad2)*%
X149455000Y-117950000D03*
%TO.P,U7,4,GND*%
%TO.N,GND*%
X151945000Y-117950000D03*
%TO.P,U7,5,SHDN*%
X151945000Y-117000000D03*
%TO.P,U7,6,C1+*%
%TO.N,Net-(C16-Pad1)*%
X151945000Y-116050000D03*
%TD*%
D18*
%TO.P,R38,1*%
%TO.N,Net-(D7-Pad4)*%
X161475000Y-71800000D03*
%TO.P,R38,2*%
%TO.N,/LEDs/B_b*%
X159825000Y-71800000D03*
%TD*%
D12*
%TO.P,C17,1*%
%TO.N,/Power/+5V_reg*%
X143135000Y-111225000D03*
%TO.P,C17,2*%
%TO.N,GND*%
X143135000Y-109675000D03*
%TD*%
D21*
%TO.P,J9,1,Pin_1*%
%TO.N,/SET*%
X122135000Y-101500000D03*
D14*
%TO.P,J9,2,Pin_2*%
%TO.N,/TX_RF*%
X122135000Y-104000000D03*
%TO.P,J9,3,Pin_3*%
%TO.N,/RX_RF*%
X122135000Y-106500000D03*
%TO.P,J9,4,Pin_4*%
%TO.N,GND*%
X122135000Y-109000000D03*
%TO.P,J9,5,Pin_5*%
%TO.N,+3V3*%
X122135000Y-111500000D03*
%TD*%
D15*
%TO.P,C29,1*%
%TO.N,/Stepper_b/VMM*%
X169500000Y-128325000D03*
%TO.P,C29,2*%
%TO.N,GND*%
X169500000Y-129875000D03*
%TD*%
D22*
%TO.P,D2,1,K*%
%TO.N,Net-(D2-Pad1)*%
X146835000Y-136950000D03*
%TO.P,D2,2,A*%
%TO.N,Net-(D2-Pad2)*%
X146835000Y-139050000D03*
%TD*%
D23*
%TO.P,U9,1,VOUT*%
%TO.N,/Power/+3V0*%
X145485000Y-115445000D03*
%TO.P,U9,2,NC*%
%TO.N,unconnected-(U9-Pad2)*%
X146135000Y-115445000D03*
%TO.P,U9,3,GND*%
%TO.N,GND*%
X146785000Y-115445000D03*
%TO.P,U9,4,EN*%
%TO.N,/Power/+5V_reg*%
X146785000Y-113455000D03*
%TO.P,U9,5,NC*%
%TO.N,unconnected-(U9-Pad5)*%
X146135000Y-113455000D03*
%TO.P,U9,6,VIN*%
%TO.N,/Power/+5V_reg*%
X145485000Y-113455000D03*
D24*
%TO.P,U9,7,EPGND*%
%TO.N,GND*%
X146135000Y-114450000D03*
%TD*%
D25*
%TO.P,R39,1*%
%TO.N,GND*%
X134260000Y-109450000D03*
%TO.P,R39,2*%
%TO.N,Net-(Q1-Pad1)*%
X135910000Y-109450000D03*
%TD*%
D15*
%TO.P,C19,1*%
%TO.N,+3V3*%
X151135000Y-109700000D03*
%TO.P,C19,2*%
%TO.N,GND*%
X151135000Y-111250000D03*
%TD*%
D26*
%TO.P,H4,1,1*%
%TO.N,GND*%
X126450000Y-58600000D03*
%TD*%
D22*
%TO.P,D5,1,K*%
%TO.N,/TDS*%
X146835000Y-125700000D03*
%TO.P,D5,2,A*%
%TO.N,GND*%
X146835000Y-127800000D03*
%TD*%
D25*
%TO.P,R33,1*%
%TO.N,/LEDs/R_a*%
X143760000Y-106000000D03*
%TO.P,R33,2*%
%TO.N,Net-(D6-Pad6)*%
X145410000Y-106000000D03*
%TD*%
D12*
%TO.P,C8,1*%
%TO.N,/Power/+3V0*%
X134335000Y-123750000D03*
%TO.P,C8,2*%
%TO.N,GND*%
X134335000Y-122200000D03*
%TD*%
D18*
%TO.P,R12,1*%
%TO.N,Net-(D2-Pad2)*%
X151085000Y-137500000D03*
%TO.P,R12,2*%
%TO.N,Net-(D3-Pad1)*%
X149435000Y-137500000D03*
%TD*%
%TO.P,R22,1*%
%TO.N,Net-(IC1-Pad2)*%
X165375000Y-119700000D03*
%TO.P,R22,2*%
%TO.N,GND*%
X163725000Y-119700000D03*
%TD*%
%TO.P,R40,1*%
%TO.N,+5V*%
X139910000Y-107500000D03*
%TO.P,R40,2*%
%TO.N,Net-(Q1-Pad1)*%
X138260000Y-107500000D03*
%TD*%
D27*
%TO.P,IC1,1,OUT2B*%
%TO.N,/Stepper_b/2B_b*%
X166885000Y-123900000D03*
%TO.P,IC1,2,~{ENABLE}*%
%TO.N,Net-(IC1-Pad2)*%
X166385000Y-123900000D03*
%TO.P,IC1,3,GND_1*%
%TO.N,GND*%
X165885000Y-123900000D03*
%TO.P,IC1,4,CP1*%
%TO.N,Net-(C28-Pad1)*%
X165385000Y-123900000D03*
%TO.P,IC1,5,CP2*%
%TO.N,Net-(C28-Pad2)*%
X164885000Y-123900000D03*
%TO.P,IC1,6,VCP*%
%TO.N,Net-(C31-Pad2)*%
X164385000Y-123900000D03*
%TO.P,IC1,7,NC_1*%
%TO.N,unconnected-(IC1-Pad7)*%
X163885000Y-123900000D03*
D28*
%TO.P,IC1,8,VREG*%
%TO.N,Net-(C30-Pad1)*%
X163035000Y-124750000D03*
%TO.P,IC1,9,MS1*%
%TO.N,/Stepper_b/MS1_b*%
X163035000Y-125250000D03*
%TO.P,IC1,10,MS2*%
%TO.N,/Stepper_b/MS2_b*%
X163035000Y-125750000D03*
%TO.P,IC1,11,MS3*%
%TO.N,/Stepper_b/MS3_b*%
X163035000Y-126250000D03*
%TO.P,IC1,12,~{RESET}*%
%TO.N,/Stepper_b/RST_b*%
X163035000Y-126750000D03*
%TO.P,IC1,13,ROSC*%
%TO.N,Net-(IC1-Pad13)*%
X163035000Y-127250000D03*
%TO.P,IC1,14,~{SLEEP}*%
%TO.N,/Stepper_b/SLP_b*%
X163035000Y-127750000D03*
D27*
%TO.P,IC1,15,VDD*%
%TO.N,+3V3*%
X163885000Y-128600000D03*
%TO.P,IC1,16,STEP*%
%TO.N,/Stepper_b/STEP_b*%
X164385000Y-128600000D03*
%TO.P,IC1,17,REF*%
%TO.N,/Stepper_b/REF*%
X164885000Y-128600000D03*
%TO.P,IC1,18,GND_2*%
%TO.N,GND*%
X165385000Y-128600000D03*
%TO.P,IC1,19,DIR*%
%TO.N,/Stepper_b/DIR_b*%
X165885000Y-128600000D03*
%TO.P,IC1,20,NC_2*%
%TO.N,unconnected-(IC1-Pad20)*%
X166385000Y-128600000D03*
%TO.P,IC1,21,OUT1B*%
%TO.N,/Stepper_b/1B_b*%
X166885000Y-128600000D03*
D28*
%TO.P,IC1,22,VBB1*%
%TO.N,/Stepper_b/VMM*%
X167735000Y-127750000D03*
%TO.P,IC1,23,SENSE1*%
%TO.N,Net-(IC1-Pad23)*%
X167735000Y-127250000D03*
%TO.P,IC1,24,OUT1A*%
%TO.N,/Stepper_b/1A_b*%
X167735000Y-126750000D03*
%TO.P,IC1,25,NC_3*%
%TO.N,unconnected-(IC1-Pad25)*%
X167735000Y-126250000D03*
%TO.P,IC1,26,OUT2A*%
%TO.N,/Stepper_b/2A_b*%
X167735000Y-125750000D03*
%TO.P,IC1,27,SENSE2*%
%TO.N,Net-(IC1-Pad27)*%
X167735000Y-125250000D03*
%TO.P,IC1,28,VBB2*%
%TO.N,/Stepper_b/VMM*%
X167735000Y-124750000D03*
D29*
%TO.P,IC1,29,EP*%
%TO.N,GND*%
X165385000Y-126250000D03*
%TD*%
D18*
%TO.P,R11,1*%
%TO.N,Net-(D1-Pad2)*%
X132585000Y-147250000D03*
%TO.P,R11,2*%
%TO.N,Net-(D3-Pad1)*%
X130935000Y-147250000D03*
%TD*%
D25*
%TO.P,R15,1*%
%TO.N,/Stepper_b/VMM*%
X125975000Y-114350000D03*
%TO.P,R15,2*%
%TO.N,Net-(R15-Pad2)*%
X127625000Y-114350000D03*
%TD*%
D18*
%TO.P,R37,1*%
%TO.N,Net-(D7-Pad5)*%
X161475000Y-73650000D03*
%TO.P,R37,2*%
%TO.N,/LEDs/G_b*%
X159825000Y-73650000D03*
%TD*%
D30*
%TO.P,C33,1*%
%TO.N,Net-(C33-Pad1)*%
X165325000Y-98450000D03*
%TO.P,C33,2*%
%TO.N,Net-(C33-Pad2)*%
X163775000Y-98450000D03*
%TD*%
D15*
%TO.P,C13,1*%
%TO.N,/TDS*%
X149835000Y-125975000D03*
%TO.P,C13,2*%
%TO.N,GND*%
X149835000Y-127525000D03*
%TD*%
D11*
%TO.P,R8,1*%
%TO.N,Net-(C7-Pad1)*%
X139335000Y-122175000D03*
%TO.P,R8,2*%
%TO.N,Net-(R8-Pad2)*%
X139335000Y-123825000D03*
%TD*%
D26*
%TO.P,H2,1,1*%
%TO.N,GND*%
X174650000Y-58650000D03*
%TD*%
D12*
%TO.P,C27,1*%
%TO.N,/Stepper_b/VMM*%
X169550000Y-124175000D03*
%TO.P,C27,2*%
%TO.N,GND*%
X169550000Y-122625000D03*
%TD*%
D15*
%TO.P,C26,1*%
%TO.N,/Stepper_b/VMM*%
X155750000Y-122175000D03*
%TO.P,C26,2*%
%TO.N,GND*%
X155750000Y-123725000D03*
%TD*%
D31*
%TO.P,U3,1,VDDIO*%
%TO.N,+3V3*%
X143900000Y-65250000D03*
%TO.P,U3,2,SCK*%
%TO.N,/SCL*%
X143900000Y-65750000D03*
%TO.P,U3,3,VSS*%
%TO.N,GND*%
X144165000Y-66265000D03*
%TO.P,U3,4,SDI*%
%TO.N,/SDA*%
X144665000Y-66265000D03*
%TO.P,U3,5,SDO*%
%TO.N,GND*%
X145165000Y-66265000D03*
%TO.P,U3,6,CSB*%
%TO.N,+3V3*%
X145430000Y-65750000D03*
%TO.P,U3,7,INT*%
%TO.N,/INT_BAR*%
X145430000Y-65250000D03*
%TO.P,U3,8,VSS*%
%TO.N,GND*%
X145165000Y-64735000D03*
%TO.P,U3,9,VSS*%
X144665000Y-64735000D03*
%TO.P,U3,10,VDD*%
%TO.N,+3V3*%
X144165000Y-64735000D03*
%TD*%
D18*
%TO.P,R41,1*%
%TO.N,GND*%
X135197500Y-99500000D03*
%TO.P,R41,2*%
%TO.N,Net-(D8-Pad1)*%
X133547500Y-99500000D03*
%TD*%
%TO.P,R9,1*%
%TO.N,Net-(R10-Pad1)*%
X136160000Y-147250000D03*
%TO.P,R9,2*%
%TO.N,Net-(D1-Pad2)*%
X134510000Y-147250000D03*
%TD*%
D32*
%TO.P,R17,1*%
%TO.N,Net-(R15-Pad2)*%
X128500000Y-111575000D03*
%TO.P,R17,2*%
%TO.N,/V_DIV*%
X128500000Y-109925000D03*
%TD*%
D25*
%TO.P,R27,1*%
%TO.N,+3V3*%
X157575000Y-106750000D03*
%TO.P,R27,2*%
%TO.N,/Stepper_b1/SLP_b*%
X159225000Y-106750000D03*
%TD*%
D33*
%TO.P,C20,1*%
%TO.N,/Stepper_b/VMM*%
X173925000Y-96650000D03*
%TO.P,C20,2*%
%TO.N,GND*%
X175475000Y-96650000D03*
%TD*%
D22*
%TO.P,D4,1,K*%
%TO.N,Net-(D3-Pad1)*%
X146835000Y-133050000D03*
%TO.P,D4,2,A*%
%TO.N,Net-(D2-Pad1)*%
X146835000Y-130950000D03*
%TD*%
%TO.P,D1,1,K*%
%TO.N,Net-(D1-Pad1)*%
X134835000Y-145300000D03*
%TO.P,D1,2,A*%
%TO.N,Net-(D1-Pad2)*%
X134835000Y-143200000D03*
%TD*%
D15*
%TO.P,C34,1*%
%TO.N,/Stepper_b/VMM*%
X169500000Y-105175000D03*
%TO.P,C34,2*%
%TO.N,GND*%
X169500000Y-106725000D03*
%TD*%
D21*
%TO.P,J10,1,Pin_1*%
%TO.N,GND*%
X122635000Y-66000000D03*
D14*
%TO.P,J10,2,Pin_2*%
%TO.N,/TX_GPS*%
X122635000Y-68500000D03*
%TO.P,J10,3,Pin_3*%
%TO.N,/RX_GPS*%
X122635000Y-71000000D03*
%TO.P,J10,4,Pin_4*%
%TO.N,+3V3*%
X122635000Y-73500000D03*
%TD*%
D11*
%TO.P,R4,1*%
%TO.N,Net-(J3-Pad1)*%
X146835000Y-145425000D03*
%TO.P,R4,2*%
%TO.N,Net-(R10-Pad1)*%
X146835000Y-147075000D03*
%TD*%
D25*
%TO.P,R24,1*%
%TO.N,Net-(IC1-Pad27)*%
X172725000Y-124100000D03*
%TO.P,R24,2*%
%TO.N,GND*%
X174375000Y-124100000D03*
%TD*%
D30*
%TO.P,C14,1*%
%TO.N,/Power/+3V0*%
X135110000Y-141250000D03*
%TO.P,C14,2*%
%TO.N,GND*%
X133560000Y-141250000D03*
%TD*%
D15*
%TO.P,C16,1*%
%TO.N,Net-(C16-Pad1)*%
X154070000Y-116135000D03*
%TO.P,C16,2*%
%TO.N,Net-(C16-Pad2)*%
X154070000Y-117685000D03*
%TD*%
D13*
%TO.P,J1,1,Pin_1*%
%TO.N,+3V3*%
X178585000Y-73500000D03*
D14*
%TO.P,J1,2,Pin_2*%
%TO.N,/SDA*%
X178585000Y-71000000D03*
%TO.P,J1,3,Pin_3*%
%TO.N,/SCL*%
X178585000Y-68500000D03*
%TO.P,J1,4,Pin_4*%
%TO.N,GND*%
X178585000Y-66000000D03*
%TD*%
D12*
%TO.P,C1,1*%
%TO.N,+3V3*%
X152415000Y-62275000D03*
%TO.P,C1,2*%
%TO.N,GND*%
X152415000Y-60725000D03*
%TD*%
%TO.P,C22,1*%
%TO.N,/Stepper_b/VMM*%
X131085000Y-119500000D03*
%TO.P,C22,2*%
%TO.N,GND*%
X131085000Y-117950000D03*
%TD*%
D34*
%TO.P,J15,1,Pin_1*%
%TO.N,GND*%
X155330000Y-140945000D03*
D35*
%TO.P,J15,2,Pin_2*%
%TO.N,/TDS*%
X155330000Y-143485000D03*
%TO.P,J15,3,Pin_3*%
%TO.N,+3V3*%
X155330000Y-146025000D03*
%TD*%
D36*
%TO.P,RV1,1,1*%
%TO.N,Net-(R19-Pad2)*%
X163900000Y-113150000D03*
D37*
%TO.P,RV1,2,2*%
%TO.N,/Stepper_b1/REF*%
X164900000Y-109900000D03*
D36*
%TO.P,RV1,3,3*%
%TO.N,GND*%
X165900000Y-113150000D03*
%TD*%
D38*
%TO.P,U4,0,RX1*%
%TO.N,/LEDs/R_a*%
X123665000Y-93870000D03*
%TO.P,U4,1,TX1*%
%TO.N,/LEDs/G_a*%
X126205000Y-93870000D03*
%TO.P,U4,2,OUT2*%
%TO.N,/LEDs/B_a*%
X128745000Y-93870000D03*
%TO.P,U4,3,LRCLK2*%
%TO.N,/RX_RF*%
X131285000Y-93870000D03*
%TO.P,U4,3.3V_1,3.3V*%
%TO.N,unconnected-(U4-Pad3.3V_1)*%
X156685000Y-93870000D03*
%TO.P,U4,3.3V_2,3.3V*%
%TO.N,unconnected-(U4-Pad3.3V_2)*%
X126205000Y-78630000D03*
%TO.P,U4,3.3V_3,3.3V*%
%TO.N,unconnected-(U4-Pad3.3V_3)*%
X166845000Y-88790000D03*
%TO.P,U4,4,BCLK2*%
%TO.N,/TX_RF*%
X133825000Y-93870000D03*
%TO.P,U4,5,IN2*%
%TO.N,/LEDs/SIGNAL*%
X136365000Y-93870000D03*
D39*
%TO.P,U4,5V,5V*%
%TO.N,unconnected-(U4-Pad5V)*%
X127475000Y-90820000D03*
D38*
%TO.P,U4,6,OUT1D*%
%TO.N,/SET*%
X138905000Y-93870000D03*
%TO.P,U4,7,RX2*%
%TO.N,/Stepper_b/MS2_b*%
X141445000Y-93870000D03*
%TO.P,U4,8,TX2*%
%TO.N,/Stepper_b/MS3_b*%
X143985000Y-93870000D03*
%TO.P,U4,9,OUT1C*%
%TO.N,/Stepper_b/MS1_b*%
X146525000Y-93870000D03*
%TO.P,U4,10,CS1*%
%TO.N,/CS_VD*%
X149065000Y-93870000D03*
%TO.P,U4,11,MOSI*%
%TO.N,/MOSI*%
X151605000Y-93870000D03*
%TO.P,U4,12,MISO*%
%TO.N,/MISO*%
X154145000Y-93870000D03*
%TO.P,U4,13,SCK*%
%TO.N,/SCK*%
X154145000Y-78630000D03*
%TO.P,U4,14,A0*%
%TO.N,/Teensy41/BUZZER*%
X151605000Y-78630000D03*
%TO.P,U4,15,A1*%
%TO.N,/LEDs/B_b*%
X149065000Y-78630000D03*
%TO.P,U4,16,A2*%
%TO.N,/V_DIV*%
X146525000Y-78630000D03*
%TO.P,U4,17,A3*%
%TO.N,/TDS*%
X143985000Y-78630000D03*
%TO.P,U4,18,A4*%
%TO.N,/SDA*%
X141445000Y-78630000D03*
%TO.P,U4,19,A5*%
%TO.N,/SCL*%
X138905000Y-78630000D03*
%TO.P,U4,20,A6*%
%TO.N,/TX_GPS*%
X136365000Y-78630000D03*
%TO.P,U4,21,A7*%
%TO.N,/RX_GPS*%
X133825000Y-78630000D03*
%TO.P,U4,22,A8*%
%TO.N,/LEDs/R_b*%
X131285000Y-78630000D03*
%TO.P,U4,23,A9*%
%TO.N,/LEDs/G_b*%
X128745000Y-78630000D03*
%TO.P,U4,24,A10*%
%TO.N,/Stepper_b/DIR_b*%
X159225000Y-93870000D03*
%TO.P,U4,25,A11*%
%TO.N,/Stepper_b/STEP_b*%
X161765000Y-93870000D03*
%TO.P,U4,26,A12*%
%TO.N,/Stepper_b/SLP_b*%
X164305000Y-93870000D03*
%TO.P,U4,27,A13*%
%TO.N,/Stepper_b/RST_b*%
X166845000Y-93870000D03*
%TO.P,U4,28,RX7*%
%TO.N,/Stepper_b1/MS1_b*%
X169385000Y-93870000D03*
%TO.P,U4,29,TX7*%
%TO.N,/Stepper_b1/MS2_b*%
X171925000Y-93870000D03*
%TO.P,U4,30,CRX3*%
%TO.N,/Stepper_b1/MS3_b*%
X174465000Y-93870000D03*
%TO.P,U4,31,CTX3*%
%TO.N,/Teensy41/Limit_p*%
X177005000Y-93870000D03*
%TO.P,U4,32,OUT1B*%
%TO.N,/Teensy41/Limit_b*%
X179545000Y-93870000D03*
%TO.P,U4,33,MCLK2*%
%TO.N,/INT_GYR*%
X179545000Y-78630000D03*
%TO.P,U4,34,RX8*%
%TO.N,/INT_ACC*%
X177005000Y-78630000D03*
%TO.P,U4,35,TX8*%
%TO.N,/INT_BAR*%
X174465000Y-78630000D03*
%TO.P,U4,36,CS2*%
%TO.N,/INT_MAG*%
X171925000Y-78630000D03*
%TO.P,U4,37,CS3*%
%TO.N,/CS*%
X169385000Y-78630000D03*
%TO.P,U4,38,A14*%
%TO.N,/Stepper_b1/DIR_b*%
X166845000Y-78630000D03*
%TO.P,U4,39,A15*%
%TO.N,/Stepper_b1/STEP_b*%
X164305000Y-78630000D03*
%TO.P,U4,40,A16*%
%TO.N,/Stepper_b1/RST_b*%
X161765000Y-78630000D03*
%TO.P,U4,41,A17*%
%TO.N,/Stepper_b1/SLP_b*%
X159225000Y-78630000D03*
D39*
%TO.P,U4,D+,D+*%
%TO.N,unconnected-(U4-PadD+)*%
X132555000Y-90820000D03*
%TO.P,U4,D-,D-*%
%TO.N,unconnected-(U4-PadD-)*%
X130015000Y-90820000D03*
D38*
%TO.P,U4,GND1,GND*%
%TO.N,GND*%
X121125000Y-93870000D03*
%TO.P,U4,GND2,GND*%
X156685000Y-78630000D03*
%TO.P,U4,GND3,GND*%
X123665000Y-78630000D03*
%TO.P,U4,GND4,GND*%
X166845000Y-86250000D03*
D40*
%TO.P,U4,GND5,GND*%
X136095000Y-83080000D03*
%TO.P,U4,LED,LED*%
%TO.N,unconnected-(U4-PadLED)*%
X134095000Y-83080000D03*
D38*
%TO.P,U4,ON/OFF,ON/OFF*%
%TO.N,unconnected-(U4-PadON/OFF)*%
X166845000Y-81170000D03*
%TO.P,U4,PROGRAM,PROGRAM*%
%TO.N,unconnected-(U4-PadPROGRAM)*%
X166845000Y-83710000D03*
D40*
%TO.P,U4,R+,R+*%
%TO.N,unconnected-(U4-PadR+)*%
X134095000Y-81080000D03*
%TO.P,U4,R-,R-*%
%TO.N,unconnected-(U4-PadR-)*%
X136095000Y-81080000D03*
%TO.P,U4,T+,T+*%
%TO.N,unconnected-(U4-PadT+)*%
X136095000Y-85080000D03*
%TO.P,U4,T-,T-*%
%TO.N,unconnected-(U4-PadT-)*%
X134095000Y-85080000D03*
D39*
%TO.P,U4,USB_GND1,USB_GND*%
%TO.N,GND*%
X135095000Y-90820000D03*
%TO.P,U4,USB_GND2,USB_GND*%
X137635000Y-90820000D03*
D38*
%TO.P,U4,VBAT,VBAT*%
%TO.N,unconnected-(U4-PadVBAT)*%
X166845000Y-91330000D03*
%TO.P,U4,VIN,VIN*%
%TO.N,+5V*%
X121125000Y-78630000D03*
%TO.P,U4,VUSB,VUSB*%
%TO.N,VBUS*%
X123665000Y-81170000D03*
%TD*%
D27*
%TO.P,IC2,1,OUT2B*%
%TO.N,/Stepper_b1/2B_b*%
X166885000Y-100750000D03*
%TO.P,IC2,2,~{ENABLE}*%
%TO.N,Net-(IC2-Pad2)*%
X166385000Y-100750000D03*
%TO.P,IC2,3,GND_1*%
%TO.N,GND*%
X165885000Y-100750000D03*
%TO.P,IC2,4,CP1*%
%TO.N,Net-(C33-Pad1)*%
X165385000Y-100750000D03*
%TO.P,IC2,5,CP2*%
%TO.N,Net-(C33-Pad2)*%
X164885000Y-100750000D03*
%TO.P,IC2,6,VCP*%
%TO.N,Net-(C36-Pad2)*%
X164385000Y-100750000D03*
%TO.P,IC2,7,NC_1*%
%TO.N,unconnected-(IC2-Pad7)*%
X163885000Y-100750000D03*
D28*
%TO.P,IC2,8,VREG*%
%TO.N,Net-(C35-Pad1)*%
X163035000Y-101600000D03*
%TO.P,IC2,9,MS1*%
%TO.N,/Stepper_b1/MS1_b*%
X163035000Y-102100000D03*
%TO.P,IC2,10,MS2*%
%TO.N,/Stepper_b1/MS2_b*%
X163035000Y-102600000D03*
%TO.P,IC2,11,MS3*%
%TO.N,/Stepper_b1/MS3_b*%
X163035000Y-103100000D03*
%TO.P,IC2,12,~{RESET}*%
%TO.N,/Stepper_b1/RST_b*%
X163035000Y-103600000D03*
%TO.P,IC2,13,ROSC*%
%TO.N,Net-(IC2-Pad13)*%
X163035000Y-104100000D03*
%TO.P,IC2,14,~{SLEEP}*%
%TO.N,/Stepper_b1/SLP_b*%
X163035000Y-104600000D03*
D27*
%TO.P,IC2,15,VDD*%
%TO.N,+3V3*%
X163885000Y-105450000D03*
%TO.P,IC2,16,STEP*%
%TO.N,/Stepper_b1/STEP_b*%
X164385000Y-105450000D03*
%TO.P,IC2,17,REF*%
%TO.N,/Stepper_b1/REF*%
X164885000Y-105450000D03*
%TO.P,IC2,18,GND_2*%
%TO.N,GND*%
X165385000Y-105450000D03*
%TO.P,IC2,19,DIR*%
%TO.N,/Stepper_b1/DIR_b*%
X165885000Y-105450000D03*
%TO.P,IC2,20,NC_2*%
%TO.N,unconnected-(IC2-Pad20)*%
X166385000Y-105450000D03*
%TO.P,IC2,21,OUT1B*%
%TO.N,/Stepper_b1/1B_b*%
X166885000Y-105450000D03*
D28*
%TO.P,IC2,22,VBB1*%
%TO.N,/Stepper_b/VMM*%
X167735000Y-104600000D03*
%TO.P,IC2,23,SENSE1*%
%TO.N,Net-(IC2-Pad23)*%
X167735000Y-104100000D03*
%TO.P,IC2,24,OUT1A*%
%TO.N,/Stepper_b1/1A_b*%
X167735000Y-103600000D03*
%TO.P,IC2,25,NC_3*%
%TO.N,unconnected-(IC2-Pad25)*%
X167735000Y-103100000D03*
%TO.P,IC2,26,OUT2A*%
%TO.N,/Stepper_b1/2A_b*%
X167735000Y-102600000D03*
%TO.P,IC2,27,SENSE2*%
%TO.N,Net-(IC2-Pad27)*%
X167735000Y-102100000D03*
%TO.P,IC2,28,VBB2*%
%TO.N,/Stepper_b/VMM*%
X167735000Y-101600000D03*
D29*
%TO.P,IC2,29,EP*%
%TO.N,GND*%
X165385000Y-103100000D03*
%TD*%
D34*
%TO.P,J8,1,Pin_1*%
%TO.N,+3V3*%
X156650000Y-61450000D03*
D35*
%TO.P,J8,2,Pin_2*%
%TO.N,/MOSI*%
X159190000Y-61450000D03*
%TO.P,J8,3,Pin_3*%
%TO.N,/MISO*%
X161730000Y-61450000D03*
%TO.P,J8,4,Pin_4*%
%TO.N,/SCK*%
X164270000Y-61450000D03*
%TO.P,J8,5,Pin_5*%
%TO.N,/CS*%
X166810000Y-61450000D03*
%TO.P,J8,6,Pin_6*%
%TO.N,GND*%
X169350000Y-61450000D03*
%TD*%
D41*
%TO.P,J11,1,Pin_1*%
%TO.N,/Teensy41/Limit_b*%
X178785000Y-139000000D03*
D42*
%TO.P,J11,2,Pin_2*%
%TO.N,GND*%
X178785000Y-136500000D03*
%TD*%
D25*
%TO.P,R5,1*%
%TO.N,Net-(J3-Pad2)*%
X133510000Y-135250000D03*
%TO.P,R5,2*%
%TO.N,Net-(R5-Pad2)*%
X135160000Y-135250000D03*
%TD*%
D43*
%TO.P,BZ1,1,-*%
%TO.N,/Teensy41/BUZZER*%
X128985000Y-70250000D03*
%TO.P,BZ1,2,+*%
%TO.N,GND*%
X137685000Y-70250000D03*
%TD*%
D12*
%TO.P,C5,1*%
%TO.N,+3V3*%
X144165000Y-62275000D03*
%TO.P,C5,2*%
%TO.N,GND*%
X144165000Y-60725000D03*
%TD*%
D15*
%TO.P,C21,1*%
%TO.N,/Power/+5V_reg*%
X143135000Y-113675000D03*
%TO.P,C21,2*%
%TO.N,GND*%
X143135000Y-115225000D03*
%TD*%
D25*
%TO.P,R23,1*%
%TO.N,+3V3*%
X157575000Y-129900000D03*
%TO.P,R23,2*%
%TO.N,/Stepper_b/SLP_b*%
X159225000Y-129900000D03*
%TD*%
%TO.P,R28,1*%
%TO.N,Net-(IC2-Pad27)*%
X172725000Y-100950000D03*
%TO.P,R28,2*%
%TO.N,GND*%
X174375000Y-100950000D03*
%TD*%
D44*
%TO.P,U2,1,SCL/SPC*%
%TO.N,/SCL*%
X156152500Y-64750000D03*
%TO.P,U2,2,RSVD1*%
%TO.N,GND*%
X156152500Y-65250000D03*
%TO.P,U2,3,GND*%
X156152500Y-65750000D03*
%TO.P,U2,4,C1*%
%TO.N,Net-(C3-Pad1)*%
X156152500Y-66250000D03*
D45*
%TO.P,U2,5,VDD*%
%TO.N,+3V3*%
X156665000Y-66262500D03*
%TO.P,U2,6,VDD_IO*%
X157165000Y-66262500D03*
D44*
%TO.P,U2,7,INT*%
%TO.N,unconnected-(U2-Pad7)*%
X157677500Y-66250000D03*
%TO.P,U2,8,DRDY*%
%TO.N,/INT_MAG*%
X157677500Y-65750000D03*
%TO.P,U2,9,SDO/SA1*%
%TO.N,GND*%
X157677500Y-65250000D03*
%TO.P,U2,10,CS*%
%TO.N,+3V3*%
X157677500Y-64750000D03*
D45*
%TO.P,U2,11,SDA/SDI/SDO*%
%TO.N,/SDA*%
X157165000Y-64737500D03*
%TO.P,U2,12,RSVD2*%
%TO.N,GND*%
X156665000Y-64737500D03*
%TD*%
D25*
%TO.P,R10,1*%
%TO.N,Net-(R10-Pad1)*%
X149260000Y-147250000D03*
%TO.P,R10,2*%
%TO.N,Net-(R10-Pad2)*%
X150910000Y-147250000D03*
%TD*%
D30*
%TO.P,C36,1*%
%TO.N,/Stepper_b/VMM*%
X171475000Y-96650000D03*
%TO.P,C36,2*%
%TO.N,Net-(C36-Pad2)*%
X169925000Y-96650000D03*
%TD*%
%TO.P,C32,1*%
%TO.N,+3V3*%
X159125000Y-131950000D03*
%TO.P,C32,2*%
%TO.N,GND*%
X157575000Y-131950000D03*
%TD*%
D33*
%TO.P,C10,1*%
%TO.N,Net-(C10-Pad1)*%
X149560000Y-130750000D03*
%TO.P,C10,2*%
%TO.N,GND*%
X151110000Y-130750000D03*
%TD*%
D18*
%TO.P,R35,1*%
%TO.N,Net-(D6-Pad4)*%
X145410000Y-102500000D03*
%TO.P,R35,2*%
%TO.N,/LEDs/B_a*%
X143760000Y-102500000D03*
%TD*%
D46*
%TO.P,J5,1,Pin_1*%
%TO.N,/CS_VD*%
X160100000Y-56000000D03*
D47*
%TO.P,J5,2,Pin_2*%
%TO.N,/MOSI*%
X157600000Y-56000000D03*
%TO.P,J5,3,Pin_3*%
%TO.N,/MISO*%
X155100000Y-56000000D03*
%TO.P,J5,4,Pin_4*%
%TO.N,/SCK*%
X152600000Y-56000000D03*
%TO.P,J5,5,Pin_5*%
%TO.N,GND*%
X150100000Y-56000000D03*
%TO.P,J5,6,Pin_6*%
%TO.N,+3V3*%
X147600000Y-56000000D03*
%TO.P,J5,7,Pin_7*%
%TO.N,/SDA*%
X145100000Y-56000000D03*
%TO.P,J5,8,Pin_8*%
%TO.N,/SCL*%
X142600000Y-56000000D03*
%TD*%
D16*
%TO.P,J3,1,Pin_1*%
%TO.N,Net-(J3-Pad1)*%
X123835000Y-136750000D03*
D17*
%TO.P,J3,2,Pin_2*%
%TO.N,Net-(J3-Pad2)*%
X123835000Y-131670000D03*
%TD*%
D15*
%TO.P,C7,1*%
%TO.N,Net-(C7-Pad1)*%
X143335000Y-122225000D03*
%TO.P,C7,2*%
%TO.N,Net-(C7-Pad2)*%
X143335000Y-123775000D03*
%TD*%
D30*
%TO.P,C11,1*%
%TO.N,/Power/+3V0*%
X135110000Y-139250000D03*
%TO.P,C11,2*%
%TO.N,GND*%
X133560000Y-139250000D03*
%TD*%
D22*
%TO.P,D3,1,K*%
%TO.N,Net-(D3-Pad1)*%
X132335000Y-145300000D03*
%TO.P,D3,2,A*%
%TO.N,Net-(D1-Pad1)*%
X132335000Y-143200000D03*
%TD*%
D30*
%TO.P,C30,1*%
%TO.N,Net-(C30-Pad1)*%
X159275000Y-123700000D03*
%TO.P,C30,2*%
%TO.N,GND*%
X157725000Y-123700000D03*
%TD*%
D34*
%TO.P,J2,1,Pin_1*%
%TO.N,GND*%
X146570000Y-73950000D03*
D35*
%TO.P,J2,2,Pin_2*%
%TO.N,/SCL*%
X149110000Y-73950000D03*
%TO.P,J2,3,Pin_3*%
%TO.N,/SDA*%
X151650000Y-73950000D03*
%TO.P,J2,4,Pin_4*%
%TO.N,+3V3*%
X154190000Y-73950000D03*
%TD*%
D25*
%TO.P,R29,1*%
%TO.N,Net-(IC2-Pad23)*%
X172725000Y-105200000D03*
%TO.P,R29,2*%
%TO.N,GND*%
X174375000Y-105200000D03*
%TD*%
%TO.P,R19,1*%
%TO.N,+3V3*%
X157475000Y-110850000D03*
%TO.P,R19,2*%
%TO.N,Net-(R19-Pad2)*%
X159125000Y-110850000D03*
%TD*%
D30*
%TO.P,C28,1*%
%TO.N,Net-(C28-Pad1)*%
X165325000Y-121600000D03*
%TO.P,C28,2*%
%TO.N,Net-(C28-Pad2)*%
X163775000Y-121600000D03*
%TD*%
D25*
%TO.P,R2,1*%
%TO.N,+3V3*%
X141640000Y-71800000D03*
%TO.P,R2,2*%
%TO.N,/SCL*%
X143290000Y-71800000D03*
%TD*%
%TO.P,R25,1*%
%TO.N,Net-(IC1-Pad23)*%
X172725000Y-128350000D03*
%TO.P,R25,2*%
%TO.N,GND*%
X174375000Y-128350000D03*
%TD*%
%TO.P,R36,1*%
%TO.N,/LEDs/R_b*%
X159825000Y-75500000D03*
%TO.P,R36,2*%
%TO.N,Net-(D7-Pad6)*%
X161475000Y-75500000D03*
%TD*%
D48*
%TO.P,U1,1,INT2*%
%TO.N,unconnected-(U1-Pad1)*%
X149250000Y-64835000D03*
%TO.P,U1,2,NC*%
%TO.N,GND*%
X149750000Y-64835000D03*
%TO.P,U1,3,VDD*%
%TO.N,+3V3*%
X150250000Y-64835000D03*
%TO.P,U1,4,GND*%
%TO.N,GND*%
X150750000Y-64835000D03*
%TO.P,U1,5,CSB2*%
%TO.N,unconnected-(U1-Pad5)*%
X151250000Y-64835000D03*
%TO.P,U1,6,GNDIO*%
%TO.N,GND*%
X151750000Y-64835000D03*
%TO.P,U1,7,PS*%
%TO.N,+3V3*%
X152250000Y-64835000D03*
D49*
%TO.P,U1,8,SCK*%
%TO.N,/SCL*%
X152665000Y-66000000D03*
D48*
%TO.P,U1,9,SDI*%
%TO.N,/SDA*%
X152250000Y-67165000D03*
%TO.P,U1,10,SDO2*%
%TO.N,GND*%
X151750000Y-67165000D03*
%TO.P,U1,11,VDDIO*%
%TO.N,+3V3*%
X151250000Y-67165000D03*
%TO.P,U1,12,INT3*%
%TO.N,/INT_GYR*%
X150750000Y-67165000D03*
%TO.P,U1,13,INT4*%
%TO.N,unconnected-(U1-Pad13)*%
X150250000Y-67165000D03*
%TO.P,U1,14,CSB1*%
%TO.N,+3V3*%
X149750000Y-67165000D03*
%TO.P,U1,15,SDO1*%
%TO.N,GND*%
X149250000Y-67165000D03*
D49*
%TO.P,U1,16,INT1*%
%TO.N,/INT_ACC*%
X148835000Y-66000000D03*
%TD*%
D25*
%TO.P,R3,1*%
%TO.N,+3V3*%
X141725000Y-69800000D03*
%TO.P,R3,2*%
%TO.N,/SDA*%
X143375000Y-69800000D03*
%TD*%
%TO.P,R1,1*%
%TO.N,Net-(J3-Pad1)*%
X149260000Y-145250000D03*
%TO.P,R1,2*%
%TO.N,GND*%
X150910000Y-145250000D03*
%TD*%
D12*
%TO.P,C23,1*%
%TO.N,+5V*%
X143135000Y-119700000D03*
%TO.P,C23,2*%
%TO.N,GND*%
X143135000Y-118150000D03*
%TD*%
D26*
%TO.P,H1,1,1*%
%TO.N,GND*%
X125300000Y-144250000D03*
%TD*%
D50*
%TO.P,U10,1,GND*%
%TO.N,GND*%
X133685000Y-114450000D03*
%TO.P,U10,2,VOUT*%
%TO.N,+5V*%
X133685000Y-116750000D03*
%TO.P,U10,3,VIN*%
%TO.N,/Stepper_b/VMM*%
X133685000Y-119050000D03*
D51*
%TO.P,U10,4,VOUT*%
%TO.N,+5V*%
X139985000Y-116750000D03*
%TD*%
D25*
%TO.P,R21,1*%
%TO.N,GND*%
X157625000Y-128000000D03*
%TO.P,R21,2*%
%TO.N,Net-(IC1-Pad13)*%
X159275000Y-128000000D03*
%TD*%
%TO.P,R20,1*%
%TO.N,GND*%
X157625000Y-104850000D03*
%TO.P,R20,2*%
%TO.N,Net-(IC2-Pad13)*%
X159275000Y-104850000D03*
%TD*%
%TO.P,R30,1*%
%TO.N,+3V3*%
X157475000Y-134000000D03*
%TO.P,R30,2*%
%TO.N,Net-(R30-Pad2)*%
X159125000Y-134000000D03*
%TD*%
D52*
%TO.P,U8,1,VIN*%
%TO.N,/Power/+5V_reg*%
X145950000Y-109500000D03*
%TO.P,U8,2,GND*%
%TO.N,GND*%
X145950000Y-110450000D03*
%TO.P,U8,3,EN*%
%TO.N,/Power/+5V_reg*%
X145950000Y-111400000D03*
%TO.P,U8,4,NC*%
%TO.N,unconnected-(U8-Pad4)*%
X148320000Y-111400000D03*
%TO.P,U8,5,VOUT*%
%TO.N,+3V3*%
X148320000Y-109500000D03*
%TD*%
D53*
%TO.P,D8,1,K*%
%TO.N,Net-(D8-Pad1)*%
X130660000Y-99500000D03*
%TO.P,D8,2,A*%
%TO.N,+3V3*%
X129085000Y-99500000D03*
%TD*%
D33*
%TO.P,C24,1*%
%TO.N,/Power/+3V0*%
X145360000Y-118200000D03*
%TO.P,C24,2*%
%TO.N,GND*%
X146910000Y-118200000D03*
%TD*%
D15*
%TO.P,C15,1*%
%TO.N,/TDS/RST*%
X148835000Y-141725000D03*
%TO.P,C15,2*%
%TO.N,GND*%
X148835000Y-143275000D03*
%TD*%
D26*
%TO.P,H3,1,1*%
%TO.N,GND*%
X173950000Y-145300000D03*
%TD*%
D30*
%TO.P,C35,1*%
%TO.N,Net-(C35-Pad1)*%
X159275000Y-100550000D03*
%TO.P,C35,2*%
%TO.N,GND*%
X157725000Y-100550000D03*
%TD*%
D25*
%TO.P,R13,1*%
%TO.N,Net-(D3-Pad1)*%
X149510000Y-135250000D03*
%TO.P,R13,2*%
%TO.N,Net-(C10-Pad1)*%
X151160000Y-135250000D03*
%TD*%
D54*
%TO.P,U5,1*%
%TO.N,Net-(J3-Pad2)*%
X138360000Y-137440000D03*
%TO.P,U5,2,-*%
%TO.N,Net-(R5-Pad2)*%
X138360000Y-138710000D03*
%TO.P,U5,3,+*%
%TO.N,GND*%
X138360000Y-139980000D03*
%TO.P,U5,4,V+*%
%TO.N,/Power/+3V0*%
X138360000Y-141250000D03*
%TO.P,U5,5,+*%
%TO.N,GND*%
X138360000Y-142520000D03*
%TO.P,U5,6,-*%
%TO.N,Net-(D1-Pad2)*%
X138360000Y-143790000D03*
%TO.P,U5,7*%
%TO.N,Net-(D1-Pad1)*%
X138360000Y-145060000D03*
%TO.P,U5,8*%
%TO.N,Net-(R10-Pad1)*%
X143310000Y-145060000D03*
%TO.P,U5,9,-*%
%TO.N,Net-(J3-Pad1)*%
X143310000Y-143790000D03*
%TO.P,U5,10,+*%
%TO.N,GND*%
X143310000Y-142520000D03*
%TO.P,U5,11,V-*%
%TO.N,/TDS/RST*%
X143310000Y-141250000D03*
%TO.P,U5,12,+*%
%TO.N,Net-(R10-Pad2)*%
X143310000Y-139980000D03*
%TO.P,U5,13,-*%
%TO.N,Net-(D2-Pad2)*%
X143310000Y-138710000D03*
%TO.P,U5,14*%
%TO.N,Net-(D2-Pad1)*%
X143310000Y-137440000D03*
%TD*%
D12*
%TO.P,C2,1*%
%TO.N,+3V3*%
X150415000Y-62275000D03*
%TO.P,C2,2*%
%TO.N,GND*%
X150415000Y-60725000D03*
%TD*%
D34*
%TO.P,J13,1,Pin_1*%
%TO.N,/Stepper_b1/REF*%
X170325000Y-113900000D03*
D35*
%TO.P,J13,2,Pin_2*%
%TO.N,GND*%
X172865000Y-113900000D03*
%TD*%
D18*
%TO.P,R26,1*%
%TO.N,Net-(IC2-Pad2)*%
X165375000Y-96550000D03*
%TO.P,R26,2*%
%TO.N,GND*%
X163725000Y-96550000D03*
%TD*%
D15*
%TO.P,C4,1*%
%TO.N,+3V3*%
X159415000Y-67975000D03*
%TO.P,C4,2*%
%TO.N,GND*%
X159415000Y-69525000D03*
%TD*%
D33*
%TO.P,C31,1*%
%TO.N,/Stepper_b/VMM*%
X157775000Y-121650000D03*
%TO.P,C31,2*%
%TO.N,Net-(C31-Pad2)*%
X159325000Y-121650000D03*
%TD*%
D41*
%TO.P,J12,1,Pin_1*%
%TO.N,/Teensy41/Limit_p*%
X178835000Y-115750000D03*
D42*
%TO.P,J12,2,Pin_2*%
%TO.N,GND*%
X178835000Y-113250000D03*
%TD*%
D55*
%TO.P,Q1,1*%
%TO.N,Net-(Q1-Pad1)*%
X138315000Y-109535000D03*
%TO.P,Q1,2*%
%TO.N,VBUS*%
X138315000Y-111365000D03*
%TO.P,Q1,3*%
%TO.N,/Power/+5V_reg*%
X140455000Y-110450000D03*
%TD*%
D15*
%TO.P,C12,1*%
%TO.N,/TDS/RST*%
X146835000Y-141725000D03*
%TO.P,C12,2*%
%TO.N,GND*%
X146835000Y-143275000D03*
%TD*%
D25*
%TO.P,R16,1*%
%TO.N,Net-(R15-Pad2)*%
X129475000Y-114350000D03*
%TO.P,R16,2*%
%TO.N,GND*%
X131125000Y-114350000D03*
%TD*%
D36*
%TO.P,RV2,1,1*%
%TO.N,Net-(R30-Pad2)*%
X163900000Y-136300000D03*
D37*
%TO.P,RV2,2,2*%
%TO.N,/Stepper_b/REF*%
X164900000Y-133050000D03*
D36*
%TO.P,RV2,3,3*%
%TO.N,GND*%
X165900000Y-136300000D03*
%TD*%
D25*
%TO.P,R18,1*%
%TO.N,/Teensy41/BUZZER*%
X132510000Y-63750000D03*
%TO.P,R18,2*%
%TO.N,GND*%
X134160000Y-63750000D03*
%TD*%
D30*
%TO.P,C37,1*%
%TO.N,+3V3*%
X159125000Y-108800000D03*
%TO.P,C37,2*%
%TO.N,GND*%
X157575000Y-108800000D03*
%TD*%
D18*
%TO.P,R34,1*%
%TO.N,Net-(D6-Pad5)*%
X145410000Y-104250000D03*
%TO.P,R34,2*%
%TO.N,/LEDs/G_a*%
X143760000Y-104250000D03*
%TD*%
D15*
%TO.P,C9,1*%
%TO.N,/TDS/RST*%
X150835000Y-141725000D03*
%TO.P,C9,2*%
%TO.N,GND*%
X150835000Y-143275000D03*
%TD*%
D18*
%TO.P,R14,1*%
%TO.N,Net-(C10-Pad1)*%
X151160000Y-133000000D03*
%TO.P,R14,2*%
%TO.N,/TDS*%
X149510000Y-133000000D03*
%TD*%
D12*
%TO.P,C25,1*%
%TO.N,/Stepper_b/VMM*%
X169550000Y-101025000D03*
%TO.P,C25,2*%
%TO.N,GND*%
X169550000Y-99475000D03*
%TD*%
D56*
%TO.P,D7,1,RK*%
%TO.N,GND*%
X169235000Y-69700000D03*
%TO.P,D7,2,GK*%
X169235000Y-68000000D03*
%TO.P,D7,3,BK*%
X169235000Y-66300000D03*
%TO.P,D7,4,BA*%
%TO.N,Net-(D7-Pad4)*%
X164435000Y-66300000D03*
%TO.P,D7,5,GA*%
%TO.N,Net-(D7-Pad5)*%
X164435000Y-68000000D03*
%TO.P,D7,6,RA*%
%TO.N,Net-(D7-Pad6)*%
X164435000Y-69700000D03*
%TD*%
D33*
%TO.P,C18,1*%
%TO.N,/TDS/RST*%
X149585000Y-114160000D03*
%TO.P,C18,2*%
%TO.N,GND*%
X151135000Y-114160000D03*
%TD*%
D57*
%TO.P,U6,1,Q12*%
%TO.N,unconnected-(U6-Pad1)*%
X134390000Y-131475000D03*
%TO.P,U6,2,Q13*%
%TO.N,unconnected-(U6-Pad2)*%
X135660000Y-131475000D03*
%TO.P,U6,3,Q14*%
%TO.N,unconnected-(U6-Pad3)*%
X136930000Y-131475000D03*
%TO.P,U6,4,Q6*%
%TO.N,unconnected-(U6-Pad4)*%
X138200000Y-131475000D03*
%TO.P,U6,5,Q5*%
%TO.N,unconnected-(U6-Pad5)*%
X139470000Y-131475000D03*
%TO.P,U6,6,Q7*%
%TO.N,unconnected-(U6-Pad6)*%
X140740000Y-131475000D03*
%TO.P,U6,7,Q4*%
%TO.N,Net-(R6-Pad2)*%
X142010000Y-131475000D03*
%TO.P,U6,8,GND*%
%TO.N,/TDS/RST*%
X143280000Y-131475000D03*
%TO.P,U6,9,EN1*%
%TO.N,Net-(C7-Pad2)*%
X143280000Y-126525000D03*
%TO.P,U6,10,EN2*%
%TO.N,Net-(R7-Pad2)*%
X142010000Y-126525000D03*
%TO.P,U6,11,EN3*%
%TO.N,Net-(R8-Pad2)*%
X140740000Y-126525000D03*
%TO.P,U6,12,RESET*%
%TO.N,/TDS/RST*%
X139470000Y-126525000D03*
%TO.P,U6,13,Q9*%
%TO.N,unconnected-(U6-Pad13)*%
X138200000Y-126525000D03*
%TO.P,U6,14,Q8*%
%TO.N,unconnected-(U6-Pad14)*%
X136930000Y-126525000D03*
%TO.P,U6,15,Q10*%
%TO.N,unconnected-(U6-Pad15)*%
X135660000Y-126525000D03*
%TO.P,U6,16,VCC*%
%TO.N,/Power/+3V0*%
X134390000Y-126525000D03*
%TD*%
D56*
%TO.P,D6,1,RK*%
%TO.N,GND*%
X152985000Y-105950000D03*
%TO.P,D6,2,GK*%
X152985000Y-104250000D03*
%TO.P,D6,3,BK*%
X152985000Y-102550000D03*
%TO.P,D6,4,BA*%
%TO.N,Net-(D6-Pad4)*%
X148185000Y-102550000D03*
%TO.P,D6,5,GA*%
%TO.N,Net-(D6-Pad5)*%
X148185000Y-104250000D03*
%TO.P,D6,6,RA*%
%TO.N,Net-(D6-Pad6)*%
X148185000Y-105950000D03*
%TD*%
D34*
%TO.P,J14,1,Pin_1*%
%TO.N,/Stepper_b/REF*%
X170325000Y-137050000D03*
D35*
%TO.P,J14,2,Pin_2*%
%TO.N,GND*%
X172865000Y-137050000D03*
%TD*%
D13*
%TO.P,J6,1,Pin_1*%
%TO.N,/Stepper_b/1B_b*%
X178750000Y-130000000D03*
D14*
%TO.P,J6,2,Pin_2*%
%TO.N,/Stepper_b/1A_b*%
X178750000Y-127500000D03*
%TO.P,J6,3,Pin_3*%
%TO.N,/Stepper_b/2A_b*%
X178750000Y-125000000D03*
%TO.P,J6,4,Pin_4*%
%TO.N,/Stepper_b/2B_b*%
X178750000Y-122500000D03*
%TD*%
D58*
%TO.N,GND*%
X175500000Y-122900000D03*
D59*
X165385000Y-103100000D03*
X164500000Y-102010000D03*
D58*
X144250000Y-114950000D03*
X151250000Y-59350000D03*
D59*
X164330000Y-104140000D03*
X171700000Y-69750000D03*
X166470000Y-104190000D03*
D58*
X161850000Y-120650000D03*
X141430000Y-142520000D03*
X156025000Y-69525000D03*
X175300000Y-106300000D03*
X131085000Y-116215000D03*
X154100000Y-131400000D03*
X146250000Y-67200000D03*
X148000000Y-119250000D03*
X158325000Y-69525000D03*
D59*
X166550000Y-127250000D03*
D58*
X134200000Y-62200000D03*
X175750000Y-129700000D03*
D59*
X164400000Y-103130000D03*
D58*
X143950000Y-67250000D03*
X145430000Y-142520000D03*
X147300000Y-128850000D03*
D59*
X165420000Y-102050000D03*
X165390000Y-125140000D03*
D58*
X156237500Y-110137500D03*
X148100000Y-64500000D03*
X139150000Y-68550000D03*
X178400000Y-96100000D03*
X175350000Y-99850000D03*
X155300000Y-65600000D03*
X135900000Y-102600000D03*
X134250000Y-111350000D03*
D59*
X164310000Y-127240000D03*
D58*
X152200000Y-122750000D03*
X132500000Y-123400000D03*
X161750000Y-96950000D03*
D59*
X166470000Y-103110000D03*
D58*
X136650000Y-140000000D03*
X151500000Y-112550000D03*
D59*
X165385000Y-127205000D03*
D58*
X151650000Y-118870000D03*
X144000000Y-108250000D03*
X132000000Y-140100000D03*
D59*
X166400000Y-102050000D03*
D58*
X149450000Y-68700000D03*
X148600000Y-113000000D03*
X154750000Y-100300000D03*
X158500000Y-99500000D03*
D59*
X166550000Y-125130000D03*
X164300000Y-126240000D03*
D58*
X155950000Y-106050000D03*
D59*
X164350000Y-125170000D03*
X165385000Y-126250000D03*
X166530000Y-126210000D03*
D58*
X144050000Y-59200000D03*
X167100000Y-139200000D03*
D59*
X165385000Y-104135000D03*
D58*
%TO.N,+3V3*%
X150428256Y-69263771D03*
X156800000Y-112300000D03*
X156350000Y-107300000D03*
X151950000Y-68300000D03*
X156100000Y-130750000D03*
X144165000Y-63485000D03*
X158200000Y-67450000D03*
X148350000Y-108000000D03*
X148900000Y-62550000D03*
X159850000Y-65850000D03*
X126850000Y-98450000D03*
X146350000Y-66050000D03*
X155600000Y-134000000D03*
X142500000Y-73450000D03*
%TO.N,/TDS*%
X146850000Y-100300000D03*
X151780000Y-126390000D03*
X153180000Y-133700000D03*
X146835000Y-123415000D03*
%TO.N,/Stepper_b/VMM*%
X173000000Y-96650000D03*
D59*
X171200000Y-105800000D03*
X157350000Y-120400000D03*
X170775000Y-123625000D03*
D58*
X167775489Y-118274511D03*
D59*
X171550000Y-122850000D03*
X171200000Y-128950000D03*
X170775000Y-100475000D03*
D58*
X167775489Y-117074511D03*
%TO.N,+5V*%
X142700000Y-98650000D03*
X141950000Y-107500000D03*
%TO.N,Net-(D3-Pad1)*%
X146725000Y-135125000D03*
X130100000Y-139550000D03*
%TO.N,/Stepper_b/MS1_b*%
X159050000Y-125000000D03*
%TO.N,/Stepper_b/MS2_b*%
X150000000Y-123850000D03*
%TO.N,/Stepper_b/MS3_b*%
X157800000Y-126050989D03*
%TO.N,/Stepper_b/RST_b*%
X156024511Y-126775489D03*
X163850000Y-115000000D03*
%TO.N,/Stepper_b/SLP_b*%
X160350000Y-130750000D03*
X163450000Y-108100000D03*
%TO.N,/Stepper_b/STEP_b*%
X163800000Y-131100000D03*
X153250000Y-108800000D03*
%TO.N,/Stepper_b/DIR_b*%
X159850000Y-98500000D03*
X162050000Y-100750000D03*
X165750000Y-130950000D03*
%TO.N,/SDA*%
X162000000Y-67350000D03*
X145150000Y-68700000D03*
X156050000Y-71050000D03*
%TO.N,/SCL*%
X151300000Y-70150000D03*
X154400000Y-66100000D03*
X142655000Y-67495000D03*
%TO.N,Net-(J3-Pad1)*%
X141000000Y-143700000D03*
%TO.N,/CS_VD*%
X144200000Y-90550000D03*
X135500000Y-76350000D03*
%TO.N,/MOSI*%
X145050000Y-85300000D03*
%TO.N,/MISO*%
X145100000Y-83700000D03*
X140950000Y-74300000D03*
%TO.N,VBUS*%
X122350000Y-85600000D03*
X131600000Y-110200000D03*
X127000000Y-105500000D03*
%TO.N,Net-(R6-Pad2)*%
X131650000Y-137250000D03*
X141400000Y-134400000D03*
%TO.N,/V_DIV*%
X128590000Y-104990000D03*
%TO.N,/LEDs/R_b*%
X157800000Y-75950000D03*
%TO.N,/LEDs/G_b*%
X157750000Y-74750000D03*
%TO.N,/LEDs/B_b*%
X153900000Y-76350000D03*
%TO.N,/INT_ACC*%
X156650000Y-72950000D03*
%TO.N,/INT_GYR*%
X157299885Y-71783285D03*
%TO.N,/INT_MAG*%
X160550000Y-66900000D03*
X166150000Y-64450000D03*
%TO.N,/INT_BAR*%
X146250000Y-63750000D03*
X153800000Y-63700000D03*
%TO.N,/Stepper_b1/MS1_b*%
X156750000Y-101700000D03*
%TO.N,/Stepper_b1/MS2_b*%
X155950000Y-102700000D03*
%TO.N,/Stepper_b1/MS3_b*%
X158114554Y-103415387D03*
%TO.N,/Stepper_b1/RST_b*%
X160650000Y-103850000D03*
%TO.N,/Stepper_b1/SLP_b*%
X160750000Y-107750000D03*
%TO.N,/Stepper_b1/STEP_b*%
X162200000Y-106450000D03*
X164150000Y-107350000D03*
%TO.N,/Stepper_b1/DIR_b*%
X166000000Y-108150000D03*
%TO.N,/LEDs/SIGNAL*%
X132100000Y-100500000D03*
%TD*%
D60*
%TO.N,/V_DIV*%
X128210000Y-109610000D02*
X128500000Y-109900000D01*
X128210000Y-105370000D02*
X128210000Y-109610000D01*
X128590000Y-104990000D02*
X128210000Y-105370000D01*
X128500000Y-109900000D02*
X128500000Y-109925000D01*
%TO.N,/TDS/RST*%
X151170000Y-122450000D02*
X155140000Y-118480000D01*
X155140000Y-118480000D02*
X155140000Y-115700000D01*
X146250000Y-122450000D02*
X151170000Y-122450000D01*
X154725000Y-115285000D02*
X149455000Y-115285000D01*
X144900000Y-128650000D02*
X144900000Y-123800000D01*
X143600000Y-129950000D02*
X144900000Y-128650000D01*
X144900000Y-123800000D02*
X146250000Y-122450000D01*
X143200000Y-129950000D02*
X143600000Y-129950000D01*
X155140000Y-115700000D02*
X154725000Y-115285000D01*
%TO.N,/Power/+3V0*%
X145900000Y-117000000D02*
X145485000Y-116585000D01*
X149455000Y-117000000D02*
X145900000Y-117000000D01*
%TO.N,/LEDs/R_a*%
X141157520Y-103490000D02*
X129790000Y-103490000D01*
X143667520Y-106000000D02*
X141157520Y-103490000D01*
X143760000Y-106000000D02*
X143667520Y-106000000D01*
D61*
%TO.N,/Power/+5V_reg*%
X141985000Y-109287191D02*
X141985000Y-111225000D01*
X142876520Y-108395671D02*
X141985000Y-109287191D01*
X140650000Y-104480000D02*
X142876520Y-106706520D01*
X132960000Y-104480000D02*
X140650000Y-104480000D01*
X131250000Y-106190000D02*
X132960000Y-104480000D01*
X142876520Y-106706520D02*
X142876520Y-108395671D01*
D60*
%TO.N,Net-(D3-Pad1)*%
X146850000Y-135250000D02*
X146725000Y-135125000D01*
X149510000Y-135250000D02*
X146850000Y-135250000D01*
X146835000Y-135015000D02*
X146725000Y-135125000D01*
X146835000Y-133050000D02*
X146835000Y-135015000D01*
%TO.N,Net-(D2-Pad1)*%
X145450000Y-132335000D02*
X146835000Y-130950000D01*
D61*
%TO.N,+5V*%
X138600000Y-106190000D02*
X139910000Y-107500000D01*
X135550000Y-106190000D02*
X138600000Y-106190000D01*
D60*
%TO.N,/LEDs/R_a*%
X123665000Y-97365000D02*
X129790000Y-103490000D01*
X123665000Y-93870000D02*
X123665000Y-97365000D01*
%TO.N,/Teensy41/BUZZER*%
X151605000Y-78630000D02*
X149425000Y-76450000D01*
X130800000Y-70250000D02*
X128985000Y-70250000D01*
X128985000Y-70250000D02*
X128985000Y-67275000D01*
X128985000Y-67275000D02*
X132510000Y-63750000D01*
X137000000Y-76450000D02*
X130800000Y-70250000D01*
X149425000Y-76450000D02*
X137000000Y-76450000D01*
D62*
%TO.N,GND*%
X156152500Y-65250000D02*
X156614022Y-65250000D01*
D60*
X143135000Y-109115000D02*
X144000000Y-108250000D01*
X151425000Y-59525000D02*
X151250000Y-59350000D01*
D62*
X150570489Y-65429511D02*
X150750000Y-65250000D01*
D60*
X146910000Y-118200000D02*
X146950000Y-118200000D01*
X146080000Y-142520000D02*
X145430000Y-142520000D01*
X133685000Y-114450000D02*
X131225000Y-114450000D01*
X148600000Y-113000000D02*
X148700000Y-113000000D01*
X146835000Y-128385000D02*
X147300000Y-128850000D01*
X165980000Y-101090000D02*
X165980000Y-102505000D01*
X144165000Y-60725000D02*
X144165000Y-59315000D01*
X146100000Y-67200000D02*
X146250000Y-67200000D01*
X174375000Y-124025000D02*
X175500000Y-122900000D01*
D62*
X157674511Y-65275489D02*
X156741467Y-65275489D01*
X149750000Y-65404022D02*
X149775489Y-65429511D01*
D60*
X157625000Y-104850000D02*
X157150000Y-104850000D01*
X153450000Y-130750000D02*
X154100000Y-131400000D01*
X171950000Y-116250000D02*
X172865000Y-115335000D01*
X165900000Y-136300000D02*
X165900000Y-138000000D01*
X157725000Y-100275000D02*
X158500000Y-99500000D01*
D62*
X146950000Y-61510000D02*
X146165000Y-60725000D01*
D60*
X156152500Y-65750000D02*
X155450000Y-65750000D01*
D62*
X144665000Y-64057257D02*
X145697737Y-63024520D01*
D60*
X135197500Y-101897500D02*
X135900000Y-102600000D01*
X138360000Y-139980000D02*
X136670000Y-139980000D01*
X155750000Y-123725000D02*
X154725000Y-122700000D01*
X144750000Y-114450000D02*
X146135000Y-114450000D01*
X131085000Y-114390000D02*
X131125000Y-114350000D01*
X147150000Y-114450000D02*
X148600000Y-113000000D01*
X158325000Y-69525000D02*
X159415000Y-69525000D01*
X174875000Y-106725000D02*
X175300000Y-106300000D01*
X131085000Y-117950000D02*
X131085000Y-116215000D01*
X133560000Y-141250000D02*
X133560000Y-139250000D01*
D62*
X144665000Y-64735000D02*
X144665000Y-64057257D01*
D60*
X150335000Y-110450000D02*
X150335000Y-111365000D01*
X165709022Y-101800000D02*
X165885000Y-101624022D01*
X162800000Y-119700000D02*
X161850000Y-120650000D01*
D62*
X146950000Y-62725480D02*
X146950000Y-61510000D01*
D60*
X134260000Y-109450000D02*
X134250000Y-111350000D01*
X131225000Y-114450000D02*
X131125000Y-114350000D01*
D62*
X175575000Y-129875000D02*
X175750000Y-129700000D01*
D60*
X151135000Y-111250000D02*
X151135000Y-112185000D01*
X154100000Y-122700000D02*
X152250000Y-122700000D01*
X156237500Y-110137500D02*
X157575000Y-108800000D01*
X146135000Y-114450000D02*
X147150000Y-114450000D01*
X157150000Y-104850000D02*
X155950000Y-106050000D01*
D62*
X169500000Y-129875000D02*
X175575000Y-129875000D01*
X144665000Y-64735000D02*
X145165000Y-64735000D01*
D60*
X174375000Y-128350000D02*
X174400000Y-128350000D01*
X144165000Y-59315000D02*
X144050000Y-59200000D01*
X152250000Y-122700000D02*
X152200000Y-122750000D01*
D62*
X157677500Y-65250000D02*
X157677500Y-65272500D01*
D60*
X148100000Y-64500000D02*
X148800000Y-63800000D01*
X131085000Y-116215000D02*
X131085000Y-114390000D01*
X157725000Y-123700000D02*
X155775000Y-123700000D01*
D62*
X157677500Y-65272500D02*
X157674511Y-65275489D01*
X151750000Y-64835000D02*
X151750000Y-65750000D01*
X169550000Y-122625000D02*
X170225480Y-121949520D01*
D60*
X136670000Y-139980000D02*
X136650000Y-140000000D01*
D62*
X150750000Y-65250000D02*
X150750000Y-64835000D01*
X156741467Y-65275489D02*
X156665000Y-65199022D01*
D60*
X165885000Y-123900000D02*
X165885000Y-125750000D01*
D62*
X150570489Y-65429511D02*
X151429511Y-65429511D01*
D60*
X154100000Y-131100000D02*
X154100000Y-131400000D01*
X165885000Y-125750000D02*
X165385000Y-126250000D01*
X152985000Y-102550000D02*
X152985000Y-102065000D01*
X150910000Y-145250000D02*
X150910000Y-143350000D01*
X157725000Y-100550000D02*
X157725000Y-100275000D01*
X143135000Y-115225000D02*
X143975000Y-115225000D01*
X165385000Y-128600000D02*
X165385000Y-127465000D01*
X149750000Y-64215978D02*
X149750000Y-64835000D01*
X145950000Y-110450000D02*
X150335000Y-110450000D01*
X165385000Y-103165000D02*
X165385000Y-104135000D01*
X165385000Y-104365000D02*
X165385000Y-105450000D01*
X177850000Y-96650000D02*
X178400000Y-96100000D01*
D62*
X151750000Y-65750000D02*
X151750000Y-67165000D01*
D60*
X149334022Y-63800000D02*
X149750000Y-64215978D01*
X151425000Y-60725000D02*
X151425000Y-59525000D01*
X157625000Y-128000000D02*
X157200000Y-128000000D01*
X144250000Y-114950000D02*
X144750000Y-114450000D01*
X146835000Y-143275000D02*
X146080000Y-142520000D01*
X156025000Y-69525000D02*
X157165000Y-69525000D01*
X134160000Y-63750000D02*
X134160000Y-62240000D01*
X165885000Y-100995000D02*
X165980000Y-101090000D01*
X137685000Y-70015000D02*
X139150000Y-68550000D01*
X133700000Y-122200000D02*
X132500000Y-123400000D01*
X146785000Y-114815000D02*
X147150000Y-114450000D01*
X152985000Y-105950000D02*
X152985000Y-104250000D01*
X165400000Y-101800000D02*
X165709022Y-101800000D01*
X146165000Y-60725000D02*
X144165000Y-60725000D01*
X163325000Y-96950000D02*
X161750000Y-96950000D01*
X157200000Y-128000000D02*
X154100000Y-131100000D01*
X150335000Y-110450000D02*
X151135000Y-111250000D01*
X174375000Y-105375000D02*
X175300000Y-106300000D01*
D62*
X171650000Y-69700000D02*
X171700000Y-69750000D01*
D60*
X165885000Y-100750000D02*
X165885000Y-100995000D01*
X154725000Y-122700000D02*
X154100000Y-122700000D01*
X149835000Y-127525000D02*
X149835000Y-129475000D01*
X143975000Y-115225000D02*
X144250000Y-114950000D01*
D62*
X156614022Y-65250000D02*
X156665000Y-65199022D01*
D60*
X152985000Y-102065000D02*
X154750000Y-100300000D01*
X150335000Y-111365000D02*
X148600000Y-113000000D01*
D62*
X169550000Y-99475000D02*
X172900000Y-99475000D01*
D60*
X152985000Y-102550000D02*
X152985000Y-104250000D01*
X138360000Y-142520000D02*
X141430000Y-142520000D01*
D62*
X169235000Y-66300000D02*
X169235000Y-68000000D01*
D60*
X151945000Y-117950000D02*
X151945000Y-118575000D01*
X163725000Y-119700000D02*
X162800000Y-119700000D01*
X151425000Y-60725000D02*
X152415000Y-60725000D01*
X163725000Y-96550000D02*
X163600000Y-96550000D01*
D62*
X151429511Y-65429511D02*
X151750000Y-65750000D01*
D60*
X134160000Y-62240000D02*
X134200000Y-62200000D01*
D62*
X170225480Y-121949520D02*
X174549520Y-121949520D01*
D60*
X151135000Y-114160000D02*
X151135000Y-112915000D01*
X169500000Y-106725000D02*
X174875000Y-106725000D01*
X144165000Y-66265000D02*
X144165000Y-67035000D01*
X134250000Y-111350000D02*
X134260000Y-111340000D01*
X174400000Y-128350000D02*
X175750000Y-129700000D01*
X174375000Y-100825000D02*
X175350000Y-99850000D01*
X143135000Y-109675000D02*
X143135000Y-109115000D01*
X151945000Y-118575000D02*
X151650000Y-118870000D01*
X151945000Y-117000000D02*
X151945000Y-117950000D01*
X150415000Y-60725000D02*
X151425000Y-60725000D01*
X174375000Y-105200000D02*
X174375000Y-105375000D01*
X146785000Y-115445000D02*
X146785000Y-114815000D01*
X156152500Y-65250000D02*
X156152500Y-65750000D01*
X135197500Y-101500000D02*
X135197500Y-101897500D01*
X144165000Y-67035000D02*
X143950000Y-67250000D01*
D62*
X172900000Y-99475000D02*
X174375000Y-100950000D01*
X169235000Y-69700000D02*
X171650000Y-69700000D01*
D60*
X165385000Y-127465000D02*
X165385000Y-127205000D01*
X165385000Y-127205000D02*
X165385000Y-126250000D01*
X163725000Y-96550000D02*
X163325000Y-96950000D01*
X157165000Y-69525000D02*
X158325000Y-69525000D01*
X148800000Y-63800000D02*
X149334022Y-63800000D01*
X175475000Y-96650000D02*
X177850000Y-96650000D01*
X157575000Y-131950000D02*
X154650000Y-131950000D01*
X145165000Y-66265000D02*
X146100000Y-67200000D01*
X133560000Y-139250000D02*
X132850000Y-139250000D01*
X146835000Y-143275000D02*
X148835000Y-143275000D01*
D62*
X149750000Y-64835000D02*
X149750000Y-65404022D01*
D60*
X149835000Y-129475000D02*
X151110000Y-130750000D01*
X151135000Y-112915000D02*
X151500000Y-112550000D01*
X155450000Y-65750000D02*
X155300000Y-65600000D01*
X145430000Y-142520000D02*
X143310000Y-142520000D01*
X151110000Y-130750000D02*
X153450000Y-130750000D01*
X149250000Y-67165000D02*
X149250000Y-68500000D01*
D62*
X149775489Y-65429511D02*
X150570489Y-65429511D01*
D60*
X150910000Y-143350000D02*
X150835000Y-143275000D01*
D62*
X156665000Y-65199022D02*
X156665000Y-64737500D01*
D60*
X174375000Y-100950000D02*
X174375000Y-100825000D01*
X146835000Y-127800000D02*
X146835000Y-128385000D01*
X154650000Y-131950000D02*
X154100000Y-131400000D01*
X154915000Y-69525000D02*
X156025000Y-69525000D01*
D62*
X143135000Y-118150000D02*
X143135000Y-115225000D01*
X145697737Y-63024520D02*
X146650960Y-63024520D01*
D60*
X149250000Y-68500000D02*
X149450000Y-68700000D01*
X165385000Y-104135000D02*
X165385000Y-104365000D01*
X165900000Y-138000000D02*
X167100000Y-139200000D01*
X135197500Y-99500000D02*
X135197500Y-101500000D01*
X151135000Y-112185000D02*
X151500000Y-112550000D01*
D62*
X169235000Y-69700000D02*
X169235000Y-68000000D01*
D60*
X165385000Y-103100000D02*
X165385000Y-103165000D01*
X155775000Y-123700000D02*
X155750000Y-123725000D01*
X165900000Y-113150000D02*
X169000000Y-116250000D01*
X174375000Y-124100000D02*
X174375000Y-124025000D01*
X134335000Y-122200000D02*
X133700000Y-122200000D01*
X146950000Y-118200000D02*
X148000000Y-119250000D01*
X172865000Y-115335000D02*
X172865000Y-113900000D01*
X165980000Y-102505000D02*
X165385000Y-103100000D01*
X150835000Y-143275000D02*
X148835000Y-143275000D01*
X137685000Y-70250000D02*
X137685000Y-70015000D01*
D62*
X174549520Y-121949520D02*
X175500000Y-122900000D01*
X146650960Y-63024520D02*
X146950000Y-62725480D01*
D60*
X169000000Y-116250000D02*
X171950000Y-116250000D01*
X132850000Y-139250000D02*
X132000000Y-140100000D01*
X141430000Y-142520000D02*
X143310000Y-142520000D01*
%TO.N,+3V3*%
X148320000Y-109500000D02*
X148320000Y-108030000D01*
X144165000Y-63485000D02*
X144165000Y-64735000D01*
X152250000Y-62440000D02*
X152415000Y-62275000D01*
X141640000Y-72590000D02*
X142500000Y-73450000D01*
X163885000Y-106215000D02*
X163885000Y-105450000D01*
X159125000Y-108800000D02*
X161300000Y-108800000D01*
X149750000Y-67165000D02*
X149750000Y-67784022D01*
X158175000Y-67975000D02*
X157165000Y-67975000D01*
X157475000Y-111625000D02*
X156800000Y-112300000D01*
X157475000Y-110850000D02*
X157475000Y-110450000D01*
D63*
X150935000Y-109500000D02*
X151135000Y-109700000D01*
D60*
X150140000Y-62550000D02*
X148900000Y-62550000D01*
X157575000Y-106750000D02*
X156900000Y-106750000D01*
D62*
X159125000Y-131950000D02*
X159125000Y-131450000D01*
D60*
X152250000Y-64835000D02*
X152250000Y-62440000D01*
X157575000Y-106750000D02*
X157575000Y-107250000D01*
X158400000Y-64750000D02*
X159500000Y-65850000D01*
X158175000Y-67975000D02*
X158175000Y-67475000D01*
D62*
X157475000Y-134000000D02*
X155600000Y-134000000D01*
D60*
X156950000Y-129900000D02*
X156100000Y-130750000D01*
X159125000Y-131950000D02*
X161300000Y-131950000D01*
X151565978Y-68100000D02*
X151750000Y-68100000D01*
D62*
X157475000Y-133600000D02*
X159125000Y-131950000D01*
X146050000Y-65750000D02*
X146350000Y-66050000D01*
D60*
X148320000Y-108030000D02*
X148350000Y-108000000D01*
X156665000Y-66262500D02*
X157165000Y-66262500D01*
X144165000Y-62275000D02*
X146165000Y-62275000D01*
X129085000Y-99500000D02*
X127900000Y-99500000D01*
X150250000Y-64835000D02*
X150250000Y-62440000D01*
X144165000Y-62275000D02*
X144165000Y-63485000D01*
X150415000Y-62275000D02*
X152415000Y-62275000D01*
X161300000Y-108800000D02*
X163885000Y-106215000D01*
D63*
X148320000Y-109500000D02*
X150935000Y-109500000D01*
D60*
X157677500Y-64750000D02*
X158400000Y-64750000D01*
X163885000Y-129365000D02*
X163885000Y-128600000D01*
D62*
X159125000Y-131450000D02*
X157575000Y-129900000D01*
D60*
X151750000Y-68100000D02*
X151950000Y-68300000D01*
X157575000Y-129900000D02*
X156950000Y-129900000D01*
X141640000Y-71800000D02*
X141640000Y-72590000D01*
D62*
X145430000Y-65750000D02*
X146050000Y-65750000D01*
D60*
X157475000Y-110450000D02*
X159125000Y-108800000D01*
X156900000Y-106750000D02*
X156350000Y-107300000D01*
X157475000Y-110850000D02*
X157475000Y-111625000D01*
X161300000Y-131950000D02*
X163885000Y-129365000D01*
X149750000Y-67784022D02*
X150450000Y-68484022D01*
X157165000Y-67975000D02*
X157165000Y-66262500D01*
X127900000Y-99500000D02*
X126850000Y-98450000D01*
X141725000Y-69800000D02*
X141725000Y-71715000D01*
X159415000Y-67975000D02*
X158175000Y-67975000D01*
X151250000Y-67165000D02*
X151250000Y-67784022D01*
X158175000Y-67475000D02*
X158200000Y-67450000D01*
X150450000Y-68484022D02*
X150428256Y-69263771D01*
X157575000Y-107250000D02*
X159125000Y-108800000D01*
X150415000Y-62275000D02*
X150140000Y-62550000D01*
X151250000Y-67784022D02*
X151565978Y-68100000D01*
D62*
X143900000Y-65000000D02*
X144165000Y-64735000D01*
D60*
X150250000Y-62440000D02*
X150415000Y-62275000D01*
D62*
X143900000Y-65250000D02*
X143900000Y-65000000D01*
D60*
X141725000Y-71715000D02*
X141640000Y-71800000D01*
X159500000Y-65850000D02*
X159850000Y-65850000D01*
X150428256Y-69263771D02*
X150450000Y-69250000D01*
D62*
X157475000Y-134000000D02*
X157475000Y-133600000D01*
D60*
%TO.N,Net-(C3-Pad1)*%
X156152500Y-66737500D02*
X154915000Y-67975000D01*
X156152500Y-66250000D02*
X156152500Y-66737500D01*
%TO.N,Net-(C7-Pad1)*%
X139335000Y-122175000D02*
X141335000Y-122175000D01*
X143285000Y-122175000D02*
X143335000Y-122225000D01*
X141335000Y-122175000D02*
X143285000Y-122175000D01*
%TO.N,Net-(C7-Pad2)*%
X143335000Y-123775000D02*
X143335000Y-126470000D01*
X143335000Y-126470000D02*
X143280000Y-126525000D01*
D63*
%TO.N,/Power/+3V0*%
X143113915Y-121150000D02*
X138200000Y-121150000D01*
X132575000Y-126525000D02*
X134390000Y-126525000D01*
D60*
X138360000Y-141250000D02*
X135110000Y-141250000D01*
D63*
X134390000Y-123805000D02*
X134335000Y-123750000D01*
X145360000Y-118200000D02*
X145360000Y-118903915D01*
X134385000Y-123800000D02*
X134335000Y-123750000D01*
X135550000Y-123800000D02*
X134385000Y-123800000D01*
X145485000Y-116585000D02*
X145485000Y-118075000D01*
X138360000Y-141250000D02*
X138986114Y-141250000D01*
D60*
X135110000Y-139250000D02*
X135110000Y-141250000D01*
D63*
X134390000Y-126525000D02*
X134390000Y-123805000D01*
X137550000Y-133350000D02*
X133050000Y-133350000D01*
X140050000Y-140186114D02*
X140050000Y-135850000D01*
X145485000Y-115445000D02*
X145485000Y-116585000D01*
X131000000Y-131300000D02*
X131000000Y-128100000D01*
X145360000Y-118903915D02*
X143113915Y-121150000D01*
X133050000Y-133350000D02*
X131000000Y-131300000D01*
X138200000Y-121150000D02*
X135550000Y-123800000D01*
X145485000Y-118075000D02*
X145360000Y-118200000D01*
X138986114Y-141250000D02*
X140050000Y-140186114D01*
X140050000Y-135850000D02*
X137550000Y-133350000D01*
X131000000Y-128100000D02*
X132575000Y-126525000D01*
D60*
%TO.N,/TDS/RST*%
X149455000Y-114290000D02*
X149585000Y-114160000D01*
X141700000Y-141250000D02*
X140900000Y-140450000D01*
X143310000Y-141250000D02*
X146360000Y-141250000D01*
X142150000Y-128900000D02*
X143200000Y-129950000D01*
X146835000Y-141725000D02*
X148835000Y-141725000D01*
X139470000Y-126974337D02*
X141395663Y-128900000D01*
X141395663Y-128900000D02*
X142150000Y-128900000D01*
X140900000Y-140450000D02*
X140900000Y-136150000D01*
X146360000Y-141250000D02*
X146835000Y-141725000D01*
X140900000Y-136150000D02*
X143280000Y-133770000D01*
X143310000Y-141250000D02*
X141700000Y-141250000D01*
X143280000Y-130030000D02*
X143280000Y-131475000D01*
X149455000Y-116050000D02*
X149455000Y-115285000D01*
X149455000Y-115285000D02*
X149455000Y-114290000D01*
X148835000Y-141725000D02*
X150835000Y-141725000D01*
X139470000Y-126525000D02*
X139470000Y-126974337D01*
X143280000Y-133770000D02*
X143280000Y-131475000D01*
X143200000Y-129950000D02*
X143280000Y-130030000D01*
%TO.N,Net-(C10-Pad1)*%
X151160000Y-135250000D02*
X151160000Y-133000000D01*
X151160000Y-132350000D02*
X149560000Y-130750000D01*
X151160000Y-133000000D02*
X151160000Y-132350000D01*
%TO.N,/TDS*%
X145546489Y-89196489D02*
X143985000Y-87635000D01*
X149835000Y-125975000D02*
X151365000Y-125975000D01*
X155330000Y-143485000D02*
X153180000Y-141335000D01*
X145546489Y-98996489D02*
X145546489Y-89196489D01*
X149560000Y-125700000D02*
X149835000Y-125975000D01*
X146850000Y-100300000D02*
X145546489Y-98996489D01*
X151365000Y-125975000D02*
X151780000Y-126390000D01*
X148600000Y-127210000D02*
X149835000Y-125975000D01*
X143985000Y-87635000D02*
X143985000Y-78630000D01*
X149510000Y-133000000D02*
X148600000Y-132090000D01*
X146835000Y-125700000D02*
X146835000Y-123415000D01*
X146835000Y-123415000D02*
X146850000Y-123400000D01*
X148600000Y-132090000D02*
X148600000Y-127210000D01*
X146835000Y-125700000D02*
X149560000Y-125700000D01*
X153180000Y-141335000D02*
X153180000Y-133700000D01*
%TO.N,Net-(C16-Pad1)*%
X153985000Y-116050000D02*
X154070000Y-116135000D01*
X151945000Y-116050000D02*
X153985000Y-116050000D01*
%TO.N,Net-(C16-Pad2)*%
X154070000Y-117685000D02*
X152135000Y-119620000D01*
X152135000Y-119620000D02*
X151125000Y-119620000D01*
X151125000Y-119620000D02*
X149455000Y-117950000D01*
D61*
%TO.N,/Power/+5V_reg*%
X145408589Y-112458589D02*
X145408589Y-112815000D01*
X140455000Y-110450000D02*
X141230000Y-111225000D01*
X144350000Y-111400000D02*
X145950000Y-111400000D01*
D63*
X146785000Y-112969028D02*
X146274561Y-112458589D01*
X146785000Y-113455000D02*
X146785000Y-112969028D01*
X146274561Y-112458589D02*
X145408589Y-112458589D01*
D61*
X141230000Y-111225000D02*
X143135000Y-111225000D01*
D63*
X145485000Y-113455000D02*
X145485000Y-112815000D01*
D61*
X143135000Y-113675000D02*
X143135000Y-111225000D01*
X143310000Y-111400000D02*
X144350000Y-111400000D01*
X143135000Y-111225000D02*
X143310000Y-111400000D01*
X145950000Y-109500000D02*
X145112298Y-109500000D01*
X144350000Y-110262298D02*
X144350000Y-111400000D01*
X145112298Y-109500000D02*
X144350000Y-110262298D01*
X144350000Y-111400000D02*
X145408589Y-112458589D01*
D60*
%TO.N,/Stepper_b/VMM*%
X167735000Y-127750000D02*
X167850000Y-127750000D01*
X167735000Y-101515000D02*
X168150000Y-101100000D01*
D61*
X155750000Y-122175000D02*
X155750000Y-120600000D01*
D64*
X133235000Y-119500000D02*
X131085000Y-119500000D01*
X169550000Y-101025000D02*
X170225000Y-101025000D01*
X169550000Y-124175000D02*
X170225000Y-124175000D01*
D65*
X129403318Y-119465000D02*
X130037838Y-120099520D01*
X160224520Y-117525480D02*
X157350000Y-120400000D01*
D60*
X167735000Y-104600000D02*
X167850000Y-104600000D01*
D61*
X168225000Y-101025000D02*
X168150000Y-101100000D01*
D65*
X130037838Y-120099520D02*
X132784991Y-120099520D01*
X132784991Y-120099520D02*
X133685000Y-119199511D01*
D61*
X155750000Y-122175000D02*
X157250000Y-122175000D01*
D64*
X125975000Y-114350000D02*
X125975000Y-115175000D01*
X171475000Y-96650000D02*
X173000000Y-96650000D01*
D61*
X168225000Y-124175000D02*
X168150000Y-124250000D01*
D64*
X170225000Y-101025000D02*
X170775000Y-100475000D01*
D61*
X169500000Y-128325000D02*
X168425000Y-128325000D01*
X168425000Y-128325000D02*
X168300000Y-128200000D01*
D64*
X173000000Y-96650000D02*
X173925000Y-96650000D01*
X169500000Y-105175000D02*
X170575000Y-105175000D01*
X169500000Y-128325000D02*
X170575000Y-128325000D01*
D60*
X167735000Y-124750000D02*
X167735000Y-124665000D01*
D65*
X123835000Y-119465000D02*
X123835000Y-117465000D01*
D61*
X169500000Y-105175000D02*
X168425000Y-105175000D01*
D64*
X125975000Y-115175000D02*
X125750000Y-115400000D01*
D65*
X167026458Y-117525480D02*
X160224520Y-117525480D01*
D61*
X157250000Y-122175000D02*
X157775000Y-121650000D01*
X169550000Y-124175000D02*
X168225000Y-124175000D01*
D64*
X170575000Y-128325000D02*
X171200000Y-128950000D01*
X170575000Y-105175000D02*
X171200000Y-105800000D01*
D60*
X167850000Y-104600000D02*
X168300000Y-105050000D01*
D65*
X167775489Y-118274511D02*
X167026458Y-117525480D01*
D61*
X169550000Y-101025000D02*
X168225000Y-101025000D01*
D60*
X167735000Y-124665000D02*
X168150000Y-124250000D01*
D64*
X170775000Y-123625000D02*
X171550000Y-122850000D01*
D65*
X123835000Y-119465000D02*
X129403318Y-119465000D01*
D60*
X167850000Y-127750000D02*
X168300000Y-128200000D01*
D61*
X157775000Y-120825000D02*
X157350000Y-120400000D01*
X168425000Y-105175000D02*
X168300000Y-105050000D01*
D65*
X123835000Y-117465000D02*
X125350000Y-115950000D01*
D64*
X133685000Y-119050000D02*
X133235000Y-119500000D01*
D60*
X167735000Y-101600000D02*
X167735000Y-101515000D01*
D64*
X170225000Y-124175000D02*
X170775000Y-123625000D01*
D61*
X157775000Y-121650000D02*
X157775000Y-120825000D01*
D63*
%TO.N,+5V*%
X139910000Y-107500000D02*
X139460489Y-107949511D01*
X139460489Y-107949511D02*
X139460489Y-112260489D01*
D61*
X121125000Y-80402733D02*
X130313756Y-89591489D01*
X133685000Y-116750000D02*
X139985000Y-116750000D01*
X139910000Y-107500000D02*
X141950000Y-107500000D01*
D63*
X139460489Y-112260489D02*
X139985000Y-112785000D01*
D61*
X142935000Y-119700000D02*
X143135000Y-119700000D01*
X139985000Y-116750000D02*
X142935000Y-119700000D01*
X138972200Y-89591489D02*
X142700000Y-93319289D01*
X142700000Y-93319289D02*
X142700000Y-98650000D01*
D63*
X139985000Y-112785000D02*
X139985000Y-116750000D01*
D61*
X130313756Y-89591489D02*
X138972200Y-89591489D01*
X121125000Y-78630000D02*
X121125000Y-80402733D01*
D60*
%TO.N,Net-(C28-Pad1)*%
X165385000Y-123900000D02*
X165385000Y-121660000D01*
X165385000Y-121660000D02*
X165325000Y-121600000D01*
%TO.N,Net-(C28-Pad2)*%
X164885000Y-123900000D02*
X164885000Y-123025978D01*
X164885000Y-123025978D02*
X163775000Y-121915978D01*
X163775000Y-121915978D02*
X163775000Y-121600000D01*
%TO.N,Net-(C30-Pad1)*%
X163035000Y-124750000D02*
X160325000Y-124750000D01*
X160325000Y-124750000D02*
X159275000Y-123700000D01*
%TO.N,Net-(C31-Pad2)*%
X163622824Y-122399520D02*
X160074520Y-122399520D01*
X160074520Y-122399520D02*
X159325000Y-121650000D01*
X164385000Y-123161696D02*
X163622824Y-122399520D01*
X164385000Y-123900000D02*
X164385000Y-123161696D01*
%TO.N,Net-(C36-Pad2)*%
X164023304Y-99650000D02*
X164385000Y-100011696D01*
X164385000Y-100011696D02*
X164385000Y-100750000D01*
X168225000Y-94950000D02*
X162600000Y-94950000D01*
X162200000Y-99650000D02*
X164023304Y-99650000D01*
X160800000Y-96750000D02*
X160800000Y-98250000D01*
X169925000Y-96650000D02*
X168225000Y-94950000D01*
X160800000Y-98250000D02*
X162200000Y-99650000D01*
X162600000Y-94950000D02*
X160800000Y-96750000D01*
%TO.N,Net-(D1-Pad1)*%
X134835000Y-145300000D02*
X135234520Y-145699520D01*
X135234520Y-145699520D02*
X135234520Y-147300000D01*
X132735000Y-143200000D02*
X134835000Y-145300000D01*
X132335000Y-143200000D02*
X132735000Y-143200000D01*
X138360000Y-145060000D02*
X138120000Y-145300000D01*
X138120000Y-145300000D02*
X134835000Y-145300000D01*
%TO.N,Net-(D1-Pad2)*%
X131550000Y-142810978D02*
X131860978Y-142500000D01*
X131700000Y-144250000D02*
X131550000Y-144100000D01*
X131860978Y-142500000D02*
X134650000Y-142500000D01*
X138360000Y-143790000D02*
X137770000Y-143200000D01*
X132459022Y-144250000D02*
X131700000Y-144250000D01*
X134850000Y-142700000D02*
X134850000Y-143185000D01*
X134650000Y-142500000D02*
X134850000Y-142700000D01*
X132585000Y-147250000D02*
X134510000Y-147250000D01*
X131550000Y-144100000D02*
X131550000Y-142810978D01*
X132585000Y-147250000D02*
X132884511Y-146950489D01*
X132884511Y-144675489D02*
X132459022Y-144250000D01*
X137770000Y-143200000D02*
X134835000Y-143200000D01*
X134850000Y-143185000D02*
X134835000Y-143200000D01*
X132884511Y-146950489D02*
X132884511Y-144675489D01*
%TO.N,Net-(D2-Pad1)*%
X145450000Y-136950000D02*
X146835000Y-136950000D01*
X145450000Y-132335000D02*
X145450000Y-136950000D01*
X143800000Y-136950000D02*
X145450000Y-136950000D01*
X143310000Y-137440000D02*
X143800000Y-136950000D01*
%TO.N,Net-(D2-Pad2)*%
X143650000Y-139050000D02*
X146835000Y-139050000D01*
X151085000Y-137500000D02*
X149535000Y-139050000D01*
X143310000Y-138710000D02*
X143650000Y-139050000D01*
X149535000Y-139050000D02*
X146835000Y-139050000D01*
%TO.N,Net-(D3-Pad1)*%
X147310000Y-133050000D02*
X146835000Y-133050000D01*
X131860000Y-145300000D02*
X132335000Y-145300000D01*
X149435000Y-137500000D02*
X149435000Y-135325000D01*
X132335000Y-145850000D02*
X130935000Y-147250000D01*
X130100000Y-139550000D02*
X130100000Y-143540000D01*
X130100000Y-143540000D02*
X131860000Y-145300000D01*
X149435000Y-135325000D02*
X149510000Y-135250000D01*
X146725000Y-133160000D02*
X146835000Y-133050000D01*
X132335000Y-145300000D02*
X132335000Y-145850000D01*
%TO.N,Net-(D6-Pad5)*%
X148185000Y-104250000D02*
X145410000Y-104250000D01*
%TO.N,Net-(D6-Pad6)*%
X145460000Y-105950000D02*
X145410000Y-106000000D01*
X148185000Y-105950000D02*
X145460000Y-105950000D01*
D62*
%TO.N,Net-(D7-Pad4)*%
X162650000Y-67635000D02*
X162650000Y-70625000D01*
X162650000Y-70625000D02*
X161475000Y-71800000D01*
D60*
X164435000Y-66300000D02*
X163750000Y-66300000D01*
D62*
X164435000Y-66300000D02*
X163985000Y-66300000D01*
X163985000Y-66300000D02*
X162650000Y-67635000D01*
%TO.N,Net-(D7-Pad5)*%
X161475000Y-73650000D02*
X163135489Y-71989511D01*
X163135489Y-68849511D02*
X163985000Y-68000000D01*
X163135489Y-71989511D02*
X163135489Y-68849511D01*
X163985000Y-68000000D02*
X164435000Y-68000000D01*
%TO.N,Net-(D7-Pad6)*%
X164435000Y-69700000D02*
X164435000Y-72540000D01*
X164435000Y-72540000D02*
X161475000Y-75500000D01*
D60*
%TO.N,Net-(D8-Pad1)*%
X130660000Y-99500000D02*
X133547500Y-99500000D01*
D64*
%TO.N,/Stepper_b/2B_b*%
X178750000Y-122500000D02*
X177400000Y-121150000D01*
X177400000Y-121150000D02*
X168500000Y-121150000D01*
X168500000Y-121150000D02*
X167024511Y-122625489D01*
D60*
X166885000Y-123900000D02*
X166885000Y-122815000D01*
%TO.N,Net-(IC1-Pad2)*%
X166200000Y-120525000D02*
X165375000Y-119700000D01*
X166200000Y-122967026D02*
X166200000Y-120525000D01*
X166385000Y-123152026D02*
X166200000Y-122967026D01*
X166385000Y-123900000D02*
X166385000Y-123152026D01*
%TO.N,/Stepper_b/MS1_b*%
X159300000Y-125250000D02*
X159050000Y-125000000D01*
X163035000Y-125250000D02*
X159300000Y-125250000D01*
%TO.N,/Stepper_b/MS2_b*%
X158523625Y-125750000D02*
X157773625Y-125000000D01*
X157773625Y-125000000D02*
X151150000Y-125000000D01*
X163035000Y-125750000D02*
X158523625Y-125750000D01*
X151150000Y-125000000D02*
X150000000Y-123850000D01*
%TO.N,/Stepper_b/MS3_b*%
X163035000Y-126250000D02*
X157999011Y-126250000D01*
X157999011Y-126250000D02*
X157800000Y-126050989D01*
%TO.N,/Stepper_b/RST_b*%
X163035000Y-126765000D02*
X163024511Y-126775489D01*
X163024511Y-126775489D02*
X156024511Y-126775489D01*
X163035000Y-126750000D02*
X163035000Y-126765000D01*
%TO.N,Net-(IC1-Pad13)*%
X161410978Y-128000000D02*
X159275000Y-128000000D01*
X163035000Y-127250000D02*
X162160978Y-127250000D01*
X162160978Y-127250000D02*
X161410978Y-128000000D01*
%TO.N,/Stepper_b/SLP_b*%
X160350000Y-129900000D02*
X159225000Y-129900000D01*
X160350000Y-130750000D02*
X160350000Y-129900000D01*
X162500000Y-127750000D02*
X160350000Y-129900000D01*
X163035000Y-127750000D02*
X162500000Y-127750000D01*
%TO.N,/Stepper_b/STEP_b*%
X164385000Y-130515000D02*
X163800000Y-131100000D01*
X161765000Y-95135000D02*
X161765000Y-93870000D01*
X154309511Y-107740489D02*
X154309511Y-102590489D01*
X153250000Y-108800000D02*
X154309511Y-107740489D01*
X164385000Y-128600000D02*
X164385000Y-130515000D01*
X154309511Y-102590489D02*
X161765000Y-95135000D01*
%TO.N,/Stepper_b/DIR_b*%
X159850000Y-98550000D02*
X159850000Y-98500000D01*
X162050000Y-100750000D02*
X159850000Y-98550000D01*
X165885000Y-128600000D02*
X165885000Y-130815000D01*
X165885000Y-130815000D02*
X165750000Y-130950000D01*
D64*
%TO.N,/Stepper_b/1B_b*%
X167950000Y-131250000D02*
X166885000Y-130185000D01*
D60*
X166885000Y-128600000D02*
X166885000Y-129985000D01*
X166885000Y-129985000D02*
X166900000Y-130000000D01*
D64*
X178750000Y-130000000D02*
X177500000Y-131250000D01*
X177500000Y-131250000D02*
X167950000Y-131250000D01*
X166885000Y-130185000D02*
X166885000Y-129985000D01*
D60*
%TO.N,Net-(IC1-Pad23)*%
X171625000Y-127250000D02*
X172725000Y-128350000D01*
X167735000Y-127250000D02*
X171625000Y-127250000D01*
%TO.N,/Stepper_b/1A_b*%
X167735000Y-126750000D02*
X168500000Y-126750000D01*
D63*
X178750000Y-127500000D02*
X177925481Y-126675481D01*
X177925481Y-126675481D02*
X169050000Y-126675480D01*
D60*
X168500000Y-126750000D02*
X168900000Y-126750000D01*
D63*
%TO.N,/Stepper_b/2A_b*%
X169124040Y-125975960D02*
X169124040Y-125924040D01*
X177774040Y-125975960D02*
X169124040Y-125975960D01*
X169024520Y-125824520D02*
X168950000Y-125824520D01*
X178750000Y-125000000D02*
X177774040Y-125975960D01*
X169124040Y-125924040D02*
X169024520Y-125824520D01*
D60*
X168550000Y-125750000D02*
X168950000Y-125750000D01*
X167735000Y-125750000D02*
X168550000Y-125750000D01*
%TO.N,Net-(IC1-Pad27)*%
X171575000Y-125250000D02*
X172725000Y-124100000D01*
X167735000Y-125250000D02*
X171575000Y-125250000D01*
%TO.N,Net-(IC2-Pad2)*%
X166200000Y-99817026D02*
X166200000Y-97375000D01*
X166385000Y-100002026D02*
X166200000Y-99817026D01*
X166200000Y-97375000D02*
X165375000Y-96550000D01*
X166385000Y-100750000D02*
X166385000Y-100002026D01*
%TO.N,Net-(IC2-Pad13)*%
X162160978Y-104100000D02*
X161410978Y-104850000D01*
X163035000Y-104100000D02*
X162160978Y-104100000D01*
X161410978Y-104850000D02*
X159275000Y-104850000D01*
%TO.N,Net-(IC2-Pad23)*%
X167735000Y-104100000D02*
X171625000Y-104100000D01*
X171625000Y-104100000D02*
X172725000Y-105200000D01*
%TO.N,Net-(IC2-Pad27)*%
X171575000Y-102100000D02*
X172725000Y-100950000D01*
X167735000Y-102100000D02*
X171575000Y-102100000D01*
%TO.N,/SDA*%
X153315000Y-67165000D02*
X154100000Y-67950000D01*
X152250000Y-67165000D02*
X153315000Y-67165000D01*
D62*
X144665000Y-66265000D02*
X144665000Y-68215000D01*
D60*
X154600000Y-71050000D02*
X156050000Y-71050000D01*
X159550000Y-64250000D02*
X162000000Y-66700000D01*
X144050000Y-69800000D02*
X145150000Y-68700000D01*
X143375000Y-69800000D02*
X144050000Y-69800000D01*
X162000000Y-66700000D02*
X162000000Y-67350000D01*
X154100000Y-67950000D02*
X154100000Y-70550000D01*
X157165978Y-64250000D02*
X159550000Y-64250000D01*
D62*
X144665000Y-68215000D02*
X145150000Y-68700000D01*
D60*
X154100000Y-70550000D02*
X154600000Y-71050000D01*
X157165000Y-64737500D02*
X157165000Y-64250978D01*
X157165000Y-64250978D02*
X157165978Y-64250000D01*
%TO.N,/SCL*%
X152665000Y-66000000D02*
X153915000Y-64750000D01*
D62*
X143729978Y-65750000D02*
X142655000Y-66824978D01*
X143900000Y-65750000D02*
X143729978Y-65750000D01*
X142600000Y-67440000D02*
X142655000Y-67495000D01*
D60*
X154100000Y-65800000D02*
X154400000Y-66100000D01*
D62*
X142600000Y-56000000D02*
X142600000Y-67440000D01*
D60*
X154100000Y-64750000D02*
X154100000Y-65800000D01*
D62*
X142655000Y-66824978D02*
X142655000Y-67495000D01*
D60*
X154100000Y-64750000D02*
X156152500Y-64750000D01*
X146960000Y-71800000D02*
X143290000Y-71800000D01*
X149110000Y-73950000D02*
X146960000Y-71800000D01*
X153915000Y-64750000D02*
X154100000Y-64750000D01*
D63*
%TO.N,Net-(J3-Pad1)*%
X143220000Y-143700000D02*
X143310000Y-143790000D01*
D60*
X145200000Y-143790000D02*
X143310000Y-143790000D01*
X147010000Y-145250000D02*
X146835000Y-145425000D01*
X146835000Y-145425000D02*
X145200000Y-143790000D01*
X149260000Y-145250000D02*
X147010000Y-145250000D01*
D63*
X141000000Y-143700000D02*
X143220000Y-143700000D01*
%TO.N,Net-(J3-Pad2)*%
X132500000Y-134150000D02*
X132455000Y-134195000D01*
X132455000Y-134195000D02*
X129930000Y-131670000D01*
X138360000Y-137440000D02*
X138360000Y-137056441D01*
X129930000Y-131670000D02*
X123835000Y-131670000D01*
D60*
X133510000Y-135250000D02*
X133510000Y-135600000D01*
D63*
X135453559Y-134150000D02*
X132500000Y-134150000D01*
X138360000Y-137056441D02*
X135453559Y-134150000D01*
X133510000Y-135250000D02*
X132455000Y-134195000D01*
D60*
%TO.N,/CS_VD*%
X137926489Y-78776489D02*
X137926489Y-84276489D01*
X135500000Y-76350000D02*
X137926489Y-78776489D01*
X137926489Y-84276489D02*
X144200000Y-90550000D01*
%TO.N,/MOSI*%
X151605000Y-93870000D02*
X151605000Y-91855000D01*
X151605000Y-91855000D02*
X145050000Y-85300000D01*
%TO.N,/MISO*%
X155100000Y-57150000D02*
X155100000Y-56000000D01*
X140915480Y-74265480D02*
X140950000Y-74300000D01*
X154145000Y-92745000D02*
X154145000Y-93870000D01*
X155100000Y-56000000D02*
X153800480Y-54700480D01*
X145100000Y-83700000D02*
X154145000Y-92745000D01*
X156500000Y-58550000D02*
X155100000Y-57150000D01*
X153800480Y-54700480D02*
X142113498Y-54700480D01*
X161730000Y-61450000D02*
X158830000Y-58550000D01*
X142113498Y-54700480D02*
X140915480Y-55898498D01*
X140915480Y-55898498D02*
X140915480Y-74265480D01*
X158830000Y-58550000D02*
X156500000Y-58550000D01*
%TO.N,/SCK*%
X152600000Y-56000000D02*
X147700000Y-60900000D01*
X150475489Y-74960489D02*
X154145000Y-78630000D01*
X147250000Y-63500000D02*
X147250000Y-70428990D01*
X150475489Y-73654479D02*
X150475489Y-74960489D01*
X147250000Y-70428990D02*
X150475489Y-73654479D01*
X147700000Y-60900000D02*
X147700000Y-63050000D01*
X147700000Y-63050000D02*
X147250000Y-63500000D01*
%TO.N,/CS*%
X171105000Y-80350000D02*
X174850000Y-80350000D01*
X166810000Y-63260000D02*
X166810000Y-61450000D01*
X167400000Y-63850000D02*
X166810000Y-63260000D01*
X174850000Y-80350000D02*
X176026489Y-79173511D01*
X174950000Y-63850000D02*
X167400000Y-63850000D01*
X169385000Y-78630000D02*
X171105000Y-80350000D01*
X176026489Y-79173511D02*
X176026489Y-64926489D01*
X176026489Y-64926489D02*
X174950000Y-63850000D01*
%TO.N,Net-(Q1-Pad1)*%
X138260000Y-107500000D02*
X138260000Y-109480000D01*
X138260000Y-109480000D02*
X138315000Y-109535000D01*
X135910000Y-109450000D02*
X138230000Y-109450000D01*
X138230000Y-109450000D02*
X138315000Y-109535000D01*
D61*
%TO.N,VBUS*%
X138315000Y-111365000D02*
X137330489Y-112349511D01*
X127000000Y-105500000D02*
X127000000Y-101724626D01*
X133749511Y-112349511D02*
X131600000Y-110200000D01*
X122378511Y-85628511D02*
X122350000Y-85600000D01*
X137330489Y-112349511D02*
X133749511Y-112349511D01*
X127000000Y-101724626D02*
X122378511Y-97103137D01*
X122378511Y-97103137D02*
X122378511Y-85628511D01*
D60*
%TO.N,Net-(R10-Pad1)*%
X144820000Y-145060000D02*
X146835000Y-147075000D01*
X136160000Y-147250000D02*
X141120000Y-147250000D01*
X143310000Y-145060000D02*
X144820000Y-145060000D01*
X141120000Y-147250000D02*
X143310000Y-145060000D01*
X146835000Y-147075000D02*
X149085000Y-147075000D01*
X149085000Y-147075000D02*
X149260000Y-147250000D01*
%TO.N,Net-(R5-Pad2)*%
X138360000Y-138710000D02*
X136620000Y-138710000D01*
X135160000Y-137250000D02*
X135160000Y-135250000D01*
X136620000Y-138710000D02*
X135160000Y-137250000D01*
%TO.N,Net-(R6-Pad2)*%
X142010000Y-133790000D02*
X142010000Y-131475000D01*
X141400000Y-134400000D02*
X142010000Y-133790000D01*
X133510000Y-137250000D02*
X131650000Y-137250000D01*
%TO.N,Net-(R7-Pad2)*%
X142010000Y-124500000D02*
X142010000Y-126525000D01*
X141335000Y-123825000D02*
X142010000Y-124500000D01*
%TO.N,Net-(R8-Pad2)*%
X140740000Y-125230000D02*
X140740000Y-126525000D01*
X139335000Y-123825000D02*
X140740000Y-125230000D01*
%TO.N,Net-(R10-Pad2)*%
X152350000Y-147050000D02*
X152050000Y-147350000D01*
X150342138Y-139980000D02*
X152350000Y-141987862D01*
X152050000Y-147350000D02*
X151010000Y-147350000D01*
X143310000Y-139980000D02*
X150342138Y-139980000D01*
X152350000Y-141987862D02*
X152350000Y-147050000D01*
X151010000Y-147350000D02*
X150910000Y-147250000D01*
D64*
%TO.N,Net-(R15-Pad2)*%
X128500000Y-114350000D02*
X129475000Y-114350000D01*
D63*
X128500000Y-114350000D02*
X128500000Y-111575000D01*
D64*
X127625000Y-114350000D02*
X128500000Y-114350000D01*
D60*
%TO.N,/LEDs/G_a*%
X142450000Y-104250000D02*
X143760000Y-104250000D01*
X128850000Y-98250000D02*
X136450000Y-98250000D01*
X126205000Y-93870000D02*
X126205000Y-95605000D01*
X136450000Y-98250000D02*
X142450000Y-104250000D01*
X126205000Y-95605000D02*
X128850000Y-98250000D01*
%TO.N,/LEDs/B_a*%
X128745000Y-95945000D02*
X128745000Y-93870000D01*
X143760000Y-102500000D02*
X139010000Y-97750000D01*
X130550000Y-97750000D02*
X128745000Y-95945000D01*
X139010000Y-97750000D02*
X130550000Y-97750000D01*
D62*
%TO.N,/LEDs/R_b*%
X158250000Y-75500000D02*
X157800000Y-75950000D01*
X159825000Y-75500000D02*
X158250000Y-75500000D01*
%TO.N,/LEDs/G_b*%
X159825000Y-73650000D02*
X158850000Y-73650000D01*
X158850000Y-73650000D02*
X157750000Y-74750000D01*
%TO.N,/LEDs/B_b*%
X159710741Y-71800000D02*
X155160741Y-76350000D01*
X159825000Y-71800000D02*
X159710741Y-71800000D01*
X155160741Y-76350000D02*
X153900000Y-76350000D01*
D60*
%TO.N,/INT_ACC*%
X147700000Y-68450000D02*
X147700000Y-66250000D01*
X156650000Y-72950000D02*
X156475489Y-72775489D01*
X152025489Y-72775489D02*
X147700000Y-68450000D01*
X156475489Y-72775489D02*
X152025489Y-72775489D01*
X147700000Y-66250000D02*
X147950000Y-66000000D01*
X147950000Y-66000000D02*
X148835000Y-66000000D01*
%TO.N,/INT_GYR*%
X157299885Y-71783285D02*
X154383285Y-71783285D01*
X150899520Y-68297824D02*
X150750000Y-68148304D01*
X154383285Y-71783285D02*
X150899520Y-68299520D01*
X150750000Y-68148304D02*
X150750000Y-67165000D01*
X150899520Y-68299520D02*
X150899520Y-68297824D01*
D62*
%TO.N,/INT_MAG*%
X171925000Y-78630000D02*
X172878511Y-79583511D01*
X172878511Y-79583511D02*
X174859958Y-79583511D01*
X175450000Y-75200000D02*
X175450000Y-70365978D01*
X175450000Y-78993469D02*
X175450000Y-75200000D01*
X160550000Y-66900000D02*
X159592138Y-66900000D01*
X159592138Y-66900000D02*
X158442138Y-65750000D01*
X174859958Y-79583511D02*
X175450000Y-78993469D01*
X169534022Y-64450000D02*
X166150000Y-64450000D01*
X175450000Y-70365978D02*
X169534022Y-64450000D01*
D60*
X157677500Y-65750000D02*
X158442138Y-65750000D01*
%TO.N,/INT_BAR*%
X167910489Y-72075489D02*
X167910489Y-67760489D01*
X167910489Y-67760489D02*
X163850000Y-63700000D01*
X146250000Y-63750000D02*
X145749840Y-64250160D01*
X145749840Y-64250160D02*
X145749840Y-65250000D01*
D62*
X145430000Y-65250000D02*
X145749840Y-65250000D01*
D60*
X174465000Y-78630000D02*
X167910489Y-72075489D01*
X163850000Y-63700000D02*
X153800000Y-63700000D01*
%TO.N,Net-(C33-Pad1)*%
X165385000Y-100750000D02*
X165385000Y-98510000D01*
X165385000Y-98510000D02*
X165325000Y-98450000D01*
%TO.N,Net-(D6-Pad4)*%
X145460000Y-102550000D02*
X145410000Y-102500000D01*
X148185000Y-102550000D02*
X145460000Y-102550000D01*
%TO.N,Net-(C33-Pad2)*%
X164885000Y-99875978D02*
X163775000Y-98765978D01*
X164885000Y-100750000D02*
X164885000Y-99875978D01*
X163775000Y-98765978D02*
X163775000Y-98450000D01*
%TO.N,Net-(C35-Pad1)*%
X163035000Y-101600000D02*
X160325000Y-101600000D01*
X160325000Y-101600000D02*
X159275000Y-100550000D01*
%TO.N,/Stepper_b/REF*%
X164885000Y-128600000D02*
X164885000Y-133035000D01*
X168900000Y-137050000D02*
X164900000Y-133050000D01*
X164885000Y-133035000D02*
X164900000Y-133050000D01*
X170325000Y-137050000D02*
X168900000Y-137050000D01*
D64*
%TO.N,/Stepper_b1/2B_b*%
X167024511Y-99475489D02*
X168200000Y-98300000D01*
X178050000Y-98300000D02*
X178750000Y-99000000D01*
D60*
X166885000Y-100750000D02*
X166885000Y-99665000D01*
D64*
X168200000Y-98300000D02*
X178050000Y-98300000D01*
D60*
%TO.N,/Stepper_b1/MS1_b*%
X163035000Y-102100000D02*
X157150000Y-102100000D01*
X157150000Y-102100000D02*
X156750000Y-101700000D01*
%TO.N,/Stepper_b1/MS2_b*%
X155950000Y-102700000D02*
X156074500Y-102824500D01*
X156050000Y-102600000D02*
X155950000Y-102700000D01*
X163035000Y-102600000D02*
X156050000Y-102600000D01*
%TO.N,/Stepper_b1/MS3_b*%
X158480421Y-103049520D02*
X158114554Y-103415387D01*
X158114554Y-103415387D02*
X158248167Y-103549000D01*
X163035000Y-103100000D02*
X162296696Y-103100000D01*
X162296696Y-103100000D02*
X162246216Y-103049520D01*
X162246216Y-103049520D02*
X158480421Y-103049520D01*
%TO.N,/Stepper_b1/RST_b*%
X160650000Y-103850000D02*
X160600000Y-103900000D01*
X163035000Y-103600000D02*
X160900000Y-103600000D01*
X160900000Y-103600000D02*
X160650000Y-103850000D01*
%TO.N,/Stepper_b1/SLP_b*%
X159225000Y-106750000D02*
X159750000Y-106750000D01*
X162500000Y-104600000D02*
X160350000Y-106750000D01*
X159750000Y-106750000D02*
X160750000Y-107750000D01*
X160350000Y-106750000D02*
X159225000Y-106750000D01*
X163035000Y-104600000D02*
X162500000Y-104600000D01*
%TO.N,/Stepper_b1/STEP_b*%
X164410489Y-107089511D02*
X164250000Y-107250000D01*
X164385000Y-105450000D02*
X164400000Y-105450000D01*
X164400000Y-105450000D02*
X164410489Y-105460489D01*
X164410489Y-105460489D02*
X164410489Y-107089511D01*
X164250000Y-107250000D02*
X164150000Y-107350000D01*
%TO.N,/Stepper_b1/REF*%
X168900000Y-113900000D02*
X164900000Y-109900000D01*
X164675489Y-109675489D02*
X164900000Y-109900000D01*
X170325000Y-113900000D02*
X168900000Y-113900000D01*
X164885000Y-109885000D02*
X164900000Y-109900000D01*
X164885000Y-105450000D02*
X164885000Y-109885000D01*
%TO.N,/Stepper_b1/DIR_b*%
X165885000Y-105450000D02*
X165885000Y-107435000D01*
X166000000Y-108150000D02*
X166000000Y-107550000D01*
X165885000Y-107435000D02*
X166000000Y-107550000D01*
X166000000Y-107550000D02*
X166000000Y-107380000D01*
D64*
%TO.N,/Stepper_b1/1B_b*%
X166885000Y-107035000D02*
X166885000Y-106835000D01*
X177150000Y-108100000D02*
X178750000Y-106500000D01*
X167950000Y-108100000D02*
X177150000Y-108100000D01*
D60*
X166885000Y-105450000D02*
X166885000Y-106835000D01*
D64*
X167950000Y-108100000D02*
X166885000Y-107035000D01*
D60*
X166885000Y-106835000D02*
X166900000Y-106850000D01*
D63*
%TO.N,/Stepper_b1/1A_b*%
X169423560Y-103525480D02*
X168900000Y-103525480D01*
X169499520Y-103449520D02*
X169423560Y-103525480D01*
X178750000Y-104000000D02*
X178199520Y-103449520D01*
D60*
X168500000Y-103600000D02*
X168900000Y-103600000D01*
X167735000Y-103600000D02*
X168500000Y-103600000D01*
D63*
X178199520Y-103449520D02*
X169499520Y-103449520D01*
%TO.N,/Stepper_b1/2A_b*%
X169174520Y-102674520D02*
X168950000Y-102674520D01*
X169250000Y-102750000D02*
X169174520Y-102674520D01*
D60*
X168550000Y-102600000D02*
X168950000Y-102600000D01*
D63*
X178750000Y-101500000D02*
X177500000Y-102750000D01*
D60*
X167735000Y-102600000D02*
X168550000Y-102600000D01*
D63*
X177500000Y-102750000D02*
X169250000Y-102750000D01*
D60*
%TO.N,Net-(D9-Pad1)*%
X133547500Y-102202500D02*
X133547500Y-101500000D01*
X129085000Y-101500000D02*
X130335000Y-102750000D01*
X130335000Y-102750000D02*
X133000000Y-102750000D01*
X133000000Y-102750000D02*
X133547500Y-102202500D01*
%TO.N,/LEDs/SIGNAL*%
X130660000Y-101500000D02*
X130660000Y-101460000D01*
X131620000Y-100500000D02*
X132100000Y-100500000D01*
X130660000Y-101460000D02*
X131620000Y-100500000D01*
%TO.N,Net-(R19-Pad2)*%
X161425000Y-113150000D02*
X163900000Y-113150000D01*
X159125000Y-110850000D02*
X161425000Y-113150000D01*
%TO.N,Net-(R30-Pad2)*%
X161425000Y-136300000D02*
X163900000Y-136300000D01*
X159125000Y-134000000D02*
X161425000Y-136300000D01*
%TD*%
M02*
