%TF.GenerationSoftware,KiCad,Pcbnew,(6.0.5)*%
%TF.CreationDate,2022-07-28T11:09:16-06:00*%
%TF.ProjectId,transmitter,7472616e-736d-4697-9474-65722e6b6963,rev?*%
%TF.SameCoordinates,Original*%
%TF.FileFunction,Soldermask,Bot*%
%TF.FilePolarity,Negative*%
%FSLAX46Y46*%
G04 Gerber Fmt 4.6, Leading zero omitted, Abs format (unit mm)*
G04 Created by KiCad (PCBNEW (6.0.5)) date 2022-07-28 11:09:16*
%MOMM*%
%LPD*%
G01*
G04 APERTURE LIST*
G04 Aperture macros list*
%AMRoundRect*
0 Rectangle with rounded corners*
0 $1 Rounding radius*
0 $2 $3 $4 $5 $6 $7 $8 $9 X,Y pos of 4 corners*
0 Add a 4 corners polygon primitive as box body*
4,1,4,$2,$3,$4,$5,$6,$7,$8,$9,$2,$3,0*
0 Add four circle primitives for the rounded corners*
1,1,$1+$1,$2,$3*
1,1,$1+$1,$4,$5*
1,1,$1+$1,$6,$7*
1,1,$1+$1,$8,$9*
0 Add four rect primitives between the rounded corners*
20,1,$1+$1,$2,$3,$4,$5,0*
20,1,$1+$1,$4,$5,$6,$7,0*
20,1,$1+$1,$6,$7,$8,$9,0*
20,1,$1+$1,$8,$9,$2,$3,0*%
G04 Aperture macros list end*
%ADD10R,1.700000X1.700000*%
%ADD11O,1.700000X1.700000*%
%ADD12RoundRect,0.250000X-0.750000X0.600000X-0.750000X-0.600000X0.750000X-0.600000X0.750000X0.600000X0*%
%ADD13O,2.000000X1.700000*%
%ADD14O,1.100000X2.200000*%
%ADD15O,1.300000X2.600000*%
%ADD16C,2.000000*%
%ADD17RoundRect,0.250000X0.750000X-0.600000X0.750000X0.600000X-0.750000X0.600000X-0.750000X-0.600000X0*%
%ADD18RoundRect,0.225000X-0.225000X-0.250000X0.225000X-0.250000X0.225000X0.250000X-0.225000X0.250000X0*%
%ADD19RoundRect,0.225000X-0.250000X0.225000X-0.250000X-0.225000X0.250000X-0.225000X0.250000X0.225000X0*%
%ADD20RoundRect,0.225000X0.250000X-0.225000X0.250000X0.225000X-0.250000X0.225000X-0.250000X-0.225000X0*%
%ADD21RoundRect,0.200000X-0.275000X0.200000X-0.275000X-0.200000X0.275000X-0.200000X0.275000X0.200000X0*%
G04 APERTURE END LIST*
D10*
%TO.C,J5*%
X134000000Y-102200000D03*
D11*
X134000000Y-104740000D03*
X134000000Y-107280000D03*
X134000000Y-109820000D03*
X134000000Y-112360000D03*
X134000000Y-114900000D03*
X134000000Y-117440000D03*
%TD*%
D10*
%TO.C,J11*%
X164025000Y-99625000D03*
D11*
X164025000Y-102165000D03*
X164025000Y-104705000D03*
X164025000Y-107245000D03*
X164025000Y-109785000D03*
X164025000Y-112325000D03*
X164025000Y-114865000D03*
X164025000Y-117405000D03*
%TD*%
D10*
%TO.C,J8*%
X134000000Y-90980000D03*
D11*
X134000000Y-93520000D03*
X134000000Y-96060000D03*
X134000000Y-98600000D03*
%TD*%
D10*
%TO.C,J7*%
X164025000Y-88400000D03*
D11*
X164025000Y-90940000D03*
X164025000Y-93480000D03*
X164025000Y-96020000D03*
%TD*%
D10*
%TO.C,J6*%
X160200000Y-96000000D03*
D11*
X160200000Y-93460000D03*
X160200000Y-90920000D03*
X160200000Y-88380000D03*
%TD*%
D10*
%TO.C,J3*%
X160225000Y-99625000D03*
D11*
X160225000Y-102165000D03*
X160225000Y-104705000D03*
X160225000Y-107245000D03*
X160225000Y-109785000D03*
X160225000Y-112325000D03*
X160225000Y-114865000D03*
X160225000Y-117405000D03*
%TD*%
D10*
%TO.C,J2*%
X133900000Y-87300000D03*
D11*
X133900000Y-84760000D03*
X133900000Y-82220000D03*
X133900000Y-79680000D03*
%TD*%
D12*
%TO.C,J9*%
X134800000Y-125000000D03*
D13*
X134800000Y-127500000D03*
%TD*%
D14*
%TO.C,J10*%
X144680000Y-131940000D03*
X153320000Y-131940000D03*
D15*
X143350000Y-137300000D03*
X154650000Y-137300000D03*
%TD*%
D16*
%TO.C,H4*%
X163000000Y-136000000D03*
%TD*%
D10*
%TO.C,J4*%
X141775000Y-102400000D03*
D11*
X139235000Y-102400000D03*
%TD*%
D17*
%TO.C,J1*%
X163200000Y-127500000D03*
D13*
X163200000Y-125000000D03*
%TD*%
D16*
%TO.C,H3*%
X163100000Y-79500000D03*
%TD*%
%TO.C,H1*%
X135000000Y-136000000D03*
%TD*%
D18*
%TO.C,C9*%
X147725000Y-94400000D03*
X149275000Y-94400000D03*
%TD*%
D19*
%TO.C,C5*%
X149200000Y-83625000D03*
X149200000Y-85175000D03*
%TD*%
D18*
%TO.C,C8*%
X147725000Y-92700000D03*
X149275000Y-92700000D03*
%TD*%
D19*
%TO.C,C4*%
X147400000Y-83625000D03*
X147400000Y-85175000D03*
%TD*%
D20*
%TO.C,C3*%
X151000000Y-85175000D03*
X151000000Y-83625000D03*
%TD*%
D21*
%TO.C,R19*%
X149700000Y-135175000D03*
X149700000Y-136825000D03*
%TD*%
M02*
