%TF.GenerationSoftware,KiCad,Pcbnew,(6.0.5)*%
%TF.CreationDate,2022-07-28T11:09:16-06:00*%
%TF.ProjectId,transmitter,7472616e-736d-4697-9474-65722e6b6963,rev?*%
%TF.SameCoordinates,Original*%
%TF.FileFunction,Copper,L1,Top*%
%TF.FilePolarity,Positive*%
%FSLAX46Y46*%
G04 Gerber Fmt 4.6, Leading zero omitted, Abs format (unit mm)*
G04 Created by KiCad (PCBNEW (6.0.5)) date 2022-07-28 11:09:16*
%MOMM*%
%LPD*%
G01*
G04 APERTURE LIST*
G04 Aperture macros list*
%AMRoundRect*
0 Rectangle with rounded corners*
0 $1 Rounding radius*
0 $2 $3 $4 $5 $6 $7 $8 $9 X,Y pos of 4 corners*
0 Add a 4 corners polygon primitive as box body*
4,1,4,$2,$3,$4,$5,$6,$7,$8,$9,$2,$3,0*
0 Add four circle primitives for the rounded corners*
1,1,$1+$1,$2,$3*
1,1,$1+$1,$4,$5*
1,1,$1+$1,$6,$7*
1,1,$1+$1,$8,$9*
0 Add four rect primitives between the rounded corners*
20,1,$1+$1,$2,$3,$4,$5,0*
20,1,$1+$1,$4,$5,$6,$7,0*
20,1,$1+$1,$6,$7,$8,$9,0*
20,1,$1+$1,$8,$9,$2,$3,0*%
G04 Aperture macros list end*
%TA.AperFunction,ComponentPad*%
%ADD10R,1.700000X1.700000*%
%TD*%
%TA.AperFunction,ComponentPad*%
%ADD11O,1.700000X1.700000*%
%TD*%
%TA.AperFunction,ComponentPad*%
%ADD12RoundRect,0.250000X-0.750000X0.600000X-0.750000X-0.600000X0.750000X-0.600000X0.750000X0.600000X0*%
%TD*%
%TA.AperFunction,ComponentPad*%
%ADD13O,2.000000X1.700000*%
%TD*%
%TA.AperFunction,SMDPad,CuDef*%
%ADD14RoundRect,0.225000X-0.225000X-0.250000X0.225000X-0.250000X0.225000X0.250000X-0.225000X0.250000X0*%
%TD*%
%TA.AperFunction,SMDPad,CuDef*%
%ADD15RoundRect,0.225000X0.250000X-0.225000X0.250000X0.225000X-0.250000X0.225000X-0.250000X-0.225000X0*%
%TD*%
%TA.AperFunction,SMDPad,CuDef*%
%ADD16RoundRect,0.200000X0.200000X0.275000X-0.200000X0.275000X-0.200000X-0.275000X0.200000X-0.275000X0*%
%TD*%
%TA.AperFunction,SMDPad,CuDef*%
%ADD17RoundRect,0.225000X-0.250000X0.225000X-0.250000X-0.225000X0.250000X-0.225000X0.250000X0.225000X0*%
%TD*%
%TA.AperFunction,SMDPad,CuDef*%
%ADD18RoundRect,0.200000X-0.200000X-0.275000X0.200000X-0.275000X0.200000X0.275000X-0.200000X0.275000X0*%
%TD*%
%TA.AperFunction,SMDPad,CuDef*%
%ADD19R,0.300000X0.700000*%
%TD*%
%TA.AperFunction,SMDPad,CuDef*%
%ADD20R,1.000000X0.700000*%
%TD*%
%TA.AperFunction,ComponentPad*%
%ADD21O,1.100000X2.200000*%
%TD*%
%TA.AperFunction,ComponentPad*%
%ADD22O,1.300000X2.600000*%
%TD*%
%TA.AperFunction,SMDPad,CuDef*%
%ADD23RoundRect,0.200000X-0.275000X0.200000X-0.275000X-0.200000X0.275000X-0.200000X0.275000X0.200000X0*%
%TD*%
%TA.AperFunction,SMDPad,CuDef*%
%ADD24RoundRect,0.008100X-0.421900X-0.126900X0.421900X-0.126900X0.421900X0.126900X-0.421900X0.126900X0*%
%TD*%
%TA.AperFunction,SMDPad,CuDef*%
%ADD25R,0.750000X1.200000*%
%TD*%
%TA.AperFunction,SMDPad,CuDef*%
%ADD26R,1.800000X2.500000*%
%TD*%
%TA.AperFunction,SMDPad,CuDef*%
%ADD27RoundRect,0.007000X0.168000X-0.183000X0.168000X0.183000X-0.168000X0.183000X-0.168000X-0.183000X0*%
%TD*%
%TA.AperFunction,SMDPad,CuDef*%
%ADD28R,2.000000X1.100000*%
%TD*%
%TA.AperFunction,SMDPad,CuDef*%
%ADD29RoundRect,0.225000X0.225000X0.250000X-0.225000X0.250000X-0.225000X-0.250000X0.225000X-0.250000X0*%
%TD*%
%TA.AperFunction,SMDPad,CuDef*%
%ADD30RoundRect,0.200000X0.275000X-0.200000X0.275000X0.200000X-0.275000X0.200000X-0.275000X-0.200000X0*%
%TD*%
%TA.AperFunction,SMDPad,CuDef*%
%ADD31R,1.168400X0.355600*%
%TD*%
%TA.AperFunction,SMDPad,CuDef*%
%ADD32RoundRect,0.218750X-0.218750X-0.256250X0.218750X-0.256250X0.218750X0.256250X-0.218750X0.256250X0*%
%TD*%
%TA.AperFunction,SMDPad,CuDef*%
%ADD33R,1.600000X1.600000*%
%TD*%
%TA.AperFunction,SMDPad,CuDef*%
%ADD34RoundRect,0.062500X0.375000X-0.062500X0.375000X0.062500X-0.375000X0.062500X-0.375000X-0.062500X0*%
%TD*%
%TA.AperFunction,SMDPad,CuDef*%
%ADD35RoundRect,0.062500X0.062500X-0.375000X0.062500X0.375000X-0.062500X0.375000X-0.062500X-0.375000X0*%
%TD*%
%TA.AperFunction,SMDPad,CuDef*%
%ADD36RoundRect,0.218750X0.218750X0.256250X-0.218750X0.256250X-0.218750X-0.256250X0.218750X-0.256250X0*%
%TD*%
%TA.AperFunction,SMDPad,CuDef*%
%ADD37R,1.090000X0.610000*%
%TD*%
%TA.AperFunction,SMDPad,CuDef*%
%ADD38R,1.900000X1.100000*%
%TD*%
%TA.AperFunction,ComponentPad*%
%ADD39RoundRect,0.250000X0.750000X-0.600000X0.750000X0.600000X-0.750000X0.600000X-0.750000X-0.600000X0*%
%TD*%
%TA.AperFunction,SMDPad,CuDef*%
%ADD40R,1.050000X0.650000*%
%TD*%
%TA.AperFunction,SMDPad,CuDef*%
%ADD41RoundRect,0.075000X-0.662500X-0.075000X0.662500X-0.075000X0.662500X0.075000X-0.662500X0.075000X0*%
%TD*%
%TA.AperFunction,SMDPad,CuDef*%
%ADD42RoundRect,0.075000X-0.075000X-0.662500X0.075000X-0.662500X0.075000X0.662500X-0.075000X0.662500X0*%
%TD*%
%TA.AperFunction,SMDPad,CuDef*%
%ADD43R,2.500000X1.800000*%
%TD*%
%TA.AperFunction,SMDPad,CuDef*%
%ADD44R,2.650000X1.750000*%
%TD*%
%TA.AperFunction,ViaPad*%
%ADD45C,0.800000*%
%TD*%
%TA.AperFunction,Conductor*%
%ADD46C,0.250000*%
%TD*%
%TA.AperFunction,Conductor*%
%ADD47C,0.200000*%
%TD*%
%TA.AperFunction,Conductor*%
%ADD48C,1.000000*%
%TD*%
%TA.AperFunction,Conductor*%
%ADD49C,0.800000*%
%TD*%
%TA.AperFunction,Conductor*%
%ADD50C,0.500000*%
%TD*%
G04 APERTURE END LIST*
D10*
%TO.P,J5,1,Pin_1*%
%TO.N,GND*%
X134000000Y-102200000D03*
D11*
%TO.P,J5,2,Pin_2*%
%TO.N,/MISO*%
X134000000Y-104740000D03*
%TO.P,J5,3,Pin_3*%
%TO.N,/MOSI*%
X134000000Y-107280000D03*
%TO.P,J5,4,Pin_4*%
%TO.N,/SCK*%
X134000000Y-109820000D03*
%TO.P,J5,5,Pin_5*%
%TO.N,/CS1*%
X134000000Y-112360000D03*
%TO.P,J5,6,Pin_6*%
%TO.N,/CS*%
X134000000Y-114900000D03*
%TO.P,J5,7,Pin_7*%
%TO.N,+3V3*%
X134000000Y-117440000D03*
%TD*%
D10*
%TO.P,J11,1,Pin_1*%
%TO.N,GND*%
X164025000Y-99625000D03*
D11*
%TO.P,J11,2,Pin_2*%
%TO.N,/MISO*%
X164025000Y-102165000D03*
%TO.P,J11,3,Pin_3*%
%TO.N,/MOSI*%
X164025000Y-104705000D03*
%TO.P,J11,4,Pin_4*%
%TO.N,/SCK*%
X164025000Y-107245000D03*
%TO.P,J11,5,Pin_5*%
%TO.N,/RST*%
X164025000Y-109785000D03*
%TO.P,J11,6,Pin_6*%
%TO.N,/CS3*%
X164025000Y-112325000D03*
%TO.P,J11,7,Pin_7*%
%TO.N,/IRQ*%
X164025000Y-114865000D03*
%TO.P,J11,8,Pin_8*%
%TO.N,+3V3*%
X164025000Y-117405000D03*
%TD*%
D10*
%TO.P,J8,1,Pin_1*%
%TO.N,GND*%
X134000000Y-90980000D03*
D11*
%TO.P,J8,2,Pin_2*%
%TO.N,/TX*%
X134000000Y-93520000D03*
%TO.P,J8,3,Pin_3*%
%TO.N,/RX*%
X134000000Y-96060000D03*
%TO.P,J8,4,Pin_4*%
%TO.N,+3V3*%
X134000000Y-98600000D03*
%TD*%
D10*
%TO.P,J7,1,Pin_1*%
%TO.N,GND*%
X164025000Y-88400000D03*
D11*
%TO.P,J7,2,Pin_2*%
%TO.N,/SCL*%
X164025000Y-90940000D03*
%TO.P,J7,3,Pin_3*%
%TO.N,/SDA*%
X164025000Y-93480000D03*
%TO.P,J7,4,Pin_4*%
%TO.N,+3V3*%
X164025000Y-96020000D03*
%TD*%
D10*
%TO.P,J6,1,Pin_1*%
%TO.N,GND*%
X160200000Y-96000000D03*
D11*
%TO.P,J6,2,Pin_2*%
%TO.N,/SWCLK*%
X160200000Y-93460000D03*
%TO.P,J6,3,Pin_3*%
%TO.N,/SWDIO*%
X160200000Y-90920000D03*
%TO.P,J6,4,Pin_4*%
%TO.N,+3V3*%
X160200000Y-88380000D03*
%TD*%
D10*
%TO.P,J3,1,Pin_1*%
%TO.N,GND*%
X160225000Y-99625000D03*
D11*
%TO.P,J3,2,Pin_2*%
%TO.N,/MISO*%
X160225000Y-102165000D03*
%TO.P,J3,3,Pin_3*%
%TO.N,/MOSI*%
X160225000Y-104705000D03*
%TO.P,J3,4,Pin_4*%
%TO.N,/SCK*%
X160225000Y-107245000D03*
%TO.P,J3,5,Pin_5*%
%TO.N,/CS2*%
X160225000Y-109785000D03*
%TO.P,J3,6,Pin_6*%
%TO.N,/SDA*%
X160225000Y-112325000D03*
%TO.P,J3,7,Pin_7*%
%TO.N,/SCL*%
X160225000Y-114865000D03*
%TO.P,J3,8,Pin_8*%
%TO.N,+3V3*%
X160225000Y-117405000D03*
%TD*%
D10*
%TO.P,J2,1,Pin_1*%
%TO.N,/MCU/GPIO4*%
X133900000Y-87300000D03*
D11*
%TO.P,J2,2,Pin_2*%
%TO.N,/MCU/GPIO3*%
X133900000Y-84760000D03*
%TO.P,J2,3,Pin_3*%
%TO.N,/MCU/GPIO2*%
X133900000Y-82220000D03*
%TO.P,J2,4,Pin_4*%
%TO.N,/MCU/GPIO1*%
X133900000Y-79680000D03*
%TD*%
D12*
%TO.P,J9,1,Pin_1*%
%TO.N,GND*%
X134800000Y-125000000D03*
D13*
%TO.P,J9,2,Pin_2*%
%TO.N,Net-(D2-Pad2)*%
X134800000Y-127500000D03*
%TD*%
D14*
%TO.P,C2,1*%
%TO.N,GND*%
X138325000Y-91100000D03*
%TO.P,C2,2*%
%TO.N,Net-(C2-Pad2)*%
X139875000Y-91100000D03*
%TD*%
D15*
%TO.P,C18,1*%
%TO.N,+3V3*%
X157800000Y-80275000D03*
%TO.P,C18,2*%
%TO.N,GND*%
X157800000Y-78725000D03*
%TD*%
D16*
%TO.P,R22,1*%
%TO.N,Net-(D7-Pad4)*%
X144625000Y-78500000D03*
%TO.P,R22,2*%
%TO.N,/LEDs/B_a*%
X142975000Y-78500000D03*
%TD*%
D17*
%TO.P,C15,1*%
%TO.N,/Regulators/+5V_reg*%
X155200000Y-116625000D03*
%TO.P,C15,2*%
%TO.N,GND*%
X155200000Y-118175000D03*
%TD*%
D18*
%TO.P,R12,1*%
%TO.N,GND*%
X137825000Y-118562500D03*
%TO.P,R12,2*%
%TO.N,Net-(R12-Pad2)*%
X139475000Y-118562500D03*
%TD*%
D19*
%TO.P,J10,A1,GND*%
%TO.N,GND*%
X146000000Y-131530000D03*
%TO.P,J10,A2,TX1+*%
%TO.N,unconnected-(J10-PadA2)*%
X146500000Y-131530000D03*
%TO.P,J10,A3,TX1-*%
%TO.N,unconnected-(J10-PadA3)*%
X147000000Y-131530000D03*
%TO.P,J10,A4,VBUS*%
%TO.N,Net-(D6-Pad2)*%
X147500000Y-131530000D03*
%TO.P,J10,A5,CC1*%
%TO.N,Net-(J10-PadA5)*%
X148000000Y-131530000D03*
%TO.P,J10,A6,D+_A*%
%TO.N,/D+*%
X148500000Y-131530000D03*
%TO.P,J10,A7,D-_A*%
%TO.N,/D-*%
X149500000Y-131530000D03*
%TO.P,J10,A8,SBU1*%
%TO.N,unconnected-(J10-PadA8)*%
X150000000Y-131530000D03*
%TO.P,J10,A9,VBUS*%
%TO.N,Net-(D6-Pad2)*%
X150500000Y-131530000D03*
%TO.P,J10,A10,RX2-*%
%TO.N,unconnected-(J10-PadA10)*%
X151000000Y-131530000D03*
%TO.P,J10,A11,RX2+*%
%TO.N,unconnected-(J10-PadA11)*%
X151500000Y-131530000D03*
%TO.P,J10,A12,GND*%
%TO.N,GND*%
X152000000Y-131530000D03*
D20*
%TO.P,J10,B1,GND*%
X152100000Y-132830000D03*
D19*
%TO.P,J10,B2,TX2+*%
%TO.N,unconnected-(J10-PadB2)*%
X151250000Y-132830000D03*
%TO.P,J10,B3,TX2-*%
%TO.N,unconnected-(J10-PadB3)*%
X150750000Y-132830000D03*
%TO.P,J10,B4,VBUS*%
%TO.N,Net-(D6-Pad2)*%
X150250000Y-132830000D03*
%TO.P,J10,B5,CC2*%
%TO.N,Net-(J10-PadB5)*%
X149750000Y-132830000D03*
%TO.P,J10,B6,D+_B*%
%TO.N,/D+*%
X149250000Y-132830000D03*
%TO.P,J10,B7,D-_B*%
%TO.N,/D-*%
X148750000Y-132830000D03*
%TO.P,J10,B8,SBU2*%
%TO.N,unconnected-(J10-PadB8)*%
X148250000Y-132830000D03*
%TO.P,J10,B9,VBUS*%
%TO.N,Net-(D6-Pad2)*%
X147750000Y-132830000D03*
%TO.P,J10,B10,RX1-*%
%TO.N,unconnected-(J10-PadB10)*%
X147250000Y-132830000D03*
%TO.P,J10,B11,RX1+*%
%TO.N,unconnected-(J10-PadB11)*%
X146750000Y-132830000D03*
D20*
%TO.P,J10,B12,GND*%
%TO.N,GND*%
X145900000Y-132830000D03*
D21*
%TO.P,J10,S1,SHIELD*%
%TO.N,unconnected-(J10-PadS1)*%
X144680000Y-131940000D03*
%TO.P,J10,S2,SHIELD*%
X153320000Y-131940000D03*
D22*
%TO.P,J10,S3,SHIELD*%
X143350000Y-137300000D03*
%TO.P,J10,S4,SHIELD*%
X154650000Y-137300000D03*
%TD*%
D14*
%TO.P,C14,1*%
%TO.N,/LiPo/SOUT*%
X146475000Y-115262500D03*
%TO.P,C14,2*%
%TO.N,GND*%
X148025000Y-115262500D03*
%TD*%
D23*
%TO.P,R1,1*%
%TO.N,Net-(D1-Pad2)*%
X155000000Y-125675000D03*
%TO.P,R1,2*%
%TO.N,GND*%
X155000000Y-127325000D03*
%TD*%
D24*
%TO.P,U3,1,OUT*%
%TO.N,+3V3*%
X151265000Y-116750000D03*
%TO.P,U3,2,N/C_2*%
%TO.N,unconnected-(U3-Pad2)*%
X151265000Y-117400000D03*
%TO.P,U3,3,GND*%
%TO.N,GND*%
X151265000Y-118050000D03*
%TO.P,U3,4,EN*%
%TO.N,/Regulators/+5V_reg*%
X153335000Y-118050000D03*
%TO.P,U3,5,N/C_5*%
%TO.N,unconnected-(U3-Pad5)*%
X153335000Y-117400000D03*
%TO.P,U3,6,IN*%
%TO.N,/Regulators/+5V_reg*%
X153335000Y-116750000D03*
D25*
%TO.P,U3,7,EXP*%
%TO.N,GND*%
X152300000Y-117400000D03*
%TD*%
D16*
%TO.P,R16,1*%
%TO.N,Net-(Q1-Pad1)*%
X148725000Y-125500000D03*
%TO.P,R16,2*%
%TO.N,GND*%
X147075000Y-125500000D03*
%TD*%
D14*
%TO.P,C1,1*%
%TO.N,GND*%
X138325000Y-88500000D03*
%TO.P,C1,2*%
%TO.N,Net-(C1-Pad2)*%
X139875000Y-88500000D03*
%TD*%
D26*
%TO.P,D2,1,K*%
%TO.N,VBUS*%
X139800000Y-134600000D03*
%TO.P,D2,2,A*%
%TO.N,Net-(D2-Pad2)*%
X139800000Y-130600000D03*
%TD*%
D23*
%TO.P,R4,1*%
%TO.N,/SCL*%
X154700000Y-85175000D03*
%TO.P,R4,2*%
%TO.N,+3V3*%
X154700000Y-86825000D03*
%TD*%
D14*
%TO.P,C6,1*%
%TO.N,+3V3*%
X155825000Y-90500000D03*
%TO.P,C6,2*%
%TO.N,GND*%
X157375000Y-90500000D03*
%TD*%
D16*
%TO.P,R21,1*%
%TO.N,Net-(D7-Pad5)*%
X144625000Y-80200000D03*
%TO.P,R21,2*%
%TO.N,/LEDs/G_a*%
X142975000Y-80200000D03*
%TD*%
D23*
%TO.P,R8,1*%
%TO.N,/MCU/~{RESET}*%
X152900000Y-101375000D03*
%TO.P,R8,2*%
%TO.N,Net-(C3-Pad1)*%
X152900000Y-103025000D03*
%TD*%
D27*
%TO.P,U4,1,VDDIO*%
%TO.N,+3V3*%
X155635000Y-82350000D03*
%TO.P,U4,2,SCK*%
%TO.N,/SCL*%
X155635000Y-82850000D03*
%TO.P,U4,3,VSS*%
%TO.N,GND*%
X155900000Y-83365000D03*
%TO.P,U4,4,SDI*%
%TO.N,/SDA*%
X156400000Y-83365000D03*
%TO.P,U4,5,SDO*%
%TO.N,GND*%
X156900000Y-83365000D03*
%TO.P,U4,6,CSB*%
%TO.N,+3V3*%
X157165000Y-82850000D03*
%TO.P,U4,7,INT*%
%TO.N,/Barometer/INTB*%
X157165000Y-82350000D03*
%TO.P,U4,8,VSS*%
%TO.N,GND*%
X156900000Y-81835000D03*
%TO.P,U4,9,VSS*%
X156400000Y-81835000D03*
%TO.P,U4,10,VDD*%
%TO.N,+3V3*%
X155900000Y-81835000D03*
%TD*%
D23*
%TO.P,R2,1*%
%TO.N,/VBAT*%
X160100000Y-125875000D03*
%TO.P,R2,2*%
%TO.N,/MCU/VDIV*%
X160100000Y-127525000D03*
%TD*%
D18*
%TO.P,R15,1*%
%TO.N,Net-(D4-Pad1)*%
X138175000Y-107900000D03*
%TO.P,R15,2*%
%TO.N,/CHG*%
X139825000Y-107900000D03*
%TD*%
%TO.P,R14,1*%
%TO.N,/PGOOD*%
X141975000Y-107900000D03*
%TO.P,R14,2*%
%TO.N,Net-(D3-Pad1)*%
X143625000Y-107900000D03*
%TD*%
D10*
%TO.P,J4,1,Pin_1*%
%TO.N,/~{THERM}*%
X141775000Y-102400000D03*
D11*
%TO.P,J4,2,Pin_2*%
%TO.N,+3V3*%
X139235000Y-102400000D03*
%TD*%
D28*
%TO.P,D7,1,RK*%
%TO.N,GND*%
X151700000Y-81900000D03*
%TO.P,D7,2,GK*%
X151700000Y-80200000D03*
%TO.P,D7,3,BK*%
X151700000Y-78500000D03*
%TO.P,D7,4,BA*%
%TO.N,Net-(D7-Pad4)*%
X146900000Y-78500000D03*
%TO.P,D7,5,GA*%
%TO.N,Net-(D7-Pad5)*%
X146900000Y-80200000D03*
%TO.P,D7,6,RA*%
%TO.N,Net-(D7-Pad6)*%
X146900000Y-81900000D03*
%TD*%
D16*
%TO.P,R20,1*%
%TO.N,Net-(D7-Pad6)*%
X144625000Y-81900000D03*
%TO.P,R20,2*%
%TO.N,/LEDs/R_a*%
X142975000Y-81900000D03*
%TD*%
D18*
%TO.P,R13,1*%
%TO.N,GND*%
X137825000Y-120462500D03*
%TO.P,R13,2*%
%TO.N,Net-(R13-Pad2)*%
X139475000Y-120462500D03*
%TD*%
D29*
%TO.P,C19,1*%
%TO.N,+3V3*%
X148275000Y-111300000D03*
%TO.P,C19,2*%
%TO.N,GND*%
X146725000Y-111300000D03*
%TD*%
D18*
%TO.P,R23,1*%
%TO.N,/I2C Active Terminator/EN*%
X150775000Y-114200000D03*
%TO.P,R23,2*%
%TO.N,+3V3*%
X152425000Y-114200000D03*
%TD*%
D30*
%TO.P,R7,1*%
%TO.N,+3V3*%
X154800000Y-103025000D03*
%TO.P,R7,2*%
%TO.N,/MCU/~{RESET}*%
X154800000Y-101375000D03*
%TD*%
D15*
%TO.P,C17,1*%
%TO.N,+3V3*%
X155900000Y-80275000D03*
%TO.P,C17,2*%
%TO.N,GND*%
X155900000Y-78725000D03*
%TD*%
D17*
%TO.P,C10,1*%
%TO.N,/VBAT*%
X160000000Y-120725000D03*
%TO.P,C10,2*%
%TO.N,GND*%
X160000000Y-122275000D03*
%TD*%
D31*
%TO.P,U5,1,VCC*%
%TO.N,+3V3*%
X150634800Y-111150000D03*
%TO.P,U5,2,GND_2*%
%TO.N,GND*%
X150634800Y-111800000D03*
%TO.P,U5,3,ENABLE*%
%TO.N,/I2C Active Terminator/EN*%
X150634800Y-112450000D03*
%TO.P,U5,4,BUS2*%
%TO.N,/SDA*%
X152565200Y-112450000D03*
%TO.P,U5,5,GND*%
%TO.N,GND*%
X152565200Y-111800000D03*
%TO.P,U5,6,BUS1*%
%TO.N,/SCL*%
X152565200Y-111150000D03*
%TD*%
D14*
%TO.P,C11,1*%
%TO.N,/VBAT*%
X161825000Y-120800000D03*
%TO.P,C11,2*%
%TO.N,GND*%
X163375000Y-120800000D03*
%TD*%
D18*
%TO.P,R6,1*%
%TO.N,/~{THERM}*%
X144875000Y-102300000D03*
%TO.P,R6,2*%
%TO.N,GND*%
X146525000Y-102300000D03*
%TD*%
D32*
%TO.P,D4,1,K*%
%TO.N,Net-(D4-Pad1)*%
X138212500Y-106100000D03*
%TO.P,D4,2,A*%
%TO.N,+3V3*%
X139787500Y-106100000D03*
%TD*%
D33*
%TO.P,U2,17,VSS*%
%TO.N,GND*%
X142850000Y-114862500D03*
D34*
%TO.P,U2,16,ISET*%
%TO.N,Net-(R12-Pad2)*%
X141412500Y-115612500D03*
%TO.P,U2,15,ITERM*%
%TO.N,Net-(R9-Pad2)*%
X141412500Y-115112500D03*
%TO.P,U2,14,TMR*%
%TO.N,GND*%
X141412500Y-114612500D03*
%TO.P,U2,13,IN*%
%TO.N,VBUS*%
X141412500Y-114112500D03*
D35*
%TO.P,U2,12,ILIM*%
%TO.N,Net-(R11-Pad2)*%
X142100000Y-113425000D03*
%TO.P,U2,11,OUT*%
%TO.N,/LiPo/SOUT*%
X142600000Y-113425000D03*
%TO.P,U2,10,OUT*%
X143100000Y-113425000D03*
%TO.P,U2,9,~{CHG}*%
%TO.N,/CHG*%
X143600000Y-113425000D03*
D34*
%TO.P,U2,8,VSS*%
%TO.N,GND*%
X144287500Y-114112500D03*
%TO.P,U2,7,~{PGOOD}*%
%TO.N,/PGOOD*%
X144287500Y-114612500D03*
%TO.P,U2,6,EN1*%
%TO.N,GND*%
X144287500Y-115112500D03*
%TO.P,U2,5,EN2*%
%TO.N,/LiPo/SOUT*%
X144287500Y-115612500D03*
D35*
%TO.P,U2,4,~{CE}*%
%TO.N,Net-(R10-Pad2)*%
X143600000Y-116300000D03*
%TO.P,U2,3,BAT*%
%TO.N,/VBAT*%
X143100000Y-116300000D03*
%TO.P,U2,2,BAT*%
X142600000Y-116300000D03*
%TO.P,U2,1,TS*%
%TO.N,Net-(R13-Pad2)*%
X142100000Y-116300000D03*
%TD*%
D36*
%TO.P,D3,1,K*%
%TO.N,Net-(D3-Pad1)*%
X143487500Y-106100000D03*
%TO.P,D3,2,A*%
%TO.N,+3V3*%
X141912500Y-106100000D03*
%TD*%
D37*
%TO.P,Q1,1*%
%TO.N,Net-(Q1-Pad1)*%
X142030000Y-122085000D03*
%TO.P,Q1,2*%
%TO.N,VBUS*%
X142030000Y-123915000D03*
%TO.P,Q1,3*%
%TO.N,/Regulators/+5V_reg*%
X144170000Y-123000000D03*
%TD*%
D18*
%TO.P,R17,1*%
%TO.N,Net-(Q1-Pad1)*%
X147075000Y-123700000D03*
%TO.P,R17,2*%
%TO.N,/LiPo/SOUT*%
X148725000Y-123700000D03*
%TD*%
D38*
%TO.P,Y1,1,1*%
%TO.N,Net-(C1-Pad2)*%
X142200000Y-88550000D03*
%TO.P,Y1,2,2*%
%TO.N,Net-(C2-Pad2)*%
X142200000Y-91050000D03*
%TD*%
D39*
%TO.P,J1,1,Pin_1*%
%TO.N,GND*%
X163200000Y-127500000D03*
D13*
%TO.P,J1,2,Pin_2*%
%TO.N,/VBAT*%
X163200000Y-125000000D03*
%TD*%
D16*
%TO.P,R3,1*%
%TO.N,/MCU/VDIV*%
X158325000Y-127400000D03*
%TO.P,R3,2*%
%TO.N,GND*%
X156675000Y-127400000D03*
%TD*%
D30*
%TO.P,R10,1*%
%TO.N,GND*%
X144400000Y-119625000D03*
%TO.P,R10,2*%
%TO.N,Net-(R10-Pad2)*%
X144400000Y-117975000D03*
%TD*%
D18*
%TO.P,R9,1*%
%TO.N,GND*%
X137825000Y-116862500D03*
%TO.P,R9,2*%
%TO.N,Net-(R9-Pad2)*%
X139475000Y-116862500D03*
%TD*%
D40*
%TO.P,SW1,1,1*%
%TO.N,/MCU/~{RESET}*%
X147325000Y-105825000D03*
%TO.P,SW1,2,2*%
X151475000Y-105825000D03*
%TO.P,SW1,3,3*%
%TO.N,GND*%
X147325000Y-107975000D03*
%TO.P,SW1,4,4*%
X151475000Y-107975000D03*
%TD*%
D29*
%TO.P,C16,1*%
%TO.N,+3V3*%
X148375000Y-113300000D03*
%TO.P,C16,2*%
%TO.N,GND*%
X146825000Y-113300000D03*
%TD*%
D41*
%TO.P,U1,1,PA00*%
%TO.N,Net-(C1-Pad2)*%
X145237500Y-90150000D03*
%TO.P,U1,2,PA01*%
%TO.N,Net-(C2-Pad2)*%
X145237500Y-90650000D03*
%TO.P,U1,3,PA02*%
%TO.N,/MCU/VDIV*%
X145237500Y-91150000D03*
%TO.P,U1,4,PA03*%
%TO.N,unconnected-(U1-Pad4)*%
X145237500Y-91650000D03*
%TO.P,U1,5,GNDANA*%
%TO.N,GND*%
X145237500Y-92150000D03*
%TO.P,U1,6,VDDANA*%
%TO.N,+3V3*%
X145237500Y-92650000D03*
%TO.P,U1,7,PB08*%
%TO.N,/CS1*%
X145237500Y-93150000D03*
%TO.P,U1,8,PB09*%
%TO.N,/CS*%
X145237500Y-93650000D03*
%TO.P,U1,9,PA04*%
%TO.N,/CHG*%
X145237500Y-94150000D03*
%TO.P,U1,10,PA05*%
%TO.N,/PGOOD*%
X145237500Y-94650000D03*
%TO.P,U1,11,PA06*%
%TO.N,/MCU/GPIO1*%
X145237500Y-95150000D03*
%TO.P,U1,12,PA07*%
%TO.N,/MCU/GPIO2*%
X145237500Y-95650000D03*
D42*
%TO.P,U1,13,PA08*%
%TO.N,/MCU/GPIO3*%
X146650000Y-97062500D03*
%TO.P,U1,14,PA09*%
%TO.N,/MCU/GPIO4*%
X147150000Y-97062500D03*
%TO.P,U1,15,PA10*%
%TO.N,/TX*%
X147650000Y-97062500D03*
%TO.P,U1,16,PA11*%
%TO.N,/RX*%
X148150000Y-97062500D03*
%TO.P,U1,17,VDDIO*%
%TO.N,+3V3*%
X148650000Y-97062500D03*
%TO.P,U1,18,GND*%
%TO.N,GND*%
X149150000Y-97062500D03*
%TO.P,U1,19,PB10*%
%TO.N,/MOSI*%
X149650000Y-97062500D03*
%TO.P,U1,20,PB11*%
%TO.N,/SCK*%
X150150000Y-97062500D03*
%TO.P,U1,21,PA12*%
%TO.N,/MISO*%
X150650000Y-97062500D03*
%TO.P,U1,22,PA13*%
%TO.N,unconnected-(U1-Pad22)*%
X151150000Y-97062500D03*
%TO.P,U1,23,PA14*%
%TO.N,/IRQ*%
X151650000Y-97062500D03*
%TO.P,U1,24,PA15*%
%TO.N,/LEDs/R_a*%
X152150000Y-97062500D03*
D41*
%TO.P,U1,25,PA16*%
%TO.N,/LEDs/G_a*%
X153562500Y-95650000D03*
%TO.P,U1,26,PA17*%
%TO.N,/LEDs/B_a*%
X153562500Y-95150000D03*
%TO.P,U1,27,PA18*%
%TO.N,/RST*%
X153562500Y-94650000D03*
%TO.P,U1,28,PA19*%
%TO.N,/CS2*%
X153562500Y-94150000D03*
%TO.P,U1,29,PA20*%
%TO.N,/CS3*%
X153562500Y-93650000D03*
%TO.P,U1,30,PA21*%
%TO.N,/Barometer/INTB*%
X153562500Y-93150000D03*
%TO.P,U1,31,PA22*%
%TO.N,/SDA*%
X153562500Y-92650000D03*
%TO.P,U1,32,PA23*%
%TO.N,/SCL*%
X153562500Y-92150000D03*
%TO.P,U1,33,PA24*%
%TO.N,/D-*%
X153562500Y-91650000D03*
%TO.P,U1,34,PA25*%
%TO.N,/D+*%
X153562500Y-91150000D03*
%TO.P,U1,35,GND*%
%TO.N,GND*%
X153562500Y-90650000D03*
%TO.P,U1,36,VDDIO*%
%TO.N,+3V3*%
X153562500Y-90150000D03*
D42*
%TO.P,U1,37,PB22*%
%TO.N,unconnected-(U1-Pad37)*%
X152150000Y-88737500D03*
%TO.P,U1,38,PB23*%
%TO.N,unconnected-(U1-Pad38)*%
X151650000Y-88737500D03*
%TO.P,U1,39,PA27*%
%TO.N,unconnected-(U1-Pad39)*%
X151150000Y-88737500D03*
%TO.P,U1,40,~{RESET}*%
%TO.N,Net-(C3-Pad1)*%
X150650000Y-88737500D03*
%TO.P,U1,41,PA28*%
%TO.N,unconnected-(U1-Pad41)*%
X150150000Y-88737500D03*
%TO.P,U1,42,GND*%
%TO.N,GND*%
X149650000Y-88737500D03*
%TO.P,U1,43,VDDCORE*%
%TO.N,Net-(C5-Pad2)*%
X149150000Y-88737500D03*
%TO.P,U1,44,VDDIN*%
%TO.N,Net-(C4-Pad2)*%
X148650000Y-88737500D03*
%TO.P,U1,45,PA30*%
%TO.N,/SWCLK*%
X148150000Y-88737500D03*
%TO.P,U1,46,PA31*%
%TO.N,/SWDIO*%
X147650000Y-88737500D03*
%TO.P,U1,47,PB02*%
%TO.N,unconnected-(U1-Pad47)*%
X147150000Y-88737500D03*
%TO.P,U1,48,PB03*%
%TO.N,unconnected-(U1-Pad48)*%
X146650000Y-88737500D03*
%TD*%
D30*
%TO.P,R5,1*%
%TO.N,+3V3*%
X156400000Y-86825000D03*
%TO.P,R5,2*%
%TO.N,/SDA*%
X156400000Y-85175000D03*
%TD*%
D17*
%TO.P,C13,1*%
%TO.N,/LiPo/SOUT*%
X148050000Y-116987500D03*
%TO.P,C13,2*%
%TO.N,GND*%
X148050000Y-118537500D03*
%TD*%
D36*
%TO.P,D1,1,K*%
%TO.N,/VBAT*%
X158387500Y-125600000D03*
%TO.P,D1,2,A*%
%TO.N,Net-(D1-Pad2)*%
X156812500Y-125600000D03*
%TD*%
D18*
%TO.P,R18,1*%
%TO.N,Net-(J10-PadA5)*%
X148075000Y-128900000D03*
%TO.P,R18,2*%
%TO.N,GND*%
X149725000Y-128900000D03*
%TD*%
D43*
%TO.P,D6,1,K*%
%TO.N,VBUS*%
X139600000Y-126800000D03*
%TO.P,D6,2,A*%
%TO.N,Net-(D6-Pad2)*%
X143600000Y-126800000D03*
%TD*%
D18*
%TO.P,R11,1*%
%TO.N,GND*%
X140275000Y-111200000D03*
%TO.P,R11,2*%
%TO.N,Net-(R11-Pad2)*%
X141925000Y-111200000D03*
%TD*%
D17*
%TO.P,C12,1*%
%TO.N,/LiPo/SOUT*%
X146350000Y-116987500D03*
%TO.P,C12,2*%
%TO.N,GND*%
X146350000Y-118537500D03*
%TD*%
D44*
%TO.P,D5,A,A*%
%TO.N,/LiPo/SOUT*%
X156750000Y-122100000D03*
%TO.P,D5,C,K*%
%TO.N,/Regulators/+5V_reg*%
X152450000Y-122100000D03*
%TD*%
D17*
%TO.P,C7,1*%
%TO.N,+3V3*%
X148800000Y-99425000D03*
%TO.P,C7,2*%
%TO.N,GND*%
X148800000Y-100975000D03*
%TD*%
D45*
%TO.N,GND*%
X155500000Y-84100000D03*
X149500000Y-90200000D03*
X138325000Y-89775000D03*
X137900000Y-115900000D03*
X149200000Y-95800000D03*
X146600000Y-91500000D03*
X159000000Y-81000000D03*
X149100000Y-127800000D03*
X152400000Y-107500000D03*
X149400000Y-112200000D03*
X153300000Y-82900000D03*
X158900000Y-89900000D03*
X145200000Y-109500000D03*
X159200000Y-85400000D03*
X146800000Y-103500000D03*
X142850000Y-114862500D03*
X164800000Y-120700000D03*
X148400000Y-102300000D03*
X154900000Y-115300000D03*
X145800000Y-133600000D03*
X149200000Y-115400000D03*
X158950000Y-79550000D03*
X155500000Y-84100000D03*
X154000000Y-77400000D03*
X150500000Y-91200000D03*
X147200000Y-126700000D03*
X148500000Y-136100000D03*
X153300000Y-127100000D03*
X152000000Y-133800000D03*
X146300000Y-119600000D03*
X152600000Y-84100000D03*
X159700000Y-123600000D03*
X139789355Y-112439442D03*
%TO.N,Net-(C3-Pad1)*%
X152900000Y-104600000D03*
X150600000Y-86300000D03*
%TO.N,Net-(C4-Pad2)*%
X148300000Y-86300000D03*
%TO.N,Net-(C5-Pad2)*%
X149300000Y-86200000D03*
%TO.N,+3V3*%
X149300000Y-114300000D03*
X151900000Y-90100000D03*
X154800000Y-104100000D03*
X154300000Y-114200000D03*
X154000000Y-81300000D03*
X146500000Y-92700000D03*
X158900000Y-83900000D03*
X145200000Y-106100000D03*
X146800000Y-100600000D03*
X146800000Y-100600000D03*
%TO.N,/LiPo/SOUT*%
X149300000Y-117900000D03*
X149700000Y-123900000D03*
%TO.N,/Regulators/+5V_reg*%
X152400000Y-124200000D03*
X157000000Y-116700000D03*
%TO.N,Net-(D2-Pad2)*%
X142300000Y-130600000D03*
%TO.N,Net-(D6-Pad2)*%
X147700000Y-134300000D03*
X151000000Y-133900000D03*
%TO.N,/MISO*%
X157100000Y-99700000D03*
X149500000Y-104100000D03*
%TO.N,/MOSI*%
X157226500Y-104600000D03*
X149400000Y-102900000D03*
%TO.N,/SCK*%
X149100000Y-109800000D03*
X156950000Y-100850000D03*
X154800000Y-107500000D03*
X156800000Y-106200000D03*
%TO.N,/SDA*%
X158000000Y-85300000D03*
X156300000Y-112500000D03*
X157400000Y-94500000D03*
%TO.N,/SCL*%
X158150000Y-92150000D03*
%TO.N,/CS1*%
X137100000Y-109000000D03*
X140700000Y-92700000D03*
%TO.N,/CS*%
X136200000Y-105600000D03*
X138100000Y-93400000D03*
%TO.N,/SWCLK*%
X153700000Y-88600000D03*
%TO.N,/D+*%
X150500000Y-127100000D03*
X151400000Y-92200000D03*
%TO.N,/D-*%
X151500000Y-93400000D03*
X150000000Y-130500000D03*
%TO.N,Net-(J10-PadB5)*%
X149700000Y-133900000D03*
%TO.N,/MCU/VDIV*%
X143100000Y-92500000D03*
X150100000Y-126000000D03*
%TO.N,/PGOOD*%
X142450000Y-109250000D03*
X145230500Y-114600000D03*
X139300000Y-94700000D03*
X145200000Y-111300000D03*
%TO.N,/CHG*%
X139300000Y-93773497D03*
X144790631Y-113278869D03*
X139825000Y-109375000D03*
X143800000Y-111500000D03*
%TO.N,/LEDs/G_a*%
X141000000Y-80200000D03*
X154000000Y-97300000D03*
%TO.N,/LEDs/B_a*%
X155400000Y-97800000D03*
X142900000Y-77000000D03*
%TO.N,/CS3*%
X157400000Y-97400000D03*
X160300000Y-97900000D03*
X155761695Y-93794527D03*
%TO.N,/IRQ*%
X155500000Y-99000000D03*
X156100000Y-102600000D03*
%TO.N,/Barometer/INTB*%
X156600000Y-93400000D03*
X158600000Y-82400000D03*
%TD*%
D46*
%TO.N,GND*%
X143100000Y-115112500D02*
X142850000Y-114862500D01*
X151265000Y-118050000D02*
X151650000Y-118050000D01*
X149650000Y-90050000D02*
X149500000Y-90200000D01*
D47*
X138325000Y-89775000D02*
X138325000Y-91100000D01*
D46*
X146525000Y-103225000D02*
X146800000Y-103500000D01*
X146525000Y-102300000D02*
X146525000Y-103225000D01*
X163375000Y-120800000D02*
X164700000Y-120800000D01*
X156900000Y-81835000D02*
X158165000Y-81835000D01*
X153550000Y-115300000D02*
X154900000Y-115300000D01*
X148025000Y-115262500D02*
X149062500Y-115262500D01*
D47*
X155900000Y-83365000D02*
X155900000Y-83700000D01*
D46*
X149725000Y-128425000D02*
X149100000Y-127800000D01*
X164700000Y-120800000D02*
X164800000Y-120700000D01*
X151700000Y-91300000D02*
X150600000Y-91300000D01*
X147075000Y-126575000D02*
X147200000Y-126700000D01*
X155200000Y-118175000D02*
X154475000Y-118900000D01*
D47*
X152000000Y-132730000D02*
X152100000Y-132830000D01*
D46*
X152350000Y-90650000D02*
X151700000Y-91300000D01*
D47*
X142262500Y-114862500D02*
X142000000Y-114600000D01*
X152100000Y-133700000D02*
X152000000Y-133800000D01*
D46*
X146725000Y-111300000D02*
X146725000Y-111025000D01*
X149150000Y-97062500D02*
X149150000Y-95850000D01*
X146350000Y-119550000D02*
X146350000Y-118537500D01*
X152300000Y-117400000D02*
X152300000Y-118900000D01*
D47*
X146000000Y-132730000D02*
X145900000Y-132830000D01*
D46*
X158950000Y-79550000D02*
X159000000Y-79600000D01*
D47*
X142000000Y-114600000D02*
X141425000Y-114600000D01*
D46*
X153525000Y-127325000D02*
X153300000Y-127100000D01*
X147075000Y-125500000D02*
X147075000Y-126575000D01*
X139187500Y-114612500D02*
X137900000Y-115900000D01*
D47*
X142850000Y-114862500D02*
X142262500Y-114862500D01*
D46*
X149800000Y-111800000D02*
X149400000Y-112200000D01*
D47*
X152100000Y-132830000D02*
X152100000Y-133700000D01*
D46*
X137825000Y-116862500D02*
X137825000Y-118562500D01*
X151700000Y-81900000D02*
X152700000Y-82900000D01*
X146300000Y-119600000D02*
X146350000Y-119550000D01*
D47*
X141425000Y-114600000D02*
X141412500Y-114612500D01*
D46*
X151650000Y-118050000D02*
X152300000Y-117400000D01*
X156600000Y-127325000D02*
X156675000Y-127400000D01*
X151700000Y-78500000D02*
X152900000Y-78500000D01*
D47*
X146000000Y-131530000D02*
X146000000Y-132730000D01*
D46*
X151265000Y-118365000D02*
X151265000Y-118050000D01*
X151475000Y-107975000D02*
X151950000Y-107500000D01*
X152900000Y-78500000D02*
X154000000Y-77400000D01*
X140275000Y-111925000D02*
X139789355Y-112439442D01*
X150600000Y-91300000D02*
X150500000Y-91200000D01*
X151700000Y-80200000D02*
X151700000Y-78500000D01*
X141412500Y-114612500D02*
X139187500Y-114612500D01*
X160000000Y-123300000D02*
X159700000Y-123600000D01*
X156400000Y-81835000D02*
X156900000Y-81835000D01*
X160000000Y-122275000D02*
X160000000Y-123300000D01*
X146725000Y-111025000D02*
X145200000Y-109500000D01*
X137825000Y-120462500D02*
X137825000Y-118562500D01*
X145237500Y-92150000D02*
X145950000Y-92150000D01*
X151800000Y-118900000D02*
X151265000Y-118365000D01*
X155000000Y-127325000D02*
X156600000Y-127325000D01*
X158125000Y-78725000D02*
X158950000Y-79550000D01*
X146825000Y-113300000D02*
X146825000Y-111400000D01*
X157165000Y-83365000D02*
X159200000Y-85400000D01*
X152300000Y-116550000D02*
X153550000Y-115300000D01*
X158900000Y-89900000D02*
X158300000Y-90500000D01*
X149150000Y-95850000D02*
X149200000Y-95800000D01*
X151700000Y-81900000D02*
X151700000Y-80200000D01*
X155000000Y-127325000D02*
X153525000Y-127325000D01*
X137825000Y-115975000D02*
X137900000Y-115900000D01*
X147850000Y-100975000D02*
X146525000Y-102300000D01*
X156900000Y-83365000D02*
X157165000Y-83365000D01*
X144287500Y-114112500D02*
X143600000Y-114112500D01*
X150634800Y-111800000D02*
X149800000Y-111800000D01*
X137825000Y-116862500D02*
X137825000Y-115975000D01*
X158165000Y-81835000D02*
X159000000Y-81000000D01*
X152565200Y-111800000D02*
X150634800Y-111800000D01*
X145950000Y-92150000D02*
X146600000Y-91500000D01*
X152700000Y-82900000D02*
X153300000Y-82900000D01*
D47*
X145900000Y-133500000D02*
X145800000Y-133600000D01*
D46*
X151950000Y-107500000D02*
X152400000Y-107500000D01*
X146275000Y-119625000D02*
X146300000Y-119600000D01*
X158300000Y-90500000D02*
X157375000Y-90500000D01*
D47*
X145900000Y-132830000D02*
X145900000Y-133500000D01*
X155900000Y-83700000D02*
X155500000Y-84100000D01*
D46*
X148800000Y-100975000D02*
X147850000Y-100975000D01*
X149725000Y-128900000D02*
X149725000Y-128425000D01*
X144287500Y-115112500D02*
X143100000Y-115112500D01*
X157800000Y-78725000D02*
X158125000Y-78725000D01*
X139789355Y-112439442D02*
X139800000Y-112400000D01*
X149650000Y-88737500D02*
X149650000Y-90050000D01*
X149062500Y-115262500D02*
X149200000Y-115400000D01*
X153562500Y-90650000D02*
X152350000Y-90650000D01*
X140275000Y-111200000D02*
X140275000Y-111925000D01*
X143600000Y-114112500D02*
X142850000Y-114862500D01*
X147325000Y-107975000D02*
X145800000Y-109500000D01*
D47*
X138325000Y-88500000D02*
X138325000Y-89775000D01*
D46*
X148050000Y-118537500D02*
X146350000Y-118537500D01*
X144400000Y-119625000D02*
X146275000Y-119625000D01*
X152300000Y-118900000D02*
X151800000Y-118900000D01*
X154475000Y-118900000D02*
X152300000Y-118900000D01*
X148800000Y-101900000D02*
X148400000Y-102300000D01*
D47*
X152000000Y-131530000D02*
X152000000Y-132730000D01*
D46*
X148800000Y-100975000D02*
X148800000Y-101900000D01*
X152300000Y-117400000D02*
X152300000Y-116550000D01*
X155900000Y-78725000D02*
X157800000Y-78725000D01*
X145800000Y-109500000D02*
X145200000Y-109500000D01*
X146825000Y-111400000D02*
X146725000Y-111300000D01*
%TO.N,Net-(C1-Pad2)*%
X145237500Y-88937500D02*
X144850000Y-88550000D01*
X139925000Y-88550000D02*
X139875000Y-88500000D01*
X144850000Y-88550000D02*
X142200000Y-88550000D01*
X145237500Y-90150000D02*
X145237500Y-88937500D01*
X142200000Y-88550000D02*
X139925000Y-88550000D01*
%TO.N,Net-(C2-Pad2)*%
X145237500Y-90650000D02*
X143550000Y-90650000D01*
X139925000Y-91050000D02*
X139875000Y-91100000D01*
X143550000Y-90650000D02*
X143150000Y-91050000D01*
X143150000Y-91050000D02*
X142200000Y-91050000D01*
X142200000Y-91050000D02*
X139925000Y-91050000D01*
D47*
%TO.N,Net-(C3-Pad1)*%
X152900000Y-103025000D02*
X152900000Y-104600000D01*
D46*
X150650000Y-86350000D02*
X150650000Y-88737500D01*
X150600000Y-86300000D02*
X150650000Y-86350000D01*
%TO.N,Net-(C4-Pad2)*%
X148300000Y-87021377D02*
X148650000Y-87371377D01*
X148300000Y-86300000D02*
X148300000Y-87021377D01*
X148650000Y-87371377D02*
X148650000Y-88737500D01*
%TO.N,Net-(C5-Pad2)*%
X149150000Y-86350000D02*
X149150000Y-88737500D01*
X149300000Y-86200000D02*
X149150000Y-86350000D01*
%TO.N,+3V3*%
X141912500Y-106100000D02*
X142712500Y-105300000D01*
X148275000Y-113200000D02*
X148375000Y-113300000D01*
D47*
X145237500Y-92650000D02*
X146450000Y-92650000D01*
D46*
X148275000Y-99425000D02*
X147300000Y-100400000D01*
X155050000Y-82350000D02*
X154200000Y-81500000D01*
X147100000Y-100600000D02*
X146800000Y-100600000D01*
X148425000Y-111150000D02*
X148275000Y-111300000D01*
X148275000Y-111300000D02*
X148275000Y-113200000D01*
X148025000Y-111550000D02*
X148275000Y-111300000D01*
X157165000Y-82850000D02*
X157850000Y-82850000D01*
X144800000Y-105300000D02*
X145200000Y-105700000D01*
X145200000Y-105700000D02*
X145200000Y-106100000D01*
X151950000Y-90150000D02*
X151900000Y-90100000D01*
D47*
X146450000Y-92650000D02*
X146500000Y-92700000D01*
D46*
X139787500Y-106100000D02*
X141912500Y-106100000D01*
X151265000Y-116750000D02*
X151265000Y-116135000D01*
X157850000Y-82850000D02*
X158900000Y-83900000D01*
X150634800Y-111150000D02*
X148425000Y-111150000D01*
X155900000Y-80275000D02*
X157800000Y-80275000D01*
X152425000Y-114975000D02*
X152425000Y-114200000D01*
X148650000Y-99375000D02*
X148600000Y-99425000D01*
X147300000Y-100400000D02*
X147100000Y-100600000D01*
X155635000Y-82350000D02*
X155050000Y-82350000D01*
X148800000Y-99425000D02*
X148275000Y-99425000D01*
X154800000Y-103025000D02*
X154800000Y-104100000D01*
X155635000Y-82100000D02*
X155900000Y-81835000D01*
X148650000Y-97062500D02*
X148650000Y-99375000D01*
X154700000Y-86825000D02*
X156400000Y-86825000D01*
X148375000Y-113375000D02*
X149300000Y-114300000D01*
X151265000Y-116135000D02*
X152425000Y-114975000D01*
X155475000Y-90150000D02*
X155825000Y-90500000D01*
X152425000Y-114200000D02*
X154300000Y-114200000D01*
X154200000Y-81500000D02*
X154000000Y-81300000D01*
X148375000Y-113300000D02*
X148375000Y-113375000D01*
X142712500Y-105300000D02*
X144800000Y-105300000D01*
X158645000Y-86825000D02*
X160200000Y-88380000D01*
X156400000Y-86825000D02*
X158645000Y-86825000D01*
X155635000Y-82350000D02*
X155635000Y-82100000D01*
X155900000Y-81835000D02*
X155900000Y-80275000D01*
X153562500Y-90150000D02*
X151950000Y-90150000D01*
X153562500Y-90150000D02*
X155475000Y-90150000D01*
D47*
%TO.N,/VBAT*%
X143100000Y-116300000D02*
X143100000Y-116548480D01*
D48*
X148800000Y-119800000D02*
X147900000Y-120700000D01*
X142848480Y-119948480D02*
X142848480Y-116800000D01*
X160975000Y-125000000D02*
X160100000Y-125875000D01*
X160075000Y-120800000D02*
X160000000Y-120725000D01*
X159825000Y-125600000D02*
X160100000Y-125875000D01*
X160000000Y-120725000D02*
X159075000Y-119800000D01*
X163200000Y-125000000D02*
X161825000Y-123625000D01*
D47*
X143100000Y-116548480D02*
X142848480Y-116800000D01*
D48*
X163200000Y-125000000D02*
X160975000Y-125000000D01*
X147900000Y-120700000D02*
X143600000Y-120700000D01*
X161825000Y-123625000D02*
X161825000Y-120800000D01*
X143600000Y-120700000D02*
X142848480Y-119948480D01*
X159075000Y-119800000D02*
X148800000Y-119800000D01*
D47*
X142600000Y-116551520D02*
X142848480Y-116800000D01*
D48*
X161825000Y-120800000D02*
X160075000Y-120800000D01*
X158387500Y-125600000D02*
X159825000Y-125600000D01*
D47*
X142600000Y-116300000D02*
X142600000Y-116551520D01*
D46*
%TO.N,/LiPo/SOUT*%
X146350000Y-116987500D02*
X148050000Y-116987500D01*
X143100000Y-112500000D02*
X143100000Y-113425000D01*
X144287500Y-115612500D02*
X146125000Y-115612500D01*
D49*
X156750000Y-122422546D02*
X153672546Y-125500000D01*
D50*
X143100000Y-112500000D02*
X145100000Y-112500000D01*
D46*
X142600000Y-112800000D02*
X143000000Y-112400000D01*
X146350000Y-115387500D02*
X146475000Y-115262500D01*
D49*
X149900000Y-123700000D02*
X148725000Y-123700000D01*
D50*
X146000000Y-113400000D02*
X146000000Y-115500000D01*
D46*
X146125000Y-115612500D02*
X146475000Y-115262500D01*
D50*
X145100000Y-112500000D02*
X146000000Y-113400000D01*
D49*
X149300000Y-117900000D02*
X148600000Y-117200000D01*
X153672546Y-125500000D02*
X151600000Y-125500000D01*
D46*
X146350000Y-116987500D02*
X146350000Y-115387500D01*
D49*
X156750000Y-122100000D02*
X156750000Y-122422546D01*
D46*
X148387500Y-116987500D02*
X148600000Y-117200000D01*
X148050000Y-116987500D02*
X148387500Y-116987500D01*
X143000000Y-112400000D02*
X143100000Y-112500000D01*
D49*
X150000000Y-123800000D02*
X149900000Y-123700000D01*
D46*
X142600000Y-113425000D02*
X142600000Y-112800000D01*
D49*
X151600000Y-125500000D02*
X150000000Y-123900000D01*
X150000000Y-123900000D02*
X150000000Y-123800000D01*
D47*
%TO.N,/Regulators/+5V_reg*%
X153335000Y-118050000D02*
X153565602Y-118050000D01*
D46*
X155075000Y-116750000D02*
X155200000Y-116625000D01*
D47*
X153565602Y-118050000D02*
X154990602Y-116625000D01*
D48*
X152400000Y-124200000D02*
X152450000Y-124150000D01*
D49*
X152000000Y-122050000D02*
X152450000Y-121600000D01*
D48*
X145070000Y-122100000D02*
X144170000Y-123000000D01*
X157000000Y-116700000D02*
X155275000Y-116700000D01*
X155275000Y-116700000D02*
X155200000Y-116625000D01*
X152450000Y-124150000D02*
X152450000Y-122100000D01*
D46*
X153335000Y-116750000D02*
X155075000Y-116750000D01*
D47*
X154990602Y-116625000D02*
X155200000Y-116625000D01*
D48*
X152450000Y-122100000D02*
X145070000Y-122100000D01*
D46*
%TO.N,Net-(D1-Pad2)*%
X156737500Y-125675000D02*
X156812500Y-125600000D01*
X155000000Y-125675000D02*
X156737500Y-125675000D01*
D48*
%TO.N,VBUS*%
X139600000Y-126000000D02*
X135900000Y-122300000D01*
X137900000Y-128500000D02*
X138300000Y-128100000D01*
X137900000Y-132350000D02*
X137900000Y-128500000D01*
X139800000Y-134250000D02*
X137900000Y-132350000D01*
X135900000Y-122300000D02*
X135900000Y-115100000D01*
X142030000Y-123915000D02*
X142030000Y-124370000D01*
D46*
X141412500Y-114112500D02*
X136887500Y-114112500D01*
D48*
X138300000Y-128100000D02*
X139600000Y-126800000D01*
X139800000Y-134600000D02*
X139800000Y-134250000D01*
X142030000Y-124370000D02*
X139600000Y-126800000D01*
X139600000Y-126800000D02*
X139600000Y-126000000D01*
X135900000Y-115100000D02*
X136887500Y-114112500D01*
D49*
%TO.N,Net-(D2-Pad2)*%
X142300000Y-130600000D02*
X139800000Y-130600000D01*
D47*
%TO.N,Net-(D3-Pad1)*%
X143487500Y-107762500D02*
X143625000Y-107900000D01*
X143625000Y-106237500D02*
X143487500Y-106100000D01*
X143625000Y-107900000D02*
X143625000Y-106237500D01*
%TO.N,Net-(D4-Pad1)*%
X138212500Y-107862500D02*
X138175000Y-107900000D01*
X138212500Y-106100000D02*
X138212500Y-107862500D01*
%TO.N,Net-(D6-Pad2)*%
X150500000Y-131530000D02*
X150500000Y-132253489D01*
X147750000Y-134250000D02*
X147700000Y-134300000D01*
D49*
X146900000Y-130600000D02*
X147000000Y-130600000D01*
D47*
X147500000Y-131530000D02*
X147500000Y-131100000D01*
X147500000Y-132126978D02*
X147750000Y-132376978D01*
X150770000Y-133900000D02*
X151000000Y-133900000D01*
X147750000Y-132830000D02*
X147750000Y-134250000D01*
D49*
X143600000Y-126800000D02*
X146900000Y-130100000D01*
D47*
X150250000Y-132830000D02*
X150250000Y-133380000D01*
D49*
X146900000Y-130100000D02*
X146900000Y-130600000D01*
D47*
X150250000Y-132503489D02*
X150250000Y-132830000D01*
X150250000Y-133380000D02*
X150770000Y-133900000D01*
X147750000Y-132376978D02*
X147750000Y-132830000D01*
X147500000Y-131530000D02*
X147500000Y-132126978D01*
X147500000Y-131100000D02*
X147000000Y-130600000D01*
X150500000Y-132253489D02*
X150250000Y-132503489D01*
D46*
%TO.N,Net-(D7-Pad4)*%
X146900000Y-78500000D02*
X144625000Y-78500000D01*
%TO.N,Net-(D7-Pad5)*%
X144625000Y-80200000D02*
X146900000Y-80200000D01*
%TO.N,Net-(D7-Pad6)*%
X146900000Y-81900000D02*
X144625000Y-81900000D01*
%TO.N,/MCU/GPIO4*%
X147150000Y-97062500D02*
X147150000Y-98550000D01*
X146800000Y-98900000D02*
X145600000Y-98900000D01*
X143576520Y-96876520D02*
X138311561Y-96876520D01*
X147150000Y-98550000D02*
X146800000Y-98900000D01*
X136100000Y-88700000D02*
X134700000Y-87300000D01*
X136100000Y-94664959D02*
X136100000Y-88700000D01*
X145600000Y-98900000D02*
X143576520Y-96876520D01*
X138311561Y-96876520D02*
X136100000Y-94664959D01*
X134700000Y-87300000D02*
X133900000Y-87300000D01*
%TO.N,/MCU/GPIO3*%
X136400000Y-87260000D02*
X133900000Y-84760000D01*
X146650000Y-97062500D02*
X146512500Y-97200000D01*
X136476520Y-87376520D02*
X136400000Y-87300000D01*
X138467521Y-96500000D02*
X136476520Y-94508999D01*
X136476520Y-94508999D02*
X136476520Y-87376520D01*
X145619979Y-97200000D02*
X144919979Y-96500000D01*
X136400000Y-87300000D02*
X136400000Y-87260000D01*
X146512500Y-97200000D02*
X145619979Y-97200000D01*
X144919979Y-96500000D02*
X138467521Y-96500000D01*
%TO.N,/MCU/GPIO2*%
X145237500Y-95650000D02*
X144764020Y-96123480D01*
X144764020Y-96123480D02*
X138623480Y-96123480D01*
X136853040Y-85173040D02*
X133900000Y-82220000D01*
X138623480Y-96123480D02*
X136853040Y-94353040D01*
X136853040Y-94353040D02*
X136853040Y-85173040D01*
%TO.N,/MCU/GPIO1*%
X142600000Y-95200000D02*
X142053040Y-95746960D01*
X137316240Y-83096240D02*
X133900000Y-79680000D01*
X145237500Y-95150000D02*
X145187500Y-95200000D01*
X138779440Y-95746960D02*
X137316240Y-94283760D01*
X137316240Y-94283760D02*
X137316240Y-83096240D01*
X145187500Y-95200000D02*
X142600000Y-95200000D01*
X142053040Y-95746960D02*
X138779440Y-95746960D01*
D47*
%TO.N,/MISO*%
X152100000Y-100000000D02*
X156400000Y-100000000D01*
X134025000Y-104740000D02*
X148860000Y-104740000D01*
X150650000Y-97062500D02*
X150700000Y-97112500D01*
X156800000Y-100000000D02*
X157100000Y-99700000D01*
D46*
X160225000Y-102165000D02*
X164025000Y-102165000D01*
D47*
X150700000Y-98600000D02*
X152100000Y-100000000D01*
X150700000Y-97112500D02*
X150700000Y-98600000D01*
X156400000Y-100000000D02*
X156800000Y-100000000D01*
X148860000Y-104740000D02*
X149500000Y-104100000D01*
%TO.N,/MOSI*%
X157226500Y-102026500D02*
X155900000Y-100700000D01*
X155900000Y-100700000D02*
X151400000Y-100700000D01*
X149400000Y-102900000D02*
X150050000Y-102250000D01*
D46*
X160225000Y-104705000D02*
X164025000Y-104705000D01*
D47*
X149650000Y-97062500D02*
X149650000Y-98950000D01*
X149900000Y-99200000D02*
X150050000Y-99350000D01*
X149650000Y-98950000D02*
X149900000Y-99200000D01*
X157226500Y-104600000D02*
X157226500Y-102026500D01*
X150050000Y-102250000D02*
X150050000Y-99350000D01*
X151400000Y-100700000D02*
X150050000Y-99350000D01*
%TO.N,/SCK*%
X149100000Y-109800000D02*
X152500000Y-109800000D01*
X156950000Y-100850000D02*
X157000000Y-100900000D01*
D46*
X160225000Y-107245000D02*
X164025000Y-107245000D01*
D47*
X151535250Y-100373480D02*
X156473480Y-100373480D01*
X150150000Y-98988230D02*
X151535250Y-100373480D01*
X150150000Y-97062500D02*
X150150000Y-98988230D01*
X156473480Y-100373480D02*
X156950000Y-100850000D01*
X152500000Y-109800000D02*
X154800000Y-107500000D01*
%TO.N,/CS2*%
X155036021Y-94150000D02*
X153562500Y-94150000D01*
X160225000Y-109785000D02*
X158373480Y-107933480D01*
X158373480Y-97487459D02*
X155036021Y-94150000D01*
X158373480Y-107933480D02*
X158373480Y-97487459D01*
D46*
%TO.N,/SDA*%
X158901511Y-94601511D02*
X162903489Y-94601511D01*
X156250000Y-112450000D02*
X156300000Y-112500000D01*
X158450000Y-94150000D02*
X158500000Y-94200000D01*
X157875000Y-85175000D02*
X158000000Y-85300000D01*
X158500000Y-94200000D02*
X158901511Y-94601511D01*
X162903489Y-94601511D02*
X164025000Y-93480000D01*
X152565200Y-112450000D02*
X156250000Y-112450000D01*
X153562500Y-92650000D02*
X156950000Y-92650000D01*
X156400000Y-85175000D02*
X157875000Y-85175000D01*
D47*
X157400000Y-94500000D02*
X157750000Y-94150000D01*
D46*
X156950000Y-92650000D02*
X158450000Y-94150000D01*
D47*
X157750000Y-94150000D02*
X158450000Y-94150000D01*
D46*
X156400000Y-83365000D02*
X156400000Y-85175000D01*
%TO.N,/SCL*%
X160100000Y-78700000D02*
X158900000Y-77500000D01*
X153200000Y-81800000D02*
X154600000Y-83200000D01*
X160100000Y-86722227D02*
X160100000Y-78700000D01*
X155635000Y-82850000D02*
X154950000Y-82850000D01*
X158150000Y-92150000D02*
X162815000Y-92150000D01*
X155400000Y-77500000D02*
X153200000Y-79700000D01*
X158900000Y-77500000D02*
X155400000Y-77500000D01*
X154600000Y-85075000D02*
X154700000Y-85175000D01*
X164025000Y-90647227D02*
X160100000Y-86722227D01*
X153562500Y-92150000D02*
X158150000Y-92150000D01*
X164025000Y-90940000D02*
X164025000Y-90647227D01*
X154600000Y-83200000D02*
X154600000Y-85075000D01*
X156510000Y-111150000D02*
X160225000Y-114865000D01*
X162815000Y-92150000D02*
X164025000Y-90940000D01*
X152565200Y-111150000D02*
X156510000Y-111150000D01*
X154950000Y-82850000D02*
X154600000Y-83200000D01*
X153200000Y-79700000D02*
X153200000Y-81800000D01*
D47*
%TO.N,/~{THERM}*%
X144875000Y-102300000D02*
X144775000Y-102400000D01*
X144775000Y-102400000D02*
X141775000Y-102400000D01*
%TO.N,/CS1*%
X141150000Y-93150000D02*
X140700000Y-92700000D01*
X145237500Y-93150000D02*
X141150000Y-93150000D01*
%TO.N,/CS*%
X139700000Y-93000000D02*
X138500000Y-93000000D01*
X138500000Y-93000000D02*
X138100000Y-93400000D01*
X145237500Y-93650000D02*
X140350000Y-93650000D01*
X136200000Y-112725000D02*
X136200000Y-105600000D01*
X140350000Y-93650000D02*
X139700000Y-93000000D01*
X134025000Y-114900000D02*
X136200000Y-112725000D01*
D46*
%TO.N,/SWCLK*%
X148150000Y-87403857D02*
X147600000Y-86853857D01*
X148000000Y-84900000D02*
X150600000Y-84900000D01*
X150600000Y-84900000D02*
X153700000Y-88000000D01*
X147600000Y-85300000D02*
X148000000Y-84900000D01*
X147600000Y-86853857D02*
X147600000Y-85300000D01*
X153700000Y-88000000D02*
X153700000Y-88600000D01*
X148150000Y-88737500D02*
X148150000Y-87403857D01*
%TO.N,/SWDIO*%
X147844041Y-84523480D02*
X150823480Y-84523480D01*
X150823480Y-84523480D02*
X155300000Y-89000000D01*
X155300000Y-89000000D02*
X159000000Y-89000000D01*
X147223480Y-87611711D02*
X147223480Y-85144041D01*
X147223480Y-85144041D02*
X147844041Y-84523480D01*
X147650000Y-88038231D02*
X147223480Y-87611711D01*
X147650000Y-88737500D02*
X147650000Y-88038231D01*
X159000000Y-89000000D02*
X160300000Y-90300000D01*
X160300000Y-90300000D02*
X160300000Y-90920000D01*
%TO.N,/TX*%
X134900000Y-94400000D02*
X134880000Y-94400000D01*
X147000000Y-99400000D02*
X139900000Y-99400000D01*
X139900000Y-99400000D02*
X134900000Y-94400000D01*
X147650000Y-97062500D02*
X147650000Y-98750000D01*
X134880000Y-94400000D02*
X134000000Y-93520000D01*
X147650000Y-98750000D02*
X147000000Y-99400000D01*
%TO.N,/RX*%
X147155959Y-99776520D02*
X137716520Y-99776520D01*
X137716520Y-99776520D02*
X134000000Y-96060000D01*
X148150000Y-98782479D02*
X147155959Y-99776520D01*
X148150000Y-97062500D02*
X148150000Y-98782479D01*
D47*
%TO.N,Net-(J10-PadA5)*%
X148000000Y-128975000D02*
X148075000Y-128900000D01*
X148000000Y-131530000D02*
X148000000Y-128975000D01*
%TO.N,/D+*%
X148500000Y-131530000D02*
X148500000Y-130900000D01*
X149000000Y-133713979D02*
X149250000Y-133463979D01*
X152308165Y-134600000D02*
X149200000Y-134600000D01*
X150886520Y-127486520D02*
X150500000Y-127100000D01*
X154400000Y-131300000D02*
X154400000Y-132508165D01*
X149000000Y-134400000D02*
X149000000Y-133713979D01*
X152800000Y-129700000D02*
X154400000Y-131300000D01*
X150886520Y-127486520D02*
X150886520Y-129813480D01*
X149250000Y-133463979D02*
X149250000Y-132830000D01*
X154400000Y-132508165D02*
X152308165Y-134600000D01*
X149600000Y-129800000D02*
X150886520Y-129800000D01*
X148500000Y-130900000D02*
X149600000Y-129800000D01*
X151400000Y-92200000D02*
X152450000Y-91150000D01*
X150886520Y-129813480D02*
X151000000Y-129700000D01*
X152450000Y-91150000D02*
X153562500Y-91150000D01*
X151000000Y-129700000D02*
X152800000Y-129700000D01*
X149200000Y-134600000D02*
X149000000Y-134400000D01*
%TO.N,/D-*%
X148750000Y-132280000D02*
X149500000Y-131530000D01*
X151500000Y-93400000D02*
X151500000Y-93048587D01*
X152898587Y-91650000D02*
X153562500Y-91650000D01*
X149500000Y-131000000D02*
X149800000Y-130700000D01*
X151500000Y-93048587D02*
X152898587Y-91650000D01*
X149800000Y-130700000D02*
X150000000Y-130500000D01*
X149500000Y-131530000D02*
X149500000Y-131000000D01*
X148750000Y-132830000D02*
X148750000Y-132280000D01*
D46*
%TO.N,Net-(J10-PadB5)*%
X149750000Y-133850000D02*
X149700000Y-133900000D01*
X149750000Y-132830000D02*
X149750000Y-133850000D01*
%TO.N,/MCU/VDIV*%
X151348489Y-126448489D02*
X153400000Y-128500000D01*
X157700000Y-128500000D02*
X158325000Y-127875000D01*
X159975000Y-127400000D02*
X160100000Y-127525000D01*
X158325000Y-127875000D02*
X158325000Y-127400000D01*
X158325000Y-127400000D02*
X159975000Y-127400000D01*
X150548489Y-126448489D02*
X151348489Y-126448489D01*
X143188231Y-92500000D02*
X143100000Y-92500000D01*
X145237500Y-91150000D02*
X144538231Y-91150000D01*
X144538231Y-91150000D02*
X143188231Y-92500000D01*
X150100000Y-126000000D02*
X150548489Y-126448489D01*
X153400000Y-128500000D02*
X157700000Y-128500000D01*
%TO.N,/MCU/~{RESET}*%
X151475000Y-101825000D02*
X151925000Y-101375000D01*
X151925000Y-101375000D02*
X152900000Y-101375000D01*
X151475000Y-105825000D02*
X147325000Y-105825000D01*
X151475000Y-105825000D02*
X151475000Y-101825000D01*
X152900000Y-101375000D02*
X154800000Y-101375000D01*
%TO.N,Net-(R9-Pad2)*%
X140300000Y-115100000D02*
X139475000Y-115925000D01*
X139475000Y-115925000D02*
X139475000Y-116862500D01*
X141018409Y-115100000D02*
X140300000Y-115100000D01*
X141030909Y-115112500D02*
X141018409Y-115100000D01*
X141412500Y-115112500D02*
X141030909Y-115112500D01*
%TO.N,Net-(R10-Pad2)*%
X143600000Y-116300000D02*
X144500000Y-117200000D01*
X144500000Y-117200000D02*
X144500000Y-117875000D01*
X144500000Y-117875000D02*
X144400000Y-117975000D01*
%TO.N,Net-(R11-Pad2)*%
X142100000Y-113425000D02*
X142100000Y-111375000D01*
X142100000Y-111375000D02*
X141925000Y-111200000D01*
%TO.N,Net-(R12-Pad2)*%
X140200000Y-117837500D02*
X139475000Y-118562500D01*
X141412500Y-115612500D02*
X140687500Y-115612500D01*
X140687500Y-115612500D02*
X140200000Y-116100000D01*
X140200000Y-116100000D02*
X140200000Y-117837500D01*
D47*
%TO.N,Net-(R13-Pad2)*%
X139475000Y-120462500D02*
X142100000Y-117837500D01*
X142100000Y-117837500D02*
X142100000Y-116300000D01*
%TO.N,/PGOOD*%
X143150000Y-109250000D02*
X142450000Y-109250000D01*
X144287500Y-114612500D02*
X144300000Y-114600000D01*
X145237500Y-94650000D02*
X139350000Y-94650000D01*
X141975000Y-108775000D02*
X141975000Y-107900000D01*
X145200000Y-111300000D02*
X143150000Y-109250000D01*
X145230500Y-114600000D02*
X145218000Y-114612500D01*
X145218000Y-114612500D02*
X144287500Y-114612500D01*
X142450000Y-109250000D02*
X141975000Y-108775000D01*
X139350000Y-94650000D02*
X139300000Y-94700000D01*
D46*
%TO.N,/CHG*%
X144644500Y-113425000D02*
X143600000Y-113425000D01*
D47*
X139676503Y-94150000D02*
X145237500Y-94150000D01*
D46*
X142028646Y-110200000D02*
X140600000Y-110200000D01*
X143328646Y-111500000D02*
X142028646Y-110200000D01*
D47*
X140600000Y-110200000D02*
X139825000Y-109425000D01*
D46*
X143800000Y-111500000D02*
X143328646Y-111500000D01*
D47*
X139825000Y-109425000D02*
X139825000Y-109375000D01*
X139825000Y-109375000D02*
X139825000Y-107900000D01*
D46*
X144790631Y-113278869D02*
X144644500Y-113425000D01*
D47*
X139300000Y-93773497D02*
X139676503Y-94150000D01*
D46*
%TO.N,Net-(Q1-Pad1)*%
X145200000Y-123700000D02*
X144500000Y-124400000D01*
X148725000Y-125500000D02*
X148725000Y-125350000D01*
X147075000Y-123700000D02*
X145200000Y-123700000D01*
X144500000Y-124400000D02*
X143900000Y-124400000D01*
X142030000Y-122530000D02*
X142030000Y-122085000D01*
X148725000Y-125350000D02*
X147075000Y-123700000D01*
X143900000Y-124400000D02*
X142030000Y-122530000D01*
%TO.N,/LEDs/R_a*%
X152150000Y-95850000D02*
X145700000Y-89400000D01*
X145700000Y-89400000D02*
X145700000Y-86200000D01*
X152150000Y-97062500D02*
X152150000Y-95850000D01*
X142975000Y-83475000D02*
X142975000Y-81900000D01*
X145700000Y-86200000D02*
X142975000Y-83475000D01*
%TO.N,/LEDs/G_a*%
X154000000Y-96087500D02*
X154000000Y-97300000D01*
D47*
X142975000Y-80200000D02*
X141000000Y-80200000D01*
D46*
X153562500Y-95650000D02*
X154000000Y-96087500D01*
%TO.N,/LEDs/B_a*%
X154850000Y-95150000D02*
X155100000Y-95400000D01*
X142975000Y-77075000D02*
X142900000Y-77000000D01*
X142975000Y-78500000D02*
X142975000Y-77075000D01*
X153562500Y-95150000D02*
X154850000Y-95150000D01*
X155100000Y-95400000D02*
X155400000Y-95700000D01*
X155400000Y-95700000D02*
X155400000Y-97800000D01*
%TO.N,/I2C Active Terminator/EN*%
X150775000Y-114200000D02*
X150775000Y-112590200D01*
X150775000Y-112590200D02*
X150634800Y-112450000D01*
D47*
%TO.N,/RST*%
X159200000Y-111000000D02*
X158046960Y-109846960D01*
X155962125Y-95537874D02*
X155074251Y-94650000D01*
X158046960Y-99246960D02*
X155962125Y-97162125D01*
X164025000Y-109785000D02*
X162810000Y-111000000D01*
X158046960Y-109846960D02*
X158046960Y-99246960D01*
X155962125Y-97162125D02*
X155962125Y-95537874D01*
X162810000Y-111000000D02*
X159200000Y-111000000D01*
X155074251Y-94650000D02*
X153562500Y-94650000D01*
%TO.N,/CS3*%
X155617168Y-93650000D02*
X155761695Y-93794527D01*
X153562500Y-93650000D02*
X155617168Y-93650000D01*
%TO.N,/IRQ*%
X164025000Y-114865000D02*
X162561511Y-113401511D01*
X151650000Y-97062500D02*
X151650000Y-98550000D01*
X156100000Y-109800000D02*
X156100000Y-102600000D01*
X159701511Y-113401511D02*
X156100000Y-109800000D01*
X162561511Y-113401511D02*
X159701511Y-113401511D01*
X151650000Y-98550000D02*
X152100000Y-99000000D01*
X152100000Y-99000000D02*
X155500000Y-99000000D01*
%TO.N,/Barometer/INTB*%
X157165000Y-82350000D02*
X158550000Y-82350000D01*
X153562500Y-93150000D02*
X156350000Y-93150000D01*
X158550000Y-82350000D02*
X158600000Y-82400000D01*
X156350000Y-93150000D02*
X156600000Y-93400000D01*
%TD*%
M02*
