%TF.GenerationSoftware,KiCad,Pcbnew,(6.0.5)*%
%TF.CreationDate,2022-07-28T20:20:27-06:00*%
%TF.ProjectId,transmitter,7472616e-736d-4697-9474-65722e6b6963,rev?*%
%TF.SameCoordinates,Original*%
%TF.FileFunction,Paste,Top*%
%TF.FilePolarity,Positive*%
%FSLAX46Y46*%
G04 Gerber Fmt 4.6, Leading zero omitted, Abs format (unit mm)*
G04 Created by KiCad (PCBNEW (6.0.5)) date 2022-07-28 20:20:27*
%MOMM*%
%LPD*%
G01*
G04 APERTURE LIST*
G04 Aperture macros list*
%AMRoundRect*
0 Rectangle with rounded corners*
0 $1 Rounding radius*
0 $2 $3 $4 $5 $6 $7 $8 $9 X,Y pos of 4 corners*
0 Add a 4 corners polygon primitive as box body*
4,1,4,$2,$3,$4,$5,$6,$7,$8,$9,$2,$3,0*
0 Add four circle primitives for the rounded corners*
1,1,$1+$1,$2,$3*
1,1,$1+$1,$4,$5*
1,1,$1+$1,$6,$7*
1,1,$1+$1,$8,$9*
0 Add four rect primitives between the rounded corners*
20,1,$1+$1,$2,$3,$4,$5,0*
20,1,$1+$1,$4,$5,$6,$7,0*
20,1,$1+$1,$6,$7,$8,$9,0*
20,1,$1+$1,$8,$9,$2,$3,0*%
G04 Aperture macros list end*
%ADD10C,0.010000*%
%ADD11RoundRect,0.225000X-0.225000X-0.250000X0.225000X-0.250000X0.225000X0.250000X-0.225000X0.250000X0*%
%ADD12RoundRect,0.225000X0.250000X-0.225000X0.250000X0.225000X-0.250000X0.225000X-0.250000X-0.225000X0*%
%ADD13RoundRect,0.200000X0.200000X0.275000X-0.200000X0.275000X-0.200000X-0.275000X0.200000X-0.275000X0*%
%ADD14RoundRect,0.225000X-0.250000X0.225000X-0.250000X-0.225000X0.250000X-0.225000X0.250000X0.225000X0*%
%ADD15RoundRect,0.200000X-0.200000X-0.275000X0.200000X-0.275000X0.200000X0.275000X-0.200000X0.275000X0*%
%ADD16R,0.300000X0.700000*%
%ADD17R,1.000000X0.700000*%
%ADD18RoundRect,0.200000X-0.275000X0.200000X-0.275000X-0.200000X0.275000X-0.200000X0.275000X0.200000X0*%
%ADD19RoundRect,0.008100X-0.421900X-0.126900X0.421900X-0.126900X0.421900X0.126900X-0.421900X0.126900X0*%
%ADD20R,1.800000X2.500000*%
%ADD21RoundRect,0.007000X0.168000X-0.183000X0.168000X0.183000X-0.168000X0.183000X-0.168000X-0.183000X0*%
%ADD22R,2.000000X1.100000*%
%ADD23RoundRect,0.225000X0.225000X0.250000X-0.225000X0.250000X-0.225000X-0.250000X0.225000X-0.250000X0*%
%ADD24RoundRect,0.200000X0.275000X-0.200000X0.275000X0.200000X-0.275000X0.200000X-0.275000X-0.200000X0*%
%ADD25R,1.168400X0.355600*%
%ADD26RoundRect,0.218750X-0.218750X-0.256250X0.218750X-0.256250X0.218750X0.256250X-0.218750X0.256250X0*%
%ADD27RoundRect,0.160000X0.160000X-0.160000X0.160000X0.160000X-0.160000X0.160000X-0.160000X-0.160000X0*%
%ADD28RoundRect,0.062500X0.062500X-0.375000X0.062500X0.375000X-0.062500X0.375000X-0.062500X-0.375000X0*%
%ADD29RoundRect,0.062500X0.375000X-0.062500X0.375000X0.062500X-0.375000X0.062500X-0.375000X-0.062500X0*%
%ADD30RoundRect,0.218750X0.218750X0.256250X-0.218750X0.256250X-0.218750X-0.256250X0.218750X-0.256250X0*%
%ADD31R,1.090000X0.610000*%
%ADD32R,1.900000X1.100000*%
%ADD33R,1.050000X0.650000*%
%ADD34RoundRect,0.075000X-0.662500X-0.075000X0.662500X-0.075000X0.662500X0.075000X-0.662500X0.075000X0*%
%ADD35RoundRect,0.075000X-0.075000X-0.662500X0.075000X-0.662500X0.075000X0.662500X-0.075000X0.662500X0*%
%ADD36R,2.500000X1.800000*%
%ADD37R,2.650000X1.750000*%
G04 APERTURE END LIST*
%TO.C,U3*%
G36*
X152540000Y-117780000D02*
G01*
X152060000Y-117780000D01*
X152060000Y-117020000D01*
X152540000Y-117020000D01*
X152540000Y-117780000D01*
G37*
D10*
X152540000Y-117780000D02*
X152060000Y-117780000D01*
X152060000Y-117020000D01*
X152540000Y-117020000D01*
X152540000Y-117780000D01*
%TD*%
D11*
%TO.C,C2*%
X138325000Y-91100000D03*
X139875000Y-91100000D03*
%TD*%
D12*
%TO.C,C18*%
X157800000Y-80275000D03*
X157800000Y-78725000D03*
%TD*%
D13*
%TO.C,R22*%
X144625000Y-78500000D03*
X142975000Y-78500000D03*
%TD*%
D14*
%TO.C,C15*%
X155200000Y-116625000D03*
X155200000Y-118175000D03*
%TD*%
D15*
%TO.C,R12*%
X137825000Y-118562500D03*
X139475000Y-118562500D03*
%TD*%
D16*
%TO.C,J10*%
X146000000Y-131530000D03*
X146500000Y-131530000D03*
X147000000Y-131530000D03*
X147500000Y-131530000D03*
X148000000Y-131530000D03*
X148500000Y-131530000D03*
X149500000Y-131530000D03*
X150000000Y-131530000D03*
X150500000Y-131530000D03*
X151000000Y-131530000D03*
X151500000Y-131530000D03*
X152000000Y-131530000D03*
D17*
X152100000Y-132830000D03*
D16*
X151250000Y-132830000D03*
X150750000Y-132830000D03*
X150250000Y-132830000D03*
X149750000Y-132830000D03*
X149250000Y-132830000D03*
X148750000Y-132830000D03*
X148250000Y-132830000D03*
X147750000Y-132830000D03*
X147250000Y-132830000D03*
X146750000Y-132830000D03*
D17*
X145900000Y-132830000D03*
%TD*%
D11*
%TO.C,C14*%
X146475000Y-115262500D03*
X148025000Y-115262500D03*
%TD*%
D18*
%TO.C,R1*%
X155000000Y-125675000D03*
X155000000Y-127325000D03*
%TD*%
D19*
%TO.C,U3*%
X151265000Y-116750000D03*
X151265000Y-117400000D03*
X151265000Y-118050000D03*
X153335000Y-118050000D03*
X153335000Y-117400000D03*
X153335000Y-116750000D03*
%TD*%
D13*
%TO.C,R16*%
X148725000Y-125500000D03*
X147075000Y-125500000D03*
%TD*%
D11*
%TO.C,C1*%
X138325000Y-88500000D03*
X139875000Y-88500000D03*
%TD*%
D20*
%TO.C,D2*%
X139800000Y-134600000D03*
X139800000Y-130600000D03*
%TD*%
D18*
%TO.C,R4*%
X154700000Y-85175000D03*
X154700000Y-86825000D03*
%TD*%
D11*
%TO.C,C6*%
X155825000Y-90500000D03*
X157375000Y-90500000D03*
%TD*%
D13*
%TO.C,R21*%
X144625000Y-80200000D03*
X142975000Y-80200000D03*
%TD*%
D18*
%TO.C,R8*%
X152900000Y-101375000D03*
X152900000Y-103025000D03*
%TD*%
D21*
%TO.C,U4*%
X155635000Y-82350000D03*
X155635000Y-82850000D03*
X155900000Y-83365000D03*
X156400000Y-83365000D03*
X156900000Y-83365000D03*
X157165000Y-82850000D03*
X157165000Y-82350000D03*
X156900000Y-81835000D03*
X156400000Y-81835000D03*
X155900000Y-81835000D03*
%TD*%
D18*
%TO.C,R2*%
X160100000Y-125875000D03*
X160100000Y-127525000D03*
%TD*%
D15*
%TO.C,R15*%
X138175000Y-107900000D03*
X139825000Y-107900000D03*
%TD*%
%TO.C,R14*%
X141975000Y-107900000D03*
X143625000Y-107900000D03*
%TD*%
D22*
%TO.C,D7*%
X151700000Y-81900000D03*
X151700000Y-80200000D03*
X151700000Y-78500000D03*
X146900000Y-78500000D03*
X146900000Y-80200000D03*
X146900000Y-81900000D03*
%TD*%
D13*
%TO.C,R20*%
X144625000Y-81900000D03*
X142975000Y-81900000D03*
%TD*%
D15*
%TO.C,R13*%
X137825000Y-120462500D03*
X139475000Y-120462500D03*
%TD*%
D23*
%TO.C,C19*%
X148275000Y-111300000D03*
X146725000Y-111300000D03*
%TD*%
D15*
%TO.C,R23*%
X150775000Y-114200000D03*
X152425000Y-114200000D03*
%TD*%
D24*
%TO.C,R7*%
X154800000Y-103025000D03*
X154800000Y-101375000D03*
%TD*%
D12*
%TO.C,C17*%
X155900000Y-80275000D03*
X155900000Y-78725000D03*
%TD*%
D14*
%TO.C,C10*%
X160000000Y-120725000D03*
X160000000Y-122275000D03*
%TD*%
D25*
%TO.C,U5*%
X150634800Y-111150000D03*
X150634800Y-111800000D03*
X150634800Y-112450000D03*
X152565200Y-112450000D03*
X152565200Y-111800000D03*
X152565200Y-111150000D03*
%TD*%
D11*
%TO.C,C11*%
X161825000Y-120800000D03*
X163375000Y-120800000D03*
%TD*%
D15*
%TO.C,R6*%
X144875000Y-102300000D03*
X146525000Y-102300000D03*
%TD*%
D26*
%TO.C,D4*%
X138212500Y-106100000D03*
X139787500Y-106100000D03*
%TD*%
D27*
%TO.C,U2*%
X142450000Y-115262500D03*
X142450000Y-114462500D03*
X143250000Y-114462500D03*
X143250000Y-115262500D03*
D28*
X142100000Y-116300000D03*
X142600000Y-116300000D03*
X143100000Y-116300000D03*
X143600000Y-116300000D03*
D29*
X144287500Y-115612500D03*
X144287500Y-115112500D03*
X144287500Y-114612500D03*
X144287500Y-114112500D03*
D28*
X143600000Y-113425000D03*
X143100000Y-113425000D03*
X142600000Y-113425000D03*
X142100000Y-113425000D03*
D29*
X141412500Y-114112500D03*
X141412500Y-114612500D03*
X141412500Y-115112500D03*
X141412500Y-115612500D03*
%TD*%
D30*
%TO.C,D3*%
X143487500Y-106100000D03*
X141912500Y-106100000D03*
%TD*%
D31*
%TO.C,Q1*%
X142030000Y-122085000D03*
X142030000Y-123915000D03*
X144170000Y-123000000D03*
%TD*%
D15*
%TO.C,R17*%
X147075000Y-123700000D03*
X148725000Y-123700000D03*
%TD*%
D32*
%TO.C,Y1*%
X142200000Y-88550000D03*
X142200000Y-91050000D03*
%TD*%
D13*
%TO.C,R3*%
X158325000Y-127400000D03*
X156675000Y-127400000D03*
%TD*%
D24*
%TO.C,R10*%
X144400000Y-119625000D03*
X144400000Y-117975000D03*
%TD*%
D15*
%TO.C,R9*%
X137825000Y-116862500D03*
X139475000Y-116862500D03*
%TD*%
D33*
%TO.C,SW1*%
X147325000Y-105825000D03*
X151475000Y-105825000D03*
X147325000Y-107975000D03*
X151475000Y-107975000D03*
%TD*%
D23*
%TO.C,C16*%
X148375000Y-113300000D03*
X146825000Y-113300000D03*
%TD*%
D34*
%TO.C,U1*%
X145237500Y-90150000D03*
X145237500Y-90650000D03*
X145237500Y-91150000D03*
X145237500Y-91650000D03*
X145237500Y-92150000D03*
X145237500Y-92650000D03*
X145237500Y-93150000D03*
X145237500Y-93650000D03*
X145237500Y-94150000D03*
X145237500Y-94650000D03*
X145237500Y-95150000D03*
X145237500Y-95650000D03*
D35*
X146650000Y-97062500D03*
X147150000Y-97062500D03*
X147650000Y-97062500D03*
X148150000Y-97062500D03*
X148650000Y-97062500D03*
X149150000Y-97062500D03*
X149650000Y-97062500D03*
X150150000Y-97062500D03*
X150650000Y-97062500D03*
X151150000Y-97062500D03*
X151650000Y-97062500D03*
X152150000Y-97062500D03*
D34*
X153562500Y-95650000D03*
X153562500Y-95150000D03*
X153562500Y-94650000D03*
X153562500Y-94150000D03*
X153562500Y-93650000D03*
X153562500Y-93150000D03*
X153562500Y-92650000D03*
X153562500Y-92150000D03*
X153562500Y-91650000D03*
X153562500Y-91150000D03*
X153562500Y-90650000D03*
X153562500Y-90150000D03*
D35*
X152150000Y-88737500D03*
X151650000Y-88737500D03*
X151150000Y-88737500D03*
X150650000Y-88737500D03*
X150150000Y-88737500D03*
X149650000Y-88737500D03*
X149150000Y-88737500D03*
X148650000Y-88737500D03*
X148150000Y-88737500D03*
X147650000Y-88737500D03*
X147150000Y-88737500D03*
X146650000Y-88737500D03*
%TD*%
D24*
%TO.C,R5*%
X156400000Y-86825000D03*
X156400000Y-85175000D03*
%TD*%
D14*
%TO.C,C13*%
X148050000Y-116987500D03*
X148050000Y-118537500D03*
%TD*%
D26*
%TO.C,D1*%
X156812500Y-125600000D03*
X158387500Y-125600000D03*
%TD*%
D15*
%TO.C,R18*%
X148075000Y-128900000D03*
X149725000Y-128900000D03*
%TD*%
D36*
%TO.C,D6*%
X139600000Y-126800000D03*
X143600000Y-126800000D03*
%TD*%
D15*
%TO.C,R11*%
X140275000Y-111200000D03*
X141925000Y-111200000D03*
%TD*%
D14*
%TO.C,C12*%
X146350000Y-116987500D03*
X146350000Y-118537500D03*
%TD*%
D37*
%TO.C,D5*%
X156750000Y-122100000D03*
X152450000Y-122100000D03*
%TD*%
D14*
%TO.C,C7*%
X148800000Y-99425000D03*
X148800000Y-100975000D03*
%TD*%
M02*
