%TF.GenerationSoftware,KiCad,Pcbnew,(6.0.5)*%
%TF.CreationDate,2022-07-28T11:09:16-06:00*%
%TF.ProjectId,transmitter,7472616e-736d-4697-9474-65722e6b6963,rev?*%
%TF.SameCoordinates,Original*%
%TF.FileFunction,Legend,Top*%
%TF.FilePolarity,Positive*%
%FSLAX46Y46*%
G04 Gerber Fmt 4.6, Leading zero omitted, Abs format (unit mm)*
G04 Created by KiCad (PCBNEW (6.0.5)) date 2022-07-28 11:09:16*
%MOMM*%
%LPD*%
G01*
G04 APERTURE LIST*
%ADD10C,0.150000*%
%ADD11C,0.120000*%
%ADD12C,0.127000*%
%ADD13C,0.200000*%
%ADD14C,0.152400*%
%ADD15C,0.100000*%
G04 APERTURE END LIST*
D10*
%TO.C,U5*%
X151000074Y-111368803D02*
X151000074Y-112006224D01*
X151037570Y-112081215D01*
X151075065Y-112118710D01*
X151150056Y-112156205D01*
X151300037Y-112156205D01*
X151375028Y-112118710D01*
X151412523Y-112081215D01*
X151450018Y-112006224D01*
X151450018Y-111368803D01*
X152199925Y-111368803D02*
X151824972Y-111368803D01*
X151787476Y-111743757D01*
X151824972Y-111706261D01*
X151899962Y-111668766D01*
X152087439Y-111668766D01*
X152162430Y-111706261D01*
X152199925Y-111743757D01*
X152237420Y-111818747D01*
X152237420Y-112006224D01*
X152199925Y-112081215D01*
X152162430Y-112118710D01*
X152087439Y-112156205D01*
X151899962Y-112156205D01*
X151824972Y-112118710D01*
X151787476Y-112081215D01*
X150736400Y-111506380D02*
X150736400Y-111744476D01*
X150498304Y-111649238D02*
X150736400Y-111744476D01*
X150974495Y-111649238D01*
X150593542Y-111934952D02*
X150736400Y-111744476D01*
X150879257Y-111934952D01*
D11*
%TO.C,J5*%
X132670000Y-103470000D02*
X135330000Y-103470000D01*
X132670000Y-103470000D02*
X132670000Y-118770000D01*
X132670000Y-100870000D02*
X134000000Y-100870000D01*
X132670000Y-118770000D02*
X135330000Y-118770000D01*
X132670000Y-102200000D02*
X132670000Y-100870000D01*
X135330000Y-103470000D02*
X135330000Y-118770000D01*
%TO.C,J11*%
X162695000Y-100895000D02*
X165355000Y-100895000D01*
X162695000Y-118735000D02*
X165355000Y-118735000D01*
X162695000Y-100895000D02*
X162695000Y-118735000D01*
X162695000Y-99625000D02*
X162695000Y-98295000D01*
X165355000Y-100895000D02*
X165355000Y-118735000D01*
X162695000Y-98295000D02*
X164025000Y-98295000D01*
%TO.C,J8*%
X135330000Y-92250000D02*
X135330000Y-99930000D01*
X132670000Y-90980000D02*
X132670000Y-89650000D01*
X132670000Y-99930000D02*
X135330000Y-99930000D01*
X132670000Y-92250000D02*
X135330000Y-92250000D01*
X132670000Y-89650000D02*
X134000000Y-89650000D01*
X132670000Y-92250000D02*
X132670000Y-99930000D01*
%TO.C,J7*%
X165355000Y-89670000D02*
X165355000Y-97350000D01*
X162695000Y-88400000D02*
X162695000Y-87070000D01*
X162695000Y-97350000D02*
X165355000Y-97350000D01*
X162695000Y-89670000D02*
X165355000Y-89670000D01*
X162695000Y-87070000D02*
X164025000Y-87070000D01*
X162695000Y-89670000D02*
X162695000Y-97350000D01*
%TO.C,J6*%
X158870000Y-94730000D02*
X158870000Y-87050000D01*
X161530000Y-96000000D02*
X161530000Y-97330000D01*
X161530000Y-87050000D02*
X158870000Y-87050000D01*
X161530000Y-94730000D02*
X158870000Y-94730000D01*
X161530000Y-97330000D02*
X160200000Y-97330000D01*
X161530000Y-94730000D02*
X161530000Y-87050000D01*
%TO.C,J3*%
X158895000Y-100895000D02*
X161555000Y-100895000D01*
X158895000Y-118735000D02*
X161555000Y-118735000D01*
X158895000Y-100895000D02*
X158895000Y-118735000D01*
X158895000Y-99625000D02*
X158895000Y-98295000D01*
X161555000Y-100895000D02*
X161555000Y-118735000D01*
X158895000Y-98295000D02*
X160225000Y-98295000D01*
%TO.C,J2*%
X132570000Y-86030000D02*
X132570000Y-78350000D01*
X135230000Y-87300000D02*
X135230000Y-88630000D01*
X135230000Y-78350000D02*
X132570000Y-78350000D01*
X135230000Y-86030000D02*
X132570000Y-86030000D01*
X135230000Y-88630000D02*
X133900000Y-88630000D01*
X135230000Y-86030000D02*
X135230000Y-78350000D01*
%TO.C,J9*%
X133990000Y-122390000D02*
X133990000Y-123390000D01*
X132190000Y-122090000D02*
X132190000Y-124590000D01*
X133990000Y-129110000D02*
X132490000Y-129110000D01*
X134800000Y-122890000D02*
X136010000Y-122890000D01*
X132490000Y-122390000D02*
X132490000Y-130110000D01*
X136010000Y-122890000D02*
X136010000Y-129610000D01*
X133990000Y-130110000D02*
X133990000Y-129110000D01*
X132490000Y-130110000D02*
X136510000Y-130110000D01*
X133990000Y-123390000D02*
X132490000Y-123390000D01*
X136010000Y-129610000D02*
X134800000Y-129610000D01*
X134800000Y-129610000D02*
X134800000Y-130110000D01*
X134690000Y-122090000D02*
X132190000Y-122090000D01*
X134800000Y-122390000D02*
X134800000Y-122890000D01*
X136510000Y-130110000D02*
X136510000Y-122390000D01*
X136510000Y-122390000D02*
X132490000Y-122390000D01*
%TO.C,C2*%
X138959420Y-91610000D02*
X139240580Y-91610000D01*
X138959420Y-90590000D02*
X139240580Y-90590000D01*
%TO.C,C18*%
X158310000Y-79640580D02*
X158310000Y-79359420D01*
X157290000Y-79640580D02*
X157290000Y-79359420D01*
%TO.C,R22*%
X144037258Y-79022500D02*
X143562742Y-79022500D01*
X144037258Y-77977500D02*
X143562742Y-77977500D01*
%TO.C,C15*%
X155710000Y-117259420D02*
X155710000Y-117540580D01*
X154690000Y-117259420D02*
X154690000Y-117540580D01*
%TO.C,R12*%
X138412742Y-118040000D02*
X138887258Y-118040000D01*
X138412742Y-119085000D02*
X138887258Y-119085000D01*
D12*
%TO.C,J10*%
X144530000Y-139250000D02*
X144530000Y-133420000D01*
X153470000Y-139250000D02*
X153470000Y-133420000D01*
X144530000Y-139250000D02*
X153470000Y-139250000D01*
D13*
X146100000Y-130300000D02*
G75*
G03*
X146100000Y-130300000I-100000J0D01*
G01*
D11*
%TO.C,C14*%
X147109420Y-115772500D02*
X147390580Y-115772500D01*
X147109420Y-114752500D02*
X147390580Y-114752500D01*
%TO.C,R1*%
X154477500Y-126262742D02*
X154477500Y-126737258D01*
X155522500Y-126262742D02*
X155522500Y-126737258D01*
D12*
%TO.C,U3*%
X151150000Y-118700000D02*
X153450000Y-118700000D01*
X151150000Y-116100000D02*
X153450000Y-116100000D01*
D13*
X150305000Y-116750000D02*
G75*
G03*
X150305000Y-116750000I-100000J0D01*
G01*
D11*
%TO.C,R16*%
X148137258Y-126022500D02*
X147662742Y-126022500D01*
X148137258Y-124977500D02*
X147662742Y-124977500D01*
%TO.C,C1*%
X138959420Y-87990000D02*
X139240580Y-87990000D01*
X138959420Y-89010000D02*
X139240580Y-89010000D01*
%TO.C,D2*%
X138150000Y-136000000D02*
X138150000Y-130600000D01*
X138150000Y-136000000D02*
X141450000Y-136000000D01*
X141450000Y-136000000D02*
X141450000Y-130600000D01*
%TO.C,R4*%
X154177500Y-85762742D02*
X154177500Y-86237258D01*
X155222500Y-85762742D02*
X155222500Y-86237258D01*
%TO.C,C6*%
X156459420Y-91010000D02*
X156740580Y-91010000D01*
X156459420Y-89990000D02*
X156740580Y-89990000D01*
%TO.C,R21*%
X144037258Y-80722500D02*
X143562742Y-80722500D01*
X144037258Y-79677500D02*
X143562742Y-79677500D01*
%TO.C,R8*%
X153422500Y-101962742D02*
X153422500Y-102437258D01*
X152377500Y-101962742D02*
X152377500Y-102437258D01*
D12*
%TO.C,U4*%
X157430000Y-83630000D02*
X157430000Y-83230000D01*
X155370000Y-83630000D02*
X155370000Y-83230000D01*
X157250000Y-83630000D02*
X157430000Y-83630000D01*
X157430000Y-81570000D02*
X157430000Y-81970000D01*
X157250000Y-81570000D02*
X157430000Y-81570000D01*
X155370000Y-81970000D02*
X155370000Y-81570000D01*
X155550000Y-83630000D02*
X155370000Y-83630000D01*
X155370000Y-81570000D02*
X155550000Y-81570000D01*
D13*
X155000000Y-82300000D02*
G75*
G03*
X155000000Y-82300000I-100000J0D01*
G01*
D11*
%TO.C,R2*%
X160622500Y-126462742D02*
X160622500Y-126937258D01*
X159577500Y-126462742D02*
X159577500Y-126937258D01*
%TO.C,R15*%
X138762742Y-108422500D02*
X139237258Y-108422500D01*
X138762742Y-107377500D02*
X139237258Y-107377500D01*
%TO.C,R14*%
X142562742Y-108422500D02*
X143037258Y-108422500D01*
X142562742Y-107377500D02*
X143037258Y-107377500D01*
%TO.C,J4*%
X141775000Y-101070000D02*
X143105000Y-101070000D01*
X140505000Y-101070000D02*
X140505000Y-103730000D01*
X143105000Y-101070000D02*
X143105000Y-102400000D01*
X140505000Y-101070000D02*
X137905000Y-101070000D01*
X140505000Y-103730000D02*
X137905000Y-103730000D01*
X137905000Y-101070000D02*
X137905000Y-103730000D01*
%TO.C,D7*%
X146800000Y-77500000D02*
X151800000Y-77500000D01*
X152900000Y-82900000D02*
X146800000Y-82900000D01*
X152900000Y-81800000D02*
X152900000Y-82900000D01*
%TO.C,R20*%
X144037258Y-81377500D02*
X143562742Y-81377500D01*
X144037258Y-82422500D02*
X143562742Y-82422500D01*
%TO.C,R13*%
X138412742Y-120985000D02*
X138887258Y-120985000D01*
X138412742Y-119940000D02*
X138887258Y-119940000D01*
%TO.C,C19*%
X147640580Y-110790000D02*
X147359420Y-110790000D01*
X147640580Y-111810000D02*
X147359420Y-111810000D01*
%TO.C,R23*%
X151362742Y-113677500D02*
X151837258Y-113677500D01*
X151362742Y-114722500D02*
X151837258Y-114722500D01*
%TO.C,R7*%
X155322500Y-102437258D02*
X155322500Y-101962742D01*
X154277500Y-102437258D02*
X154277500Y-101962742D01*
%TO.C,C17*%
X155390000Y-79640580D02*
X155390000Y-79359420D01*
X156410000Y-79640580D02*
X156410000Y-79359420D01*
%TO.C,C10*%
X159490000Y-121359420D02*
X159490000Y-121640580D01*
X160510000Y-121359420D02*
X160510000Y-121640580D01*
D14*
%TO.C,U5*%
X152412800Y-110580800D02*
X150787200Y-110580800D01*
X150787200Y-113019200D02*
X152412800Y-113019200D01*
D11*
%TO.C,C11*%
X162459420Y-121310000D02*
X162740580Y-121310000D01*
X162459420Y-120290000D02*
X162740580Y-120290000D01*
%TO.C,R6*%
X145462742Y-102822500D02*
X145937258Y-102822500D01*
X145462742Y-101777500D02*
X145937258Y-101777500D01*
%TO.C,D4*%
X137515000Y-105365000D02*
X137515000Y-106835000D01*
X137515000Y-106835000D02*
X139800000Y-106835000D01*
X139800000Y-105365000D02*
X137515000Y-105365000D01*
%TO.C,U2*%
X144460000Y-113727500D02*
X144460000Y-113252500D01*
X141240000Y-115997500D02*
X141240000Y-116472500D01*
X141240000Y-113727500D02*
X141240000Y-113252500D01*
X144460000Y-113252500D02*
X143985000Y-113252500D01*
X144460000Y-116472500D02*
X143985000Y-116472500D01*
X141240000Y-113252500D02*
X141715000Y-113252500D01*
X144460000Y-115997500D02*
X144460000Y-116472500D01*
%TO.C,D3*%
X141900000Y-106835000D02*
X144185000Y-106835000D01*
X144185000Y-106835000D02*
X144185000Y-105365000D01*
X144185000Y-105365000D02*
X141900000Y-105365000D01*
D12*
%TO.C,Q1*%
X143750000Y-124450000D02*
X143750000Y-123625000D01*
X142895000Y-124450000D02*
X143750000Y-124450000D01*
X143750000Y-121550000D02*
X142895000Y-121550000D01*
X143750000Y-122375000D02*
X143750000Y-121550000D01*
D13*
X140930000Y-122080000D02*
G75*
G03*
X140930000Y-122080000I-100000J0D01*
G01*
D11*
%TO.C,R17*%
X147662742Y-123177500D02*
X148137258Y-123177500D01*
X147662742Y-124222500D02*
X148137258Y-124222500D01*
D12*
%TO.C,Y1*%
X141450000Y-89450000D02*
X141450000Y-90150000D01*
X142950000Y-89450000D02*
X142950000Y-90150000D01*
D11*
%TO.C,J1*%
X165510000Y-122390000D02*
X161490000Y-122390000D01*
X161490000Y-122390000D02*
X161490000Y-130110000D01*
X164010000Y-123390000D02*
X165510000Y-123390000D01*
X163200000Y-129610000D02*
X161990000Y-129610000D01*
X161490000Y-130110000D02*
X165510000Y-130110000D01*
X163200000Y-122890000D02*
X163200000Y-122390000D01*
X163200000Y-130110000D02*
X163200000Y-129610000D01*
X165810000Y-130410000D02*
X165810000Y-127910000D01*
X161990000Y-129610000D02*
X161990000Y-122890000D01*
X164010000Y-122390000D02*
X164010000Y-123390000D01*
X163310000Y-130410000D02*
X165810000Y-130410000D01*
X164010000Y-129110000D02*
X165510000Y-129110000D01*
X161990000Y-122890000D02*
X163200000Y-122890000D01*
X164010000Y-130110000D02*
X164010000Y-129110000D01*
X165510000Y-130110000D02*
X165510000Y-122390000D01*
%TO.C,R3*%
X157737258Y-127922500D02*
X157262742Y-127922500D01*
X157737258Y-126877500D02*
X157262742Y-126877500D01*
%TO.C,R10*%
X143877500Y-119037258D02*
X143877500Y-118562742D01*
X144922500Y-119037258D02*
X144922500Y-118562742D01*
%TO.C,R9*%
X138412742Y-117385000D02*
X138887258Y-117385000D01*
X138412742Y-116340000D02*
X138887258Y-116340000D01*
D15*
%TO.C,SW1*%
X147300000Y-105300000D02*
X151475000Y-105300000D01*
X147300000Y-108500000D02*
X151475000Y-108500000D01*
D13*
X146400000Y-105700000D02*
G75*
G03*
X146400000Y-105900000I0J-100000D01*
G01*
X146400000Y-105900000D02*
G75*
G03*
X146400000Y-105700000I0J100000D01*
G01*
D11*
%TO.C,C16*%
X147740580Y-112790000D02*
X147459420Y-112790000D01*
X147740580Y-113810000D02*
X147459420Y-113810000D01*
%TO.C,U1*%
X146240000Y-89290000D02*
X145790000Y-89290000D01*
X152560000Y-89290000D02*
X153010000Y-89290000D01*
X153010000Y-89290000D02*
X153010000Y-89740000D01*
X145790000Y-96510000D02*
X145790000Y-96060000D01*
X152560000Y-96510000D02*
X153010000Y-96510000D01*
X145790000Y-89740000D02*
X144500000Y-89740000D01*
X153010000Y-96510000D02*
X153010000Y-96060000D01*
X145790000Y-89290000D02*
X145790000Y-89740000D01*
X146240000Y-96510000D02*
X145790000Y-96510000D01*
%TO.C,R5*%
X156922500Y-86237258D02*
X156922500Y-85762742D01*
X155877500Y-86237258D02*
X155877500Y-85762742D01*
%TO.C,C13*%
X148560000Y-117621920D02*
X148560000Y-117903080D01*
X147540000Y-117621920D02*
X147540000Y-117903080D01*
%TO.C,D1*%
X156800000Y-126335000D02*
X159085000Y-126335000D01*
X159085000Y-124865000D02*
X156800000Y-124865000D01*
X159085000Y-126335000D02*
X159085000Y-124865000D01*
%TO.C,R18*%
X148662742Y-128377500D02*
X149137258Y-128377500D01*
X148662742Y-129422500D02*
X149137258Y-129422500D01*
%TO.C,D6*%
X138200000Y-125150000D02*
X143600000Y-125150000D01*
X138200000Y-125150000D02*
X138200000Y-128450000D01*
X138200000Y-128450000D02*
X143600000Y-128450000D01*
%TO.C,R11*%
X140862742Y-111722500D02*
X141337258Y-111722500D01*
X140862742Y-110677500D02*
X141337258Y-110677500D01*
%TO.C,C12*%
X145840000Y-117621920D02*
X145840000Y-117903080D01*
X146860000Y-117621920D02*
X146860000Y-117903080D01*
D12*
%TO.C,D5*%
X156800000Y-123450000D02*
X152400000Y-123450000D01*
X152400000Y-120750000D02*
X156800000Y-120750000D01*
D11*
%TO.C,C7*%
X148290000Y-100059420D02*
X148290000Y-100340580D01*
X149310000Y-100059420D02*
X149310000Y-100340580D01*
%TD*%
M02*
