M48
; DRILL file {KiCad (6.0.5)} date Thu Jul 28 20:20:29 2022
; FORMAT={-:-/ absolute / inch / decimal}
; #@! TF.CreationDate,2022-07-28T20:20:29-06:00
; #@! TF.GenerationSoftware,Kicad,Pcbnew,(6.0.5)
; #@! TF.FileFunction,Plated,1,4,PTH
FMAT,2
INCH
; #@! TA.AperFunction,Plated,PTH,ViaDrill
T1C0.0157
; #@! TA.AperFunction,Plated,PTH,ComponentDrill
T2C0.0236
; #@! TA.AperFunction,Plated,PTH,ComponentDrill
T3C0.0394
%
G90
G05
T1
X5.3622Y-4.1575
X5.3976Y-4.2913
X5.4291Y-4.563
X5.437Y-3.6772
X5.4459Y-3.5344
X5.4843Y-3.6919
X5.4843Y-3.7283
X5.5035Y-4.4267
X5.5049Y-4.3061
X5.5394Y-3.6496
X5.5512Y-3.1575
X5.6024Y-5.1417
X5.6083Y-4.3012
X5.624Y-4.5221
X5.626Y-3.0315
X5.6339Y-3.6417
X5.6614Y-4.3898
X5.7004Y-4.4598
X5.7126Y-3.9606
X5.7165Y-4.1772
X5.7165Y-4.311
X5.7165Y-4.3819
X5.7177Y-4.5118
X5.7402Y-5.2598
X5.7598Y-4.7087
X5.7677Y-3.6496
X5.7717Y-3.4016
X5.7717Y-3.6024
X5.7795Y-3.9606
X5.7795Y-3.9606
X5.7795Y-4.0748
X5.7953Y-4.9882
X5.815Y-5.2874
X5.8425Y-4.0276
X5.8465Y-5.3583
X5.8538Y-3.3941
X5.8701Y-4.3228
X5.8701Y-5.0315
X5.874Y-3.7717
X5.874Y-4.5433
X5.878Y-4.5
X5.878Y-4.6417
X5.8819Y-4.0512
X5.8819Y-4.4173
X5.8858Y-3.5512
X5.8858Y-4.0984
X5.8929Y-3.3976
X5.8937Y-4.878
X5.8937Y-5.2717
X5.9055Y-5.1378
X5.9094Y-4.9606
X5.9252Y-3.5906
X5.9252Y-5.0039
X5.9291Y-3.3976
X5.9449Y-5.2717
X5.9606Y-3.6299
X5.9646Y-3.6772
X5.9803Y-3.5472
X5.9843Y-5.2677
X6.0Y-4.2323
X6.0Y-4.8898
X6.0079Y-3.311
X6.0197Y-4.1181
X6.0354Y-3.2638
X6.0354Y-5.0039
X6.0512Y-3.4882
X6.063Y-3.0472
X6.063Y-3.2008
X6.063Y-3.8307
X6.0748Y-4.4961
X6.0945Y-4.0984
X6.0945Y-4.2323
X6.0984Y-4.5394
X6.1181Y-3.8504
X6.122Y-3.311
X6.122Y-3.311
X6.122Y-3.8976
X6.1324Y-3.6927
X6.1457Y-4.0394
X6.1535Y-4.4291
X6.1654Y-3.6772
X6.1732Y-4.1811
X6.1791Y-3.9705
X6.1811Y-4.5945
X6.185Y-3.9252
X6.19Y-4.1181
X6.1969Y-3.7205
X6.1969Y-3.8346
X6.2205Y-3.3583
X6.2264Y-3.628
X6.2441Y-3.2441
X6.2559Y-3.3031
X6.2559Y-3.5394
X6.2579Y-3.1319
X6.2598Y-3.189
X6.2677Y-3.3622
X6.2874Y-4.8661
X6.311Y-3.8543
X6.4882Y-4.752
T3
X5.2717Y-3.137
X5.2717Y-3.237
X5.2717Y-3.337
X5.2717Y-3.437
X5.2756Y-3.5819
X5.2756Y-3.6819
X5.2756Y-3.7819
X5.2756Y-3.8819
X5.2756Y-4.0236
X5.2756Y-4.1236
X5.2756Y-4.2236
X5.2756Y-4.3236
X5.2756Y-4.4236
X5.2756Y-4.5236
X5.2756Y-4.6236
X5.3071Y-4.9213
X5.3071Y-5.0197
X5.4817Y-4.0315
X5.5817Y-4.0315
X6.3071Y-3.4795
X6.3071Y-3.5795
X6.3071Y-3.6795
X6.3071Y-3.7795
X6.3081Y-3.9222
X6.3081Y-4.0222
X6.3081Y-4.1222
X6.3081Y-4.2222
X6.3081Y-4.3222
X6.3081Y-4.4222
X6.3081Y-4.5222
X6.3081Y-4.6222
X6.4252Y-4.9213
X6.4252Y-5.0197
X6.4577Y-3.4803
X6.4577Y-3.5803
X6.4577Y-3.6803
X6.4577Y-3.7803
X6.4577Y-3.9222
X6.4577Y-4.0222
X6.4577Y-4.1222
X6.4577Y-4.2222
X6.4577Y-4.3222
X6.4577Y-4.4222
X6.4577Y-4.5222
X6.4577Y-4.6222
T2
G00X5.6437Y-5.376
M15
G01X5.6437Y-5.435
M16
G05
G00X5.6961Y-5.1748
M15
G01X5.6961Y-5.2142
M16
G05
G00X6.0362Y-5.1748
M15
G01X6.0362Y-5.2142
M16
G05
G00X6.0886Y-5.376
M15
G01X6.0886Y-5.435
M16
G05
T0
M30
