%TF.GenerationSoftware,KiCad,Pcbnew,(6.0.5)*%
%TF.CreationDate,2022-07-28T11:09:16-06:00*%
%TF.ProjectId,transmitter,7472616e-736d-4697-9474-65722e6b6963,rev?*%
%TF.SameCoordinates,Original*%
%TF.FileFunction,Copper,L4,Bot*%
%TF.FilePolarity,Positive*%
%FSLAX46Y46*%
G04 Gerber Fmt 4.6, Leading zero omitted, Abs format (unit mm)*
G04 Created by KiCad (PCBNEW (6.0.5)) date 2022-07-28 11:09:16*
%MOMM*%
%LPD*%
G01*
G04 APERTURE LIST*
G04 Aperture macros list*
%AMRoundRect*
0 Rectangle with rounded corners*
0 $1 Rounding radius*
0 $2 $3 $4 $5 $6 $7 $8 $9 X,Y pos of 4 corners*
0 Add a 4 corners polygon primitive as box body*
4,1,4,$2,$3,$4,$5,$6,$7,$8,$9,$2,$3,0*
0 Add four circle primitives for the rounded corners*
1,1,$1+$1,$2,$3*
1,1,$1+$1,$4,$5*
1,1,$1+$1,$6,$7*
1,1,$1+$1,$8,$9*
0 Add four rect primitives between the rounded corners*
20,1,$1+$1,$2,$3,$4,$5,0*
20,1,$1+$1,$4,$5,$6,$7,0*
20,1,$1+$1,$6,$7,$8,$9,0*
20,1,$1+$1,$8,$9,$2,$3,0*%
G04 Aperture macros list end*
%TA.AperFunction,ComponentPad*%
%ADD10R,1.700000X1.700000*%
%TD*%
%TA.AperFunction,ComponentPad*%
%ADD11O,1.700000X1.700000*%
%TD*%
%TA.AperFunction,ComponentPad*%
%ADD12RoundRect,0.250000X-0.750000X0.600000X-0.750000X-0.600000X0.750000X-0.600000X0.750000X0.600000X0*%
%TD*%
%TA.AperFunction,ComponentPad*%
%ADD13O,2.000000X1.700000*%
%TD*%
%TA.AperFunction,ComponentPad*%
%ADD14O,1.100000X2.200000*%
%TD*%
%TA.AperFunction,ComponentPad*%
%ADD15O,1.300000X2.600000*%
%TD*%
%TA.AperFunction,ComponentPad*%
%ADD16RoundRect,0.250000X0.750000X-0.600000X0.750000X0.600000X-0.750000X0.600000X-0.750000X-0.600000X0*%
%TD*%
%TA.AperFunction,SMDPad,CuDef*%
%ADD17RoundRect,0.225000X-0.225000X-0.250000X0.225000X-0.250000X0.225000X0.250000X-0.225000X0.250000X0*%
%TD*%
%TA.AperFunction,SMDPad,CuDef*%
%ADD18RoundRect,0.225000X-0.250000X0.225000X-0.250000X-0.225000X0.250000X-0.225000X0.250000X0.225000X0*%
%TD*%
%TA.AperFunction,SMDPad,CuDef*%
%ADD19RoundRect,0.225000X0.250000X-0.225000X0.250000X0.225000X-0.250000X0.225000X-0.250000X-0.225000X0*%
%TD*%
%TA.AperFunction,SMDPad,CuDef*%
%ADD20RoundRect,0.200000X-0.275000X0.200000X-0.275000X-0.200000X0.275000X-0.200000X0.275000X0.200000X0*%
%TD*%
%TA.AperFunction,ViaPad*%
%ADD21C,0.800000*%
%TD*%
%TA.AperFunction,Conductor*%
%ADD22C,0.250000*%
%TD*%
%TA.AperFunction,Conductor*%
%ADD23C,0.200000*%
%TD*%
%TA.AperFunction,Conductor*%
%ADD24C,0.800000*%
%TD*%
%TA.AperFunction,Conductor*%
%ADD25C,1.000000*%
%TD*%
%TA.AperFunction,Conductor*%
%ADD26C,0.254000*%
%TD*%
G04 APERTURE END LIST*
D10*
%TO.P,J5,1,Pin_1*%
%TO.N,GND*%
X134000000Y-102200000D03*
D11*
%TO.P,J5,2,Pin_2*%
%TO.N,/MISO*%
X134000000Y-104740000D03*
%TO.P,J5,3,Pin_3*%
%TO.N,/MOSI*%
X134000000Y-107280000D03*
%TO.P,J5,4,Pin_4*%
%TO.N,/SCK*%
X134000000Y-109820000D03*
%TO.P,J5,5,Pin_5*%
%TO.N,/CS1*%
X134000000Y-112360000D03*
%TO.P,J5,6,Pin_6*%
%TO.N,/CS*%
X134000000Y-114900000D03*
%TO.P,J5,7,Pin_7*%
%TO.N,+3V3*%
X134000000Y-117440000D03*
%TD*%
D10*
%TO.P,J11,1,Pin_1*%
%TO.N,GND*%
X164025000Y-99625000D03*
D11*
%TO.P,J11,2,Pin_2*%
%TO.N,/MISO*%
X164025000Y-102165000D03*
%TO.P,J11,3,Pin_3*%
%TO.N,/MOSI*%
X164025000Y-104705000D03*
%TO.P,J11,4,Pin_4*%
%TO.N,/SCK*%
X164025000Y-107245000D03*
%TO.P,J11,5,Pin_5*%
%TO.N,/RST*%
X164025000Y-109785000D03*
%TO.P,J11,6,Pin_6*%
%TO.N,/CS3*%
X164025000Y-112325000D03*
%TO.P,J11,7,Pin_7*%
%TO.N,/IRQ*%
X164025000Y-114865000D03*
%TO.P,J11,8,Pin_8*%
%TO.N,+3V3*%
X164025000Y-117405000D03*
%TD*%
D10*
%TO.P,J8,1,Pin_1*%
%TO.N,GND*%
X134000000Y-90980000D03*
D11*
%TO.P,J8,2,Pin_2*%
%TO.N,/TX*%
X134000000Y-93520000D03*
%TO.P,J8,3,Pin_3*%
%TO.N,/RX*%
X134000000Y-96060000D03*
%TO.P,J8,4,Pin_4*%
%TO.N,+3V3*%
X134000000Y-98600000D03*
%TD*%
D10*
%TO.P,J7,1,Pin_1*%
%TO.N,GND*%
X164025000Y-88400000D03*
D11*
%TO.P,J7,2,Pin_2*%
%TO.N,/SCL*%
X164025000Y-90940000D03*
%TO.P,J7,3,Pin_3*%
%TO.N,/SDA*%
X164025000Y-93480000D03*
%TO.P,J7,4,Pin_4*%
%TO.N,+3V3*%
X164025000Y-96020000D03*
%TD*%
D10*
%TO.P,J6,1,Pin_1*%
%TO.N,GND*%
X160200000Y-96000000D03*
D11*
%TO.P,J6,2,Pin_2*%
%TO.N,/SWCLK*%
X160200000Y-93460000D03*
%TO.P,J6,3,Pin_3*%
%TO.N,/SWDIO*%
X160200000Y-90920000D03*
%TO.P,J6,4,Pin_4*%
%TO.N,+3V3*%
X160200000Y-88380000D03*
%TD*%
D10*
%TO.P,J3,1,Pin_1*%
%TO.N,GND*%
X160225000Y-99625000D03*
D11*
%TO.P,J3,2,Pin_2*%
%TO.N,/MISO*%
X160225000Y-102165000D03*
%TO.P,J3,3,Pin_3*%
%TO.N,/MOSI*%
X160225000Y-104705000D03*
%TO.P,J3,4,Pin_4*%
%TO.N,/SCK*%
X160225000Y-107245000D03*
%TO.P,J3,5,Pin_5*%
%TO.N,/CS2*%
X160225000Y-109785000D03*
%TO.P,J3,6,Pin_6*%
%TO.N,/SDA*%
X160225000Y-112325000D03*
%TO.P,J3,7,Pin_7*%
%TO.N,/SCL*%
X160225000Y-114865000D03*
%TO.P,J3,8,Pin_8*%
%TO.N,+3V3*%
X160225000Y-117405000D03*
%TD*%
D10*
%TO.P,J2,1,Pin_1*%
%TO.N,/MCU/GPIO4*%
X133900000Y-87300000D03*
D11*
%TO.P,J2,2,Pin_2*%
%TO.N,/MCU/GPIO3*%
X133900000Y-84760000D03*
%TO.P,J2,3,Pin_3*%
%TO.N,/MCU/GPIO2*%
X133900000Y-82220000D03*
%TO.P,J2,4,Pin_4*%
%TO.N,/MCU/GPIO1*%
X133900000Y-79680000D03*
%TD*%
D12*
%TO.P,J9,1,Pin_1*%
%TO.N,GND*%
X134800000Y-125000000D03*
D13*
%TO.P,J9,2,Pin_2*%
%TO.N,Net-(D2-Pad2)*%
X134800000Y-127500000D03*
%TD*%
D14*
%TO.P,J10,S1,SHIELD*%
%TO.N,unconnected-(J10-PadS1)*%
X144680000Y-131940000D03*
%TO.P,J10,S2,SHIELD*%
X153320000Y-131940000D03*
D15*
%TO.P,J10,S3,SHIELD*%
X143350000Y-137300000D03*
%TO.P,J10,S4,SHIELD*%
X154650000Y-137300000D03*
%TD*%
D10*
%TO.P,J4,1,Pin_1*%
%TO.N,/~{THERM}*%
X141775000Y-102400000D03*
D11*
%TO.P,J4,2,Pin_2*%
%TO.N,+3V3*%
X139235000Y-102400000D03*
%TD*%
D16*
%TO.P,J1,1,Pin_1*%
%TO.N,GND*%
X163200000Y-127500000D03*
D13*
%TO.P,J1,2,Pin_2*%
%TO.N,/VBAT*%
X163200000Y-125000000D03*
%TD*%
D17*
%TO.P,C9,1*%
%TO.N,+3V3*%
X147725000Y-94400000D03*
%TO.P,C9,2*%
%TO.N,GND*%
X149275000Y-94400000D03*
%TD*%
D18*
%TO.P,C5,1*%
%TO.N,GND*%
X149200000Y-83625000D03*
%TO.P,C5,2*%
%TO.N,Net-(C5-Pad2)*%
X149200000Y-85175000D03*
%TD*%
D17*
%TO.P,C8,1*%
%TO.N,+3V3*%
X147725000Y-92700000D03*
%TO.P,C8,2*%
%TO.N,GND*%
X149275000Y-92700000D03*
%TD*%
D18*
%TO.P,C4,1*%
%TO.N,GND*%
X147400000Y-83625000D03*
%TO.P,C4,2*%
%TO.N,Net-(C4-Pad2)*%
X147400000Y-85175000D03*
%TD*%
D19*
%TO.P,C3,1*%
%TO.N,Net-(C3-Pad1)*%
X151000000Y-85175000D03*
%TO.P,C3,2*%
%TO.N,GND*%
X151000000Y-83625000D03*
%TD*%
D20*
%TO.P,R19,1*%
%TO.N,Net-(J10-PadB5)*%
X149700000Y-135175000D03*
%TO.P,R19,2*%
%TO.N,GND*%
X149700000Y-136825000D03*
%TD*%
D21*
%TO.N,GND*%
X155500000Y-84100000D03*
X149500000Y-90200000D03*
X138325000Y-89775000D03*
X137900000Y-115900000D03*
X149200000Y-95800000D03*
X146600000Y-91500000D03*
X159000000Y-81000000D03*
X149100000Y-127800000D03*
X152400000Y-107500000D03*
X149400000Y-112200000D03*
X153300000Y-82900000D03*
X158900000Y-89900000D03*
X145200000Y-109500000D03*
X159200000Y-85400000D03*
X146800000Y-103500000D03*
X142850000Y-114862500D03*
X164800000Y-120700000D03*
X148400000Y-102300000D03*
X154900000Y-115300000D03*
X145800000Y-133600000D03*
X149200000Y-115400000D03*
X158950000Y-79550000D03*
X155500000Y-84100000D03*
X154000000Y-77400000D03*
X150500000Y-91200000D03*
X147200000Y-126700000D03*
X148500000Y-136100000D03*
X153300000Y-127100000D03*
X152000000Y-133800000D03*
X146300000Y-119600000D03*
X152600000Y-84100000D03*
X159700000Y-123600000D03*
X139789355Y-112439442D03*
%TO.N,Net-(C3-Pad1)*%
X152900000Y-104600000D03*
X150600000Y-86300000D03*
%TO.N,Net-(C4-Pad2)*%
X148300000Y-86300000D03*
%TO.N,Net-(C5-Pad2)*%
X149300000Y-86200000D03*
%TO.N,+3V3*%
X149300000Y-114300000D03*
X151900000Y-90100000D03*
X154800000Y-104100000D03*
X154300000Y-114200000D03*
X154000000Y-81300000D03*
X146500000Y-92700000D03*
X158900000Y-83900000D03*
X145200000Y-106100000D03*
X146800000Y-100600000D03*
X146800000Y-100600000D03*
%TO.N,/LiPo/SOUT*%
X149300000Y-117900000D03*
X149700000Y-123900000D03*
%TO.N,/Regulators/+5V_reg*%
X152400000Y-124200000D03*
X157000000Y-116700000D03*
%TO.N,Net-(D2-Pad2)*%
X142300000Y-130600000D03*
%TO.N,Net-(D6-Pad2)*%
X147700000Y-134300000D03*
X151000000Y-133900000D03*
%TO.N,/MISO*%
X157100000Y-99700000D03*
X149500000Y-104100000D03*
%TO.N,/MOSI*%
X157226500Y-104600000D03*
X149400000Y-102900000D03*
%TO.N,/SCK*%
X149100000Y-109800000D03*
X156950000Y-100850000D03*
X154800000Y-107500000D03*
X156800000Y-106200000D03*
%TO.N,/SDA*%
X158000000Y-85300000D03*
X156300000Y-112500000D03*
X157400000Y-94500000D03*
%TO.N,/SCL*%
X158150000Y-92150000D03*
%TO.N,/CS1*%
X137100000Y-109000000D03*
X140700000Y-92700000D03*
%TO.N,/CS*%
X136200000Y-105600000D03*
X138100000Y-93400000D03*
%TO.N,/SWCLK*%
X153700000Y-88600000D03*
%TO.N,/D+*%
X150500000Y-127100000D03*
X151400000Y-92200000D03*
%TO.N,/D-*%
X151500000Y-93400000D03*
X150000000Y-130500000D03*
%TO.N,Net-(J10-PadB5)*%
X149700000Y-133900000D03*
%TO.N,/MCU/VDIV*%
X143100000Y-92500000D03*
X150100000Y-126000000D03*
%TO.N,/PGOOD*%
X142450000Y-109250000D03*
X145230500Y-114600000D03*
X139300000Y-94700000D03*
X145200000Y-111300000D03*
%TO.N,/CHG*%
X139300000Y-93773497D03*
X144790631Y-113278869D03*
X139825000Y-109375000D03*
X143800000Y-111500000D03*
%TO.N,/LEDs/G_a*%
X141000000Y-80200000D03*
X154000000Y-97300000D03*
%TO.N,/LEDs/B_a*%
X155400000Y-97800000D03*
X142900000Y-77000000D03*
%TO.N,/CS3*%
X157400000Y-97400000D03*
X160300000Y-97900000D03*
X155761695Y-93794527D03*
%TO.N,/IRQ*%
X155500000Y-99000000D03*
X156100000Y-102600000D03*
%TO.N,/Barometer/INTB*%
X156600000Y-93400000D03*
X158600000Y-82400000D03*
%TD*%
D22*
%TO.N,GND*%
X149225000Y-136825000D02*
X148500000Y-136100000D01*
X149700000Y-136825000D02*
X149225000Y-136825000D01*
X149200000Y-83625000D02*
X151325000Y-83625000D01*
X149275000Y-90425000D02*
X149500000Y-90200000D01*
X151600000Y-83900000D02*
X151800000Y-84100000D01*
X147400000Y-83625000D02*
X149200000Y-83625000D01*
X149275000Y-92700000D02*
X149275000Y-90425000D01*
X149275000Y-95725000D02*
X149200000Y-95800000D01*
X151325000Y-83625000D02*
X151600000Y-83900000D01*
X151800000Y-84100000D02*
X152600000Y-84100000D01*
X149275000Y-94400000D02*
X149275000Y-95725000D01*
%TO.N,Net-(C3-Pad1)*%
X150600000Y-86300000D02*
X152900000Y-88600000D01*
X150600000Y-86300000D02*
X151000000Y-85900000D01*
X151000000Y-85900000D02*
X151000000Y-85175000D01*
X152900000Y-88600000D02*
X152900000Y-104600000D01*
%TO.N,Net-(C4-Pad2)*%
X147400000Y-85400000D02*
X147400000Y-85175000D01*
X148300000Y-86300000D02*
X147400000Y-85400000D01*
%TO.N,Net-(C5-Pad2)*%
X149200000Y-86100000D02*
X149300000Y-86200000D01*
X149200000Y-85175000D02*
X149200000Y-86100000D01*
D23*
%TO.N,+3V3*%
X147725000Y-92700000D02*
X146500000Y-92700000D01*
X147725000Y-94400000D02*
X147725000Y-92700000D01*
D24*
%TO.N,/LiPo/SOUT*%
X148900000Y-118300000D02*
X149300000Y-117900000D01*
X148900000Y-123100000D02*
X148900000Y-118300000D01*
X149700000Y-123900000D02*
X148900000Y-123100000D01*
D25*
%TO.N,/Regulators/+5V_reg*%
X153500000Y-124200000D02*
X157000000Y-120700000D01*
X152400000Y-124200000D02*
X153500000Y-124200000D01*
X157000000Y-120700000D02*
X157000000Y-116700000D01*
D24*
%TO.N,Net-(D2-Pad2)*%
X139200000Y-127500000D02*
X142300000Y-130600000D01*
X134800000Y-127500000D02*
X139200000Y-127500000D01*
D23*
%TO.N,Net-(D6-Pad2)*%
X148300000Y-137700000D02*
X147700000Y-137100000D01*
X151000000Y-133900000D02*
X151000000Y-137300000D01*
X147700000Y-137100000D02*
X147700000Y-134300000D01*
X150400000Y-137900000D02*
X148500000Y-137900000D01*
X148500000Y-137900000D02*
X148300000Y-137700000D01*
X151000000Y-137300000D02*
X150400000Y-137900000D01*
%TO.N,/MOSI*%
X142926479Y-110343480D02*
X147200000Y-110343480D01*
X147200000Y-110343480D02*
X148369991Y-109173489D01*
X136746511Y-110001511D02*
X142584510Y-110001511D01*
X142584510Y-110001511D02*
X142926479Y-110343480D01*
X134025000Y-107280000D02*
X136746511Y-110001511D01*
X148369991Y-103930009D02*
X149400000Y-102900000D01*
X148369991Y-109173489D02*
X148369991Y-103930009D01*
%TO.N,/SCK*%
X156600000Y-106000000D02*
X156800000Y-106200000D01*
X148230000Y-110670000D02*
X149100000Y-109800000D01*
X156600000Y-102986021D02*
X156600000Y-106000000D01*
X156100000Y-106200000D02*
X156800000Y-106200000D01*
X134875000Y-110670000D02*
X148230000Y-110670000D01*
X156950000Y-100850000D02*
X156950000Y-102636021D01*
X156950000Y-102636021D02*
X156600000Y-102986021D01*
X154800000Y-107500000D02*
X156100000Y-106200000D01*
X134025000Y-109820000D02*
X134875000Y-110670000D01*
%TO.N,/SDA*%
X160225000Y-112325000D02*
X158776511Y-110876511D01*
X157913979Y-91500000D02*
X157400000Y-92013979D01*
X157400000Y-92013979D02*
X157400000Y-94500000D01*
X158776511Y-110876511D02*
X158776511Y-91890490D01*
X157823489Y-85476511D02*
X158000000Y-85300000D01*
X158776511Y-91890490D02*
X158386021Y-91500000D01*
X158386021Y-91500000D02*
X157913979Y-91500000D01*
X157913979Y-91500000D02*
X157823489Y-91409510D01*
X157823489Y-91409510D02*
X157823489Y-85476511D01*
%TO.N,/SCL*%
X160225000Y-114865000D02*
X158150000Y-112790000D01*
X158150000Y-112790000D02*
X158150000Y-92150000D01*
%TO.N,/CS1*%
X140700000Y-92700000D02*
X137913979Y-92700000D01*
X135573489Y-107473489D02*
X137100000Y-109000000D01*
X135573489Y-95040490D02*
X135573489Y-107473489D01*
X137913979Y-92700000D02*
X135573489Y-95040490D01*
%TO.N,/CS*%
X136200000Y-95300000D02*
X138100000Y-93400000D01*
X136200000Y-105600000D02*
X136200000Y-95300000D01*
%TO.N,/D+*%
X150800000Y-92800000D02*
X150800000Y-126800000D01*
X150800000Y-126800000D02*
X150500000Y-127100000D01*
X151400000Y-92200000D02*
X150800000Y-92800000D01*
%TO.N,/D-*%
X151500000Y-93400000D02*
X151126511Y-93773489D01*
X151126511Y-93773489D02*
X151126511Y-129373489D01*
X151126511Y-129373489D02*
X150000000Y-130500000D01*
D22*
%TO.N,Net-(J10-PadB5)*%
X149700000Y-133900000D02*
X149700000Y-135175000D01*
%TO.N,unconnected-(J10-PadS1)*%
X144680000Y-131940000D02*
X144460000Y-131940000D01*
X144460000Y-131940000D02*
X143350000Y-133050000D01*
X154650000Y-133270000D02*
X153320000Y-131940000D01*
X153320000Y-131940000D02*
X144680000Y-131940000D01*
X143350000Y-133050000D02*
X143350000Y-137300000D01*
X154650000Y-137300000D02*
X154650000Y-133270000D01*
%TO.N,/MCU/VDIV*%
X150448480Y-115500000D02*
X150448480Y-125651520D01*
X150448480Y-106588480D02*
X150448480Y-115500000D01*
X150448480Y-125651520D02*
X150100000Y-126000000D01*
X150151511Y-106291511D02*
X150448480Y-106588480D01*
X150151511Y-99551511D02*
X150151511Y-106291511D01*
X143100000Y-92500000D02*
X150151511Y-99551511D01*
D26*
%TO.N,/PGOOD*%
X143200000Y-98600000D02*
X142851511Y-98251511D01*
D23*
X145230500Y-114600000D02*
X145500000Y-114330500D01*
X145300000Y-111300000D02*
X145200000Y-111300000D01*
D26*
X143200000Y-108500000D02*
X143200000Y-98600000D01*
D23*
X145500000Y-114330500D02*
X145500000Y-111500000D01*
D26*
X142450000Y-109250000D02*
X143200000Y-108500000D01*
D23*
X145500000Y-111500000D02*
X145300000Y-111300000D01*
X142851511Y-98251511D02*
X139300000Y-94700000D01*
%TO.N,/CHG*%
X140311511Y-96597532D02*
X140311511Y-108888489D01*
X138673489Y-94400008D02*
X138673489Y-94959510D01*
X140311511Y-108888489D02*
X139825000Y-109375000D01*
X138673489Y-94959510D02*
X140311511Y-96597532D01*
X139300000Y-93773497D02*
X138673489Y-94400008D01*
D22*
X144790631Y-113278869D02*
X144790631Y-112490631D01*
X144790631Y-112490631D02*
X143800000Y-111500000D01*
%TO.N,/LEDs/G_a*%
X154351511Y-96948489D02*
X154351511Y-88330134D01*
X154200000Y-84721377D02*
X151430134Y-81951511D01*
X151430134Y-81951511D02*
X142751511Y-81951511D01*
X154000000Y-97300000D02*
X154351511Y-96948489D01*
X142751511Y-81951511D02*
X141000000Y-80200000D01*
X154351511Y-88330134D02*
X154200000Y-88178623D01*
X154200000Y-88178623D02*
X154200000Y-84721377D01*
%TO.N,/LEDs/B_a*%
X154728031Y-97104448D02*
X154728031Y-88174175D01*
X154700000Y-79500000D02*
X152200000Y-77000000D01*
X152200000Y-77000000D02*
X142900000Y-77000000D01*
X155400000Y-97800000D02*
X154716240Y-97116240D01*
X154700000Y-88146144D02*
X154700000Y-79500000D01*
X154728031Y-88174175D02*
X154700000Y-88146144D01*
X154716240Y-97116240D02*
X154728031Y-97104448D01*
D23*
%TO.N,/CS3*%
X164025000Y-112325000D02*
X162948489Y-111248489D01*
X162948489Y-111248489D02*
X162948489Y-100248489D01*
X157400000Y-95432832D02*
X157400000Y-97400000D01*
X162948489Y-100248489D02*
X160600000Y-97900000D01*
X160600000Y-97900000D02*
X160300000Y-97900000D01*
X155761695Y-93794527D02*
X157400000Y-95432832D01*
%TO.N,/IRQ*%
X156100000Y-102600000D02*
X156100000Y-99400000D01*
X156100000Y-99400000D02*
X155700000Y-99000000D01*
X155700000Y-99000000D02*
X155500000Y-99000000D01*
%TO.N,/Barometer/INTB*%
X156600000Y-84400000D02*
X158600000Y-82400000D01*
X156600000Y-93400000D02*
X156600000Y-84400000D01*
%TD*%
M02*
