%TF.GenerationSoftware,KiCad,Pcbnew,(6.0.5)*%
%TF.CreationDate,2022-07-28T20:15:56-06:00*%
%TF.ProjectId,sensor_board,73656e73-6f72-45f6-926f-6172642e6b69,rev?*%
%TF.SameCoordinates,Original*%
%TF.FileFunction,Legend,Bot*%
%TF.FilePolarity,Positive*%
%FSLAX46Y46*%
G04 Gerber Fmt 4.6, Leading zero omitted, Abs format (unit mm)*
G04 Created by KiCad (PCBNEW (6.0.5)) date 2022-07-28 20:15:56*
%MOMM*%
%LPD*%
G01*
G04 APERTURE LIST*
%ADD10C,0.150000*%
G04 APERTURE END LIST*
D10*
X128219047Y-116471428D02*
X128980952Y-116471428D01*
X128600000Y-116852380D02*
X128600000Y-116090476D01*
X126795238Y-98657142D02*
X126842857Y-98704761D01*
X126985714Y-98752380D01*
X127080952Y-98752380D01*
X127223809Y-98704761D01*
X127319047Y-98609523D01*
X127366666Y-98514285D01*
X127414285Y-98323809D01*
X127414285Y-98180952D01*
X127366666Y-97990476D01*
X127319047Y-97895238D01*
X127223809Y-97800000D01*
X127080952Y-97752380D01*
X126985714Y-97752380D01*
X126842857Y-97800000D01*
X126795238Y-97847619D01*
X125890476Y-98752380D02*
X126366666Y-98752380D01*
X126366666Y-97752380D01*
X131790476Y-116852380D02*
X131790476Y-115852380D01*
X131552380Y-115852380D01*
X131409523Y-115900000D01*
X131314285Y-115995238D01*
X131266666Y-116090476D01*
X131219047Y-116280952D01*
X131219047Y-116423809D01*
X131266666Y-116614285D01*
X131314285Y-116709523D01*
X131409523Y-116804761D01*
X131552380Y-116852380D01*
X131790476Y-116852380D01*
X130838095Y-116566666D02*
X130361904Y-116566666D01*
X130933333Y-116852380D02*
X130600000Y-115852380D01*
X130266666Y-116852380D01*
X134795238Y-109557142D02*
X134842857Y-109604761D01*
X134985714Y-109652380D01*
X135080952Y-109652380D01*
X135223809Y-109604761D01*
X135319047Y-109509523D01*
X135366666Y-109414285D01*
X135414285Y-109223809D01*
X135414285Y-109080952D01*
X135366666Y-108890476D01*
X135319047Y-108795238D01*
X135223809Y-108700000D01*
X135080952Y-108652380D01*
X134985714Y-108652380D01*
X134842857Y-108700000D01*
X134795238Y-108747619D01*
X133890476Y-109652380D02*
X134366666Y-109652380D01*
X134366666Y-108652380D01*
X124990476Y-98752380D02*
X124990476Y-97752380D01*
X124752380Y-97752380D01*
X124609523Y-97800000D01*
X124514285Y-97895238D01*
X124466666Y-97990476D01*
X124419047Y-98180952D01*
X124419047Y-98323809D01*
X124466666Y-98514285D01*
X124514285Y-98609523D01*
X124609523Y-98704761D01*
X124752380Y-98752380D01*
X124990476Y-98752380D01*
X124038095Y-98466666D02*
X123561904Y-98466666D01*
X124133333Y-98752380D02*
X123800000Y-97752380D01*
X123466666Y-98752380D01*
X135590476Y-107152380D02*
X135590476Y-106152380D01*
X135352380Y-106152380D01*
X135209523Y-106200000D01*
X135114285Y-106295238D01*
X135066666Y-106390476D01*
X135019047Y-106580952D01*
X135019047Y-106723809D01*
X135066666Y-106914285D01*
X135114285Y-107009523D01*
X135209523Y-107104761D01*
X135352380Y-107152380D01*
X135590476Y-107152380D01*
X134638095Y-106866666D02*
X134161904Y-106866666D01*
X134733333Y-107152380D02*
X134400000Y-106152380D01*
X134066666Y-107152380D01*
X133219047Y-116371428D02*
X133980952Y-116371428D01*
X135180952Y-104547380D02*
X135180952Y-103547380D01*
X134847619Y-103547380D02*
X134276190Y-103547380D01*
X134561904Y-104547380D02*
X134561904Y-103547380D01*
X121880952Y-98171428D02*
X121119047Y-98171428D01*
X134519047Y-101771428D02*
X135280952Y-101771428D01*
X128919047Y-98171428D02*
X129680952Y-98171428D01*
X129300000Y-98552380D02*
X129300000Y-97790476D01*
X134419047Y-111971428D02*
X135180952Y-111971428D01*
X134800000Y-112352380D02*
X134800000Y-111590476D01*
M02*
