%TF.GenerationSoftware,KiCad,Pcbnew,(6.0.5)*%
%TF.CreationDate,2022-07-28T20:15:56-06:00*%
%TF.ProjectId,sensor_board,73656e73-6f72-45f6-926f-6172642e6b69,rev?*%
%TF.SameCoordinates,Original*%
%TF.FileFunction,Legend,Top*%
%TF.FilePolarity,Positive*%
%FSLAX46Y46*%
G04 Gerber Fmt 4.6, Leading zero omitted, Abs format (unit mm)*
G04 Created by KiCad (PCBNEW (6.0.5)) date 2022-07-28 20:15:56*
%MOMM*%
%LPD*%
G01*
G04 APERTURE LIST*
%ADD10C,0.120000*%
%ADD11C,0.100000*%
%ADD12C,0.200000*%
%ADD13C,0.127000*%
G04 APERTURE END LIST*
D10*
%TO.C,J1*%
X132530000Y-117570000D02*
X132530000Y-120230000D01*
X132530000Y-120230000D02*
X127390000Y-120230000D01*
X127390000Y-117570000D02*
X127390000Y-120230000D01*
X135130000Y-117570000D02*
X135130000Y-118900000D01*
X132530000Y-117570000D02*
X127390000Y-117570000D01*
X133800000Y-117570000D02*
X135130000Y-117570000D01*
%TO.C,J4*%
X135770000Y-101605000D02*
X135770000Y-100275000D01*
X138430000Y-102875000D02*
X138430000Y-113095000D01*
X135770000Y-113095000D02*
X138430000Y-113095000D01*
X135770000Y-100275000D02*
X137100000Y-100275000D01*
X135770000Y-102875000D02*
X138430000Y-102875000D01*
X135770000Y-102875000D02*
X135770000Y-113095000D01*
%TO.C,C1*%
X118659420Y-102490000D02*
X118940580Y-102490000D01*
X118659420Y-103510000D02*
X118940580Y-103510000D01*
%TO.C,C2*%
X118659420Y-106010000D02*
X118940580Y-106010000D01*
X118659420Y-104990000D02*
X118940580Y-104990000D01*
%TO.C,C3*%
X132310000Y-99740580D02*
X132310000Y-99459420D01*
X131290000Y-99740580D02*
X131290000Y-99459420D01*
%TO.C,R3*%
X122962742Y-113922500D02*
X123437258Y-113922500D01*
X122962742Y-112877500D02*
X123437258Y-112877500D01*
%TO.C,J3*%
X122880000Y-94370000D02*
X130560000Y-94370000D01*
X120280000Y-97030000D02*
X120280000Y-95700000D01*
X130560000Y-97030000D02*
X130560000Y-94370000D01*
X121610000Y-97030000D02*
X120280000Y-97030000D01*
X122880000Y-97030000D02*
X130560000Y-97030000D01*
X122880000Y-97030000D02*
X122880000Y-94370000D01*
%TO.C,C8*%
X121540580Y-109510000D02*
X121259420Y-109510000D01*
X121540580Y-108490000D02*
X121259420Y-108490000D01*
%TO.C,C7*%
X127890000Y-114459420D02*
X127890000Y-114740580D01*
X128910000Y-114459420D02*
X128910000Y-114740580D01*
%TO.C,R1*%
X137537258Y-98922500D02*
X137062742Y-98922500D01*
X137537258Y-97877500D02*
X137062742Y-97877500D01*
%TO.C,R4*%
X119122500Y-114537258D02*
X119122500Y-114062742D01*
X118077500Y-114537258D02*
X118077500Y-114062742D01*
%TO.C,J2*%
X122095000Y-120330000D02*
X122095000Y-117670000D01*
X122095000Y-117670000D02*
X124695000Y-117670000D01*
X119495000Y-120330000D02*
X119495000Y-119000000D01*
X124695000Y-120330000D02*
X124695000Y-117670000D01*
X120825000Y-120330000D02*
X119495000Y-120330000D01*
X122095000Y-120330000D02*
X124695000Y-120330000D01*
%TO.C,C4*%
X128910000Y-99484420D02*
X128910000Y-99765580D01*
X127890000Y-99484420D02*
X127890000Y-99765580D01*
%TO.C,R2*%
X134437258Y-97877500D02*
X133962742Y-97877500D01*
X134437258Y-98922500D02*
X133962742Y-98922500D01*
%TO.C,D1*%
X121727500Y-114365000D02*
X121727500Y-115835000D01*
X121727500Y-115835000D02*
X124012500Y-115835000D01*
X124012500Y-114365000D02*
X121727500Y-114365000D01*
%TO.C,C5*%
X130610000Y-99459420D02*
X130610000Y-99740580D01*
X129590000Y-99459420D02*
X129590000Y-99740580D01*
%TO.C,C9*%
X121540580Y-106790000D02*
X121259420Y-106790000D01*
X121540580Y-107810000D02*
X121259420Y-107810000D01*
D11*
%TO.C,SW1*%
X133000000Y-97300000D02*
X137175000Y-97300000D01*
X133000000Y-94100000D02*
X137175000Y-94100000D01*
D12*
X132100000Y-94500000D02*
G75*
G03*
X132100000Y-94700000I0J-100000D01*
G01*
X132100000Y-94700000D02*
G75*
G03*
X132100000Y-94500000I0J100000D01*
G01*
D13*
%TO.C,Y1*%
X121650000Y-103950000D02*
X121650000Y-104650000D01*
X123150000Y-103950000D02*
X123150000Y-104650000D01*
D10*
%TO.C,U1*%
X125940000Y-111110000D02*
X125490000Y-111110000D01*
X125940000Y-103890000D02*
X125490000Y-103890000D01*
X125490000Y-111110000D02*
X125490000Y-110660000D01*
X132260000Y-103890000D02*
X132710000Y-103890000D01*
X132710000Y-111110000D02*
X132710000Y-110660000D01*
X125490000Y-103890000D02*
X125490000Y-104340000D01*
X132260000Y-111110000D02*
X132710000Y-111110000D01*
X125490000Y-104340000D02*
X124200000Y-104340000D01*
X132710000Y-103890000D02*
X132710000Y-104340000D01*
%TO.C,C6*%
X134010000Y-101740580D02*
X134010000Y-101459420D01*
X132990000Y-101740580D02*
X132990000Y-101459420D01*
%TD*%
M02*
