M48
; DRILL file {KiCad (6.0.5)} date Thu Jul 28 20:16:00 2022
; FORMAT={-:-/ absolute / inch / decimal}
; #@! TF.CreationDate,2022-07-28T20:16:00-06:00
; #@! TF.GenerationSoftware,Kicad,Pcbnew,(6.0.5)
; #@! TF.FileFunction,Plated,1,2,PTH
FMAT,2
INCH
; #@! TA.AperFunction,Plated,PTH,ViaDrill
T1C0.0157
; #@! TA.AperFunction,Plated,PTH,ComponentDrill
T2C0.0394
%
G90
G05
T1
X4.6654Y-4.4213
X4.6693Y-4.0
X4.685Y-4.2913
X4.689Y-4.2283
X4.9291Y-4.4685
X5.1024Y-4.5276
X5.1142Y-3.9961
X5.126Y-4.4646
X5.1732Y-3.8386
X5.2677Y-3.9252
X5.2992Y-4.1457
X5.3258Y-3.7254
T2
X4.7569Y-4.685
X4.7878Y-3.7677
X4.8569Y-4.685
X4.8878Y-3.7677
X4.9878Y-3.7677
X5.0677Y-4.6811
X5.0878Y-3.7677
X5.1677Y-4.6811
X5.2677Y-4.6811
X5.3976Y-4.0002
X5.3976Y-4.1002
X5.3976Y-4.2002
X5.3976Y-4.3002
X5.3976Y-4.4002
T0
M30
